SplineFontDB: 3.0
FontName: ClematisMono-Bold
FullName: Clematis Mono Bold
FamilyName: Clematis Mono
Weight: Bold
Copyright: Copyright 2011 Canonical Ltd.  Licensed under the Ubuntu Font Licence 1.0\n(C) 2017 Uzuki.
Version: 0.2.2
ItalicAngle: 0
UnderlinePosition: -133
UnderlineWidth: 20
Ascent: 800
Descent: 200
LayerCount: 2
Layer: 0 1 "+gMyXYgAA"  1
Layer: 1 1 "+Uk2XYgAA"  0
XUID: [1021 283 709330389 30432]
FSType: 0
OS2Version: 3
OS2_WeightWidthSlopeOnly: 0
OS2_UseTypoMetrics: 0
CreationTime: 1304432203
ModificationTime: 1506582375
PfmFamily: 17
TTFWeight: 700
TTFWidth: 5
LineGap: 0
VLineGap: 0
Panose: 2 11 8 9 3 6 2 3 2 4
OS2TypoAscent: 693
OS2TypoAOffset: 0
OS2TypoDescent: -165
OS2TypoDOffset: 0
OS2TypoLinegap: 49
OS2WinAscent: 830
OS2WinAOffset: 0
OS2WinDescent: 170
OS2WinDOffset: 0
HheadAscent: 830
HheadAOffset: 0
HheadDescent: -170
HheadDOffset: 0
OS2SubXSize: 700
OS2SubYSize: 650
OS2SubXOff: 0
OS2SubYOff: 140
OS2SupXSize: 700
OS2SupYSize: 650
OS2SupXOff: 0
OS2SupYOff: 477
OS2StrikeYSize: 50
OS2StrikeYPos: 250
OS2Vendor: 'DAMA'
OS2CodePages: 2000009f.56010000
OS2UnicodeRanges: e00002ff.5000205b.00000000.00000000
Lookup: 1 0 0 "'locl' +Vv0w+1cwV99W+mcJMG5bV19i in +MOkwxjDzZYdbVwAA lookup 0"  {"'locl' +Vv0w+1cwV99W+mcJMG5bV19i in +MOkwxjDzZYdbVwAA lookup 0 +MLUw1jDGMPww1jDr"  } ['locl' ('latn' <'AZE ' > ) ]
Lookup: 1 0 0 "'locl' +Vv0w+1cwV99W+mcJMG5bV19i in +MOkwxjDzZYdbVwAA lookup 1"  {"'locl' +Vv0w+1cwV99W+mcJMG5bV19i in +MOkwxjDzZYdbVwAA lookup 1 +MLUw1jDGMPww1jDr"  } ['locl' ('latn' <'TRK ' > ) ]
Lookup: 1 0 0 "'locl' +Vv0w+1cwV99W+mcJMG5bV19i in +MOkwxjDzZYdbVwAA lookup 2"  {"'locl' +Vv0w+1cwV99W+mcJMG5bV19i in +MOkwxjDzZYdbVwAA lookup 2 +MLUw1jDGMPww1jDr"  } ['locl' ('latn' <'CRT ' > ) ]
Lookup: 1 0 0 "'locl' +Vv0w+1cwV99W+mcJMG5bV19i in +MK0w6jDrZYdbVwAA lookup 3"  {"'locl' +Vv0w+1cwV99W+mcJMG5bV19i in +MK0w6jDrZYdbVwAA lookup 3 +MLUw1jDGMPww1jDr"  } ['locl' ('cyrl' <'BGR ' > ) ]

StartChar: SF030000.001
Encoding: 65536 -1 0
Width: 500
Flags: W
LayerCount: 2
Fore
SplineSet
432 54 m 1,0,-1
 432 756 l 1,1,-1
 108 756 l 1,2,-1
 108 54 l 1,3,-1
 432 54 l 1,0,-1
54 0 m 1,4,-1
 54 810 l 1,5,-1
 486 810 l 1,6,-1
 486 0 l 1,7,-1
 54 0 l 1,4,-1
EndSplineSet
EndChar

StartChar: exclam
Encoding: 33 33 4
Width: 500
Flags: W
LayerCount: 2
Fore
SplineSet
360 77 m 0,0,1
 360 35 360 35 332.5 11 c 128,-1,2
 305 -13 305 -13 270 -13 c 128,-1,3
 235 -13 235 -13 207.5 11 c 128,-1,4
 180 35 180 35 180 77 c 0,5,6
 180 118 180 118 207.5 141.5 c 128,-1,7
 235 165 235 165 270 165 c 128,-1,8
 305 165 305 165 332.5 141.5 c 128,-1,9
 360 118 360 118 360 77 c 0,0,1
347 491 m 2,10,11
 347 452 347 452 345 421.5 c 128,-1,12
 343 391 343 391 340.5 362.5 c 128,-1,13
 338 334 338 334 334 306 c 128,-1,14
 330 278 330 278 326 243 c 1,15,-1
 216 243 l 1,16,17
 211 278 211 278 207 306.5 c 128,-1,18
 203 335 203 335 200 363 c 128,-1,19
 197 391 197 391 195 422 c 128,-1,20
 193 453 193 453 193 491 c 2,21,-1
 193 669 l 1,22,-1
 347 669 l 1,23,-1
 347 491 l 2,10,11
EndSplineSet
EndChar

StartChar: quotedbl
Encoding: 34 34 5
Width: 500
Flags: W
LayerCount: 2
Fore
SplineSet
235 733 m 1,0,-1
 235 680 l 2,1,2
 235 653 235 653 232.5 621.5 c 128,-1,3
 230 590 230 590 225 556.5 c 128,-1,4
 220 523 220 523 214 490.5 c 128,-1,5
 208 458 208 458 203 430 c 1,6,-1
 126 430 l 1,7,8
 121 458 121 458 115.5 490.5 c 128,-1,9
 110 523 110 523 105 556.5 c 128,-1,10
 100 590 100 590 97 622 c 128,-1,11
 94 654 94 654 94 681 c 2,12,-1
 94 733 l 1,13,-1
 235 733 l 1,0,-1
448 733 m 1,14,-1
 448 680 l 2,15,16
 448 653 448 653 445.5 621.5 c 128,-1,17
 443 590 443 590 438 556.5 c 128,-1,18
 433 523 433 523 427.5 490.5 c 128,-1,19
 422 458 422 458 417 430 c 1,20,-1
 339 430 l 1,21,22
 334 458 334 458 328.5 490.5 c 128,-1,23
 323 523 323 523 318 556.5 c 128,-1,24
 313 590 313 590 310 622 c 128,-1,25
 307 654 307 654 307 681 c 2,26,-1
 307 733 l 1,27,-1
 448 733 l 1,14,-1
EndSplineSet
EndChar

StartChar: numbersign
Encoding: 35 35 6
Width: 500
Flags: W
LayerCount: 2
Fore
SplineSet
215 275 m 1,0,-1
 301 275 l 1,1,-1
 323 394 l 1,2,-1
 238 394 l 1,3,-1
 215 275 l 1,0,-1
149 504 m 1,4,-1
 180 669 l 1,5,-1
 291 669 l 1,6,-1
 258 504 l 1,7,-1
 345 504 l 1,8,-1
 376 669 l 1,9,-1
 486 669 l 1,10,-1
 455 504 l 1,11,-1
 522 504 l 1,12,-1
 522 394 l 1,13,-1
 433 394 l 1,14,-1
 410 275 l 1,15,-1
 522 275 l 1,16,-1
 522 165 l 1,17,-1
 390 165 l 1,18,-1
 359 0 l 1,19,-1
 248 0 l 1,20,-1
 280 165 l 1,21,-1
 193 165 l 1,22,-1
 163 0 l 1,23,-1
 53 0 l 1,24,-1
 84 165 l 1,25,-1
 19 165 l 1,26,-1
 19 275 l 1,27,-1
 105 275 l 1,28,-1
 127 394 l 1,29,-1
 19 394 l 1,30,-1
 19 504 l 1,31,-1
 149 504 l 1,4,-1
EndSplineSet
EndChar

StartChar: dollar
Encoding: 36 36 7
Width: 500
Flags: W
LayerCount: 2
Fore
SplineSet
207 10 m 1,0,1
 140 16 140 16 99 31 c 128,-1,2
 58 46 58 46 37 58 c 1,3,-1
 78 164 l 1,4,5
 113 147 113 147 159 134 c 0,6,7
 183 128 183 128 207 124 c 1,8,-1
 207 294 l 1,9,10
 185 303 185 303 165 311 c 1,11,12
 135 325 135 325 111 345 c 128,-1,13
 87 365 87 365 72.5 393.5 c 128,-1,14
 58 422 58 422 58 464 c 0,15,16
 58 494 58 494 66.5 522.5 c 128,-1,17
 75 551 75 551 92.5 574.5 c 128,-1,18
 110 598 110 598 139 616 c 0,19,20
 167 633 167 633 207 643 c 1,21,-1
 207 646 l 1,22,-1
 211 646 l 1,23,-1
 211 748 l 1,24,-1
 334 748 l 1,25,-1
 334 649 l 1,26,27
 384 645 384 645 422 634 c 128,-1,28
 460 623 460 623 482 615 c 1,29,-1
 451 503 l 1,30,31
 421 516 421 516 378 527 c 0,32,33
 356 532 356 532 334 535 c 1,34,-1
 334 382 l 1,35,36
 363 371 363 371 388 359 c 0,37,38
 424 342 424 342 449.5 318 c 128,-1,39
 475 294 475 294 489.5 262.5 c 128,-1,40
 504 231 504 231 504 189 c 0,41,42
 504 160 504 160 495.5 131.5 c 128,-1,43
 487 103 487 103 467 78.5 c 128,-1,44
 447 54 447 54 414.5 36.5 c 128,-1,45
 382 19 382 19 334 11 c 1,46,-1
 334 0 l 1,47,-1
 332 0 l 1,48,-1
 332 -105 l 1,49,-1
 208 -105 l 1,50,-1
 208 0 l 1,51,-1
 207 0 l 1,52,-1
 207 10 l 1,0,1
207 507 m 1,53,54
 197 493 197 493 198 475 c 0,55,56
 199 458 199 458 205 447 c 0,57,58
 206 445 206 445 207 443 c 1,59,-1
 207 507 l 1,53,54
334 133 m 1,60,61
 338 134 338 134 341 136 c 0,62,63
 365 151 365 151 365 186 c 0,64,65
 365 205 365 205 356 219 c 0,66,67
 348 231 348 231 334 241 c 1,68,-1
 334 133 l 1,60,61
EndSplineSet
EndChar

StartChar: percent
Encoding: 37 37 8
Width: 500
Flags: W
LayerCount: 2
Fore
SplineSet
166 516.5 m 128,-1,1
 166 562 166 562 155.5 580.5 c 128,-1,2
 145 599 145 599 131 599 c 0,3,4
 116 599 116 599 106 580.5 c 128,-1,5
 96 562 96 562 96 516.5 c 128,-1,6
 96 471 96 471 106 452.5 c 128,-1,7
 116 434 116 434 131 434 c 0,8,9
 145 434 145 434 155.5 452.5 c 128,-1,0
 166 471 166 471 166 516.5 c 128,-1,1
11 516 m 128,-1,11
 11 598 11 598 43.5 641 c 128,-1,12
 76 684 76 684 131 684 c 0,13,14
 189 684 189 684 221.5 641 c 128,-1,15
 254 598 254 598 254 516 c 128,-1,16
 254 434 254 434 221.5 391 c 128,-1,17
 189 348 189 348 131 348 c 0,18,19
 76 348 76 348 43.5 391 c 128,-1,10
 11 434 11 434 11 516 c 128,-1,11
443 153.5 m 128,-1,21
 443 199 443 199 432 218.5 c 128,-1,22
 421 238 421 238 406 238 c 128,-1,23
 391 238 391 238 382 218.5 c 128,-1,24
 373 199 373 199 373 153.5 c 128,-1,25
 373 108 373 108 382 89.5 c 128,-1,26
 391 71 391 71 406 71 c 128,-1,27
 421 71 421 71 432 89.5 c 128,-1,20
 443 108 443 108 443 153.5 c 128,-1,21
286 153 m 128,-1,29
 286 235 286 235 318.5 278 c 128,-1,30
 351 321 351 321 407 321 c 0,31,32
 464 321 464 321 496.5 278 c 128,-1,33
 529 235 529 235 529 153 c 128,-1,34
 529 71 529 71 496.5 28.5 c 128,-1,35
 464 -14 464 -14 407 -14 c 0,36,37
 351 -14 351 -14 318.5 28.5 c 128,-1,28
 286 71 286 71 286 153 c 128,-1,29
98 0 m 1,38,-1
 2 0 l 1,39,-1
 442 669 l 1,40,-1
 538 669 l 1,41,-1
 98 0 l 1,38,-1
EndSplineSet
EndChar

StartChar: ampersand
Encoding: 38 38 9
Width: 500
Flags: W
LayerCount: 2
Fore
SplineSet
184 516 m 0,0,1
 184 492 184 492 193.5 468 c 128,-1,2
 203 444 203 444 220 418 c 1,3,4
 255 437 255 437 273.5 469 c 128,-1,5
 292 501 292 501 292 530 c 0,6,7
 292 558 292 558 278.5 573 c 128,-1,8
 265 588 265 588 243 588 c 0,9,10
 216 588 216 588 200 569.5 c 128,-1,11
 184 551 184 551 184 516 c 0,0,1
315 135 m 1,12,13
 285 173 285 173 252.5 208.5 c 128,-1,14
 220 244 220 244 189 279 c 1,15,16
 165 263 165 263 150.5 239.5 c 128,-1,17
 136 216 136 216 136 183 c 0,18,19
 136 146 136 146 155 119 c 128,-1,20
 174 92 174 92 219 92 c 0,21,22
 244 92 244 92 268.5 101.5 c 128,-1,23
 293 111 293 111 315 135 c 1,12,13
394 0 m 1,24,25
 382 31 382 31 368 57 c 1,26,27
 331 25 331 25 292.5 8 c 128,-1,28
 254 -9 254 -9 216 -9 c 0,29,30
 167 -9 167 -9 131 6.5 c 128,-1,31
 95 22 95 22 70.5 47 c 128,-1,32
 46 72 46 72 34.5 105.5 c 128,-1,33
 23 139 23 139 23 176 c 0,34,35
 23 228 23 228 49.5 275 c 128,-1,36
 76 322 76 322 129 354 c 1,37,38
 103 390 103 390 86 429 c 128,-1,39
 69 468 69 468 69 510 c 0,40,41
 69 553 69 553 84 586 c 128,-1,42
 99 619 99 619 124 640.5 c 128,-1,43
 149 662 149 662 180 673 c 128,-1,44
 211 684 211 684 243 684 c 0,45,46
 273 684 273 684 302.5 674 c 128,-1,47
 332 664 332 664 354.5 645 c 128,-1,48
 377 626 377 626 391 597.5 c 128,-1,49
 405 569 405 569 405 531 c 0,50,51
 405 479 405 479 373.5 430 c 128,-1,52
 342 381 342 381 275 347 c 1,53,54
 297 321 297 321 321 294 c 128,-1,55
 345 267 345 267 369 239 c 1,56,57
 384 294 384 294 386 369 c 1,58,-1
 496 355 l 1,59,60
 495 295 495 295 480 243 c 128,-1,61
 465 191 465 191 443 149 c 1,62,63
 469 113 469 113 489.5 75.5 c 128,-1,64
 510 38 510 38 521 0 c 1,65,-1
 394 0 l 1,24,25
EndSplineSet
EndChar

StartChar: quotesingle
Encoding: 39 39 10
Width: 500
Flags: W
LayerCount: 2
Fore
SplineSet
342 733 m 1,0,-1
 342 662 l 2,1,2
 342 635 342 635 339.5 603 c 128,-1,3
 337 571 337 571 332 537.5 c 128,-1,4
 327 504 327 504 321.5 471 c 128,-1,5
 316 438 316 438 311 410 c 1,6,-1
 233 410 l 1,7,8
 228 438 228 438 222.5 471 c 128,-1,9
 217 504 217 504 212 537.5 c 128,-1,10
 207 571 207 571 204 603 c 128,-1,11
 201 635 201 635 201 662 c 2,12,-1
 201 733 l 1,13,-1
 342 733 l 1,0,-1
EndSplineSet
EndChar

StartChar: parenleft
Encoding: 40 40 11
Width: 500
Flags: W
LayerCount: 2
Fore
SplineSet
225 287 m 0,0,1
 225 154 225 154 283.5 56.5 c 128,-1,2
 342 -41 342 -41 446 -102 c 1,3,-1
 384 -184 l 1,4,5
 237 -103 237 -103 169.5 18 c 128,-1,6
 102 139 102 139 102 287 c 0,7,8
 102 436 102 436 172 561 c 128,-1,9
 242 686 242 686 389 767 c 1,10,-1
 450 685 l 1,11,12
 346 625 346 625 285.5 523 c 128,-1,13
 225 421 225 421 225 287 c 0,0,1
EndSplineSet
Substitution2: "'case' +WSdlh1tXfUQwf3UoMGuKv2V0MFcwX1tXX2IA lookup 17 +MLUw1jDGMPww1jDr" Parenleft
EndChar

StartChar: parenright
Encoding: 41 41 12
Width: 500
Flags: W
LayerCount: 2
Fore
SplineSet
318 287 m 0,0,1
 318 421 318 421 256.5 522.5 c 128,-1,2
 195 624 195 624 92 685 c 1,3,-1
 153 767 l 1,4,5
 300 686 300 686 370.5 561 c 128,-1,6
 441 436 441 436 441 287 c 0,7,8
 441 139 441 139 373 18 c 128,-1,9
 305 -103 305 -103 158 -184 c 1,10,-1
 96 -102 l 1,11,12
 200 -42 200 -42 259 56 c 128,-1,13
 318 154 318 154 318 287 c 0,0,1
EndSplineSet
Substitution2: "'case' +WSdlh1tXfUQwf3UoMGuKv2V0MFcwX1tXX2IA lookup 17 +MLUw1jDGMPww1jDr" Parenright
EndChar

StartChar: asterisk
Encoding: 42 42 13
Width: 500
Flags: W
LayerCount: 2
Fore
SplineSet
272 211 m 1,0,1
 272 209 272 209 262 179 c 0,2,3
 257 161 257 161 249 143 c 0,4,5
 242 125 242 125 234 108 c 0,6,7
 225 89 225 89 218 81 c 2,8,-1
 198 54 l 1,9,-1
 96 126 l 1,10,-1
 117 153 l 2,11,12
 123 162 123 162 138 177 c 0,13,14
 152 190 152 190 166 203 c 1,15,16
 182 216 182 216 195 227 c 1,17,18
 211 238 211 238 221 246 c 1,19,20
 207 246 207 246 188 246 c 0,21,22
 170 246 170 246 150 248 c 0,23,24
 123 251 123 251 112 253 c 2,25,-1
 82 260 l 1,26,-1
 50 271 l 1,27,-1
 90 389 l 1,28,-1
 122 379 l 2,29,30
 131 377 131 377 150 366 c 0,31,32
 166 357 166 357 182.5 346 c 128,-1,33
 199 335 199 335 214 324 c 1,34,35
 231 313 231 313 241 305 c 1,36,37
 236 318 236 318 231.5 335.5 c 128,-1,38
 227 353 227 353 221 373 c 0,39,40
 216 392 216 392 213 410 c 0,41,42
 210 424 210 424 210 442 c 2,43,-1
 210 475 l 1,44,-1
 335 475 l 1,45,-1
 335 442 l 2,46,47
 335 430 335 430 332 410 c 0,48,49
 329 392 329 392 323 373 c 1,50,51
 319 354 319 354 313 335 c 0,52,53
 307 317 307 317 302 305 c 1,54,55
 313 313 313 313 329 323 c 0,56,57
 356 341 356 341 362 344 c 0,58,59
 380 353 380 353 395 363 c 0,60,61
 403 369 403 369 424 376 c 2,62,-1
 456 387 l 1,63,-1
 495 267 l 1,64,-1
 462 257 l 2,65,66
 448 253 448 253 431 251 c 0,67,68
 413 249 413 249 393.5 247 c 128,-1,69
 374 245 374 245 355 245 c 0,70,71
 337 245 337 245 322 245 c 1,72,73
 335 237 335 237 349 226 c 0,74,75
 365 214 365 214 379 202 c 1,76,77
 395 190 395 190 407 177 c 0,78,79
 426 154 426 154 428 153 c 1,80,-1
 448 126 l 1,81,-1
 347 53 l 1,82,-1
 327 80 l 2,83,84
 318 92 318 92 312 107 c 1,85,86
 301 130 301 130 296 142 c 1,87,88
 290 161 290 161 282 179 c 1,89,90
 276 197 276 197 272 211 c 1,0,1
EndSplineSet
EndChar

StartChar: plus
Encoding: 43 43 14
Width: 500
Flags: W
LayerCount: 2
Fore
SplineSet
43 338 m 1,0,-1
 213 338 l 1,1,-1
 213 526 l 1,2,-1
 327 526 l 1,3,-1
 327 338 l 1,4,-1
 497 338 l 1,5,-1
 497 229 l 1,6,-1
 327 229 l 1,7,-1
 327 41 l 1,8,-1
 213 41 l 1,9,-1
 213 229 l 1,10,-1
 43 229 l 1,11,-1
 43 338 l 1,0,-1
EndSplineSet
EndChar

StartChar: comma
Encoding: 44 44 15
Width: 500
Flags: W
LayerCount: 2
Fore
SplineSet
136 -79 m 1,0,1
 155 -75 155 -75 175 -71.5 c 128,-1,2
 195 -68 195 -68 213 -61.5 c 128,-1,3
 231 -55 231 -55 245 -43 c 128,-1,4
 259 -31 259 -31 268 -11 c 1,5,6
 227 -7 227 -7 204 21.5 c 128,-1,7
 181 50 181 50 181 84 c 0,8,9
 181 126 181 126 209 153 c 128,-1,10
 237 180 237 180 279 180 c 0,11,12
 324 180 324 180 349.5 150 c 128,-1,13
 375 120 375 120 375 68 c 0,14,15
 375 30 375 30 363 -7.5 c 128,-1,16
 351 -45 351 -45 324.5 -77.5 c 128,-1,17
 298 -110 298 -110 256 -134 c 128,-1,18
 214 -158 214 -158 153 -165 c 1,19,-1
 136 -79 l 1,0,1
EndSplineSet
EndChar

StartChar: hyphen
Encoding: 45 45 16
Width: 500
Flags: W
LayerCount: 2
Fore
SplineSet
43 338 m 1,0,-1
 496 338 l 1,1,-1
 497 338 l 1,2,-1
 496 229 l 1,3,-1
 43 229 l 1,4,-1
 43 338 l 1,0,-1
EndSplineSet
Substitution2: "'case' +WSdlh1tXfUQwf3UoMGuKv2V0MFcwX1tXX2IA lookup 17 +MLUw1jDGMPww1jDr" Hyphen
EndChar

StartChar: period
Encoding: 46 46 17
Width: 500
Flags: W
LayerCount: 2
Fore
SplineSet
367 85 m 0,0,1
 367 37 367 37 338 12.5 c 128,-1,2
 309 -12 309 -12 271 -12 c 0,3,4
 252 -12 252 -12 234.5 -5.5 c 128,-1,5
 217 1 217 1 203.5 13.5 c 128,-1,6
 190 26 190 26 182 44 c 128,-1,7
 174 62 174 62 174 85 c 128,-1,8
 174 108 174 108 182 126 c 128,-1,9
 190 144 190 144 203.5 155.5 c 128,-1,10
 217 167 217 167 234.5 173.5 c 128,-1,11
 252 180 252 180 271 180 c 0,12,13
 309 180 309 180 338 155 c 128,-1,14
 367 130 367 130 367 85 c 0,0,1
EndSplineSet
EndChar

StartChar: slash
Encoding: 47 47 18
Width: 500
Flags: W
LayerCount: 2
Fore
SplineSet
189 -178 m 1,0,-1
 51 -178 l 1,1,-1
 353 755 l 1,2,-1
 489 755 l 1,3,-1
 189 -178 l 1,0,-1
EndSplineSet
Substitution2: "'case' +WSdlh1tXfUQwf3UoMGuKv2V0MFcwX1tXX2IA lookup 17 +MLUw1jDGMPww1jDr" Slash
Substitution2: "'ss02' +MLkwvzCkMOswuzDDMMgA-2 lookup 14 +MLUw1jDGMPww1jDr" fraction
Substitution2: "'frac' +ZZwwgTBuUgZlcAAA lookup 12 +MLUw1jDGMPww1jDr" fraction
EndChar

StartChar: zero
Encoding: 48 48 19
Width: 500
Flags: W
LayerCount: 2
Fore
SplineSet
502 336 m 0,0,1
 502 159 502 159 442.5 72.5 c 128,-1,2
 383 -14 383 -14 270 -14 c 128,-1,3
 157 -14 157 -14 97.5 72.5 c 128,-1,4
 38 159 38 159 38 336 c 0,5,6
 38 511 38 511 98.5 597.5 c 128,-1,7
 159 684 159 684 270 684 c 0,8,9
 383 684 383 684 442.5 598 c 128,-1,10
 502 512 502 512 502 336 c 0,0,1
187 161 m 1,11,-1
 187 160 l 1,12,13
 215 102 215 102 270 100 c 1,14,15
 326 99 326 99 360.5 160.5 c 128,-1,16
 395 222 395 222 395 387 c 1,17,-1
 187 161 l 1,11,-1
356 504 m 1,18,-1
 354 510 l 1,19,20
 324 570 324 570 270 570 c 128,-1,21
 216 570 216 570 187 510 c 0,22,23
 157 447 157 447 156 292 c 1,24,-1
 356 504 l 1,18,-1
EndSplineSet
Substitution2: "'ss02' +MLkwvzCkMOswuzDDMMgA-2 lookup 15 +MLUw1jDGMPww1jDr" zerosuperior
Substitution2: "'sinf' +edFbZmWHcy51KE4LMGQwTWWHW1cA lookup 11 +MLUw1jDGMPww1jDr" zero.sinf
Substitution2: "'subs' +TgswZDBNZYdbVwAA lookup 10 +MLUw1jDGMPww1jDr" zero.sinf
Substitution2: "'sups' +TgowZDBNZYdbVwAA lookup 9 +MLUw1jDGMPww1jDr" zero.sups
Substitution2: "'dnom' +UgZrzQAA lookup 8 +MLUw1jDGMPww1jDr" zeroinferior
Substitution2: "'numr' +UgZbUAAA lookup 6 +MLUw1jDGMPww1jDr" zerosuperior
EndChar

StartChar: one
Encoding: 49 49 20
Width: 500
Flags: W
LayerCount: 2
Fore
SplineSet
230 0 m 1,0,-1
 230 484 l 1,1,2
 200 462 200 462 161 445.5 c 128,-1,3
 122 429 122 429 95 419 c 1,4,-1
 52 529 l 1,5,6
 78 539 78 539 108 554 c 128,-1,7
 138 569 138 569 168.5 587.5 c 128,-1,8
 199 606 199 606 226 626.5 c 128,-1,9
 253 647 253 647 272 669 c 1,10,-1
 363 669 l 1,11,-1
 363 0 l 1,12,-1
 230 0 l 1,0,-1
EndSplineSet
Substitution2: "'ss02' +MLkwvzCkMOswuzDDMMgA-2 lookup 15 +MLUw1jDGMPww1jDr" onesuperior
Substitution2: "'sinf' +edFbZmWHcy51KE4LMGQwTWWHW1cA lookup 11 +MLUw1jDGMPww1jDr" one.sinf
Substitution2: "'subs' +TgswZDBNZYdbVwAA lookup 10 +MLUw1jDGMPww1jDr" one.sinf
Substitution2: "'sups' +TgowZDBNZYdbVwAA lookup 9 +MLUw1jDGMPww1jDr" one.sups
Substitution2: "'dnom' +UgZrzQAA lookup 8 +MLUw1jDGMPww1jDr" oneinferior
Substitution2: "'numr' +UgZbUAAA lookup 6 +MLUw1jDGMPww1jDr" onesuperior
EndChar

StartChar: two
Encoding: 50 50 21
Width: 500
Flags: W
LayerCount: 2
Fore
SplineSet
469 492 m 0,0,1
 469 457 469 457 456 425.5 c 128,-1,2
 443 394 443 394 421.5 364 c 128,-1,3
 400 334 400 334 373 306 c 128,-1,4
 346 278 346 278 318 252 c 0,5,6
 304 239 304 239 285.5 221 c 128,-1,7
 267 203 267 203 250.5 184 c 128,-1,8
 234 165 234 165 223 145.5 c 128,-1,9
 212 126 212 126 212 110 c 1,10,-1
 499 110 l 1,11,-1
 499 0 l 1,12,-1
 63 0 l 1,13,14
 60 11 60 11 60 27 c 128,-1,15
 60 43 60 43 60 50 c 0,16,17
 60 104 60 104 80 149 c 128,-1,18
 100 194 100 194 131 232.5 c 128,-1,19
 162 271 162 271 197 304 c 128,-1,20
 232 337 232 337 263 367 c 128,-1,21
 294 397 294 397 314 425.5 c 128,-1,22
 334 454 334 454 334 483 c 0,23,24
 334 524 334 524 309 546 c 128,-1,25
 284 568 284 568 246 568 c 0,26,27
 215 568 215 568 180.5 553 c 128,-1,28
 146 538 146 538 112 502 c 1,29,-1
 46 595 l 1,30,31
 89 640 89 640 146 662 c 128,-1,32
 203 684 203 684 259 684 c 0,33,34
 300 684 300 684 338 672 c 128,-1,35
 376 660 376 660 405 636 c 128,-1,36
 434 612 434 612 451.5 576 c 128,-1,37
 469 540 469 540 469 492 c 0,0,1
EndSplineSet
Substitution2: "'ss02' +MLkwvzCkMOswuzDDMMgA-2 lookup 15 +MLUw1jDGMPww1jDr" twosuperior
Substitution2: "'sinf' +edFbZmWHcy51KE4LMGQwTWWHW1cA lookup 11 +MLUw1jDGMPww1jDr" two.sinf
Substitution2: "'subs' +TgswZDBNZYdbVwAA lookup 10 +MLUw1jDGMPww1jDr" two.sinf
Substitution2: "'sups' +TgowZDBNZYdbVwAA lookup 9 +MLUw1jDGMPww1jDr" two.sups
Substitution2: "'dnom' +UgZrzQAA lookup 8 +MLUw1jDGMPww1jDr" twoinferior
Substitution2: "'numr' +UgZbUAAA lookup 6 +MLUw1jDGMPww1jDr" twosuperior
EndChar

StartChar: three
Encoding: 51 51 22
Width: 500
Flags: W
LayerCount: 2
Fore
SplineSet
230 -14 m 0,0,1
 205 -14 205 -14 177.5 -10 c 128,-1,2
 150 -6 150 -6 124.5 -1 c 128,-1,3
 99 4 99 4 77.5 10.5 c 128,-1,4
 56 17 56 17 44 23 c 1,5,-1
 70 134 l 1,6,7
 95 123 95 123 134.5 111 c 128,-1,8
 174 99 174 99 229 99 c 0,9,10
 297 99 297 99 324.5 128.5 c 128,-1,11
 352 158 352 158 352 201 c 0,12,13
 352 254 352 254 310 275 c 128,-1,14
 268 296 268 296 203 296 c 2,15,-1
 162 296 l 1,16,-1
 162 406 l 1,17,-1
 212 406 l 2,18,19
 233 406 233 406 253 410.5 c 128,-1,20
 273 415 273 415 289.5 424.5 c 128,-1,21
 306 434 306 434 316 450.5 c 128,-1,22
 326 467 326 467 326 491 c 0,23,24
 326 528 326 528 304 549 c 128,-1,25
 282 570 282 570 243 570 c 0,26,27
 205 570 205 570 168 557.5 c 128,-1,28
 131 545 131 545 104 527 c 1,29,-1
 56 624 l 1,30,31
 85 643 85 643 133 663.5 c 128,-1,32
 181 684 181 684 242 684 c 0,33,34
 298 684 298 684 339.5 670 c 128,-1,35
 381 656 381 656 408 630.5 c 128,-1,36
 435 605 435 605 448 570.5 c 128,-1,37
 461 536 461 536 461 496 c 128,-1,38
 461 456 461 456 438.5 419 c 128,-1,39
 416 382 416 382 378 363 c 1,40,41
 430 341 430 341 458.5 299 c 128,-1,42
 487 257 487 257 487 199 c 0,43,44
 487 153 487 153 472 114 c 128,-1,45
 457 75 457 75 425.5 46 c 128,-1,46
 394 17 394 17 345.5 1.5 c 128,-1,47
 297 -14 297 -14 230 -14 c 0,0,1
EndSplineSet
Substitution2: "'ss02' +MLkwvzCkMOswuzDDMMgA-2 lookup 15 +MLUw1jDGMPww1jDr" threesuperior
Substitution2: "'sinf' +edFbZmWHcy51KE4LMGQwTWWHW1cA lookup 11 +MLUw1jDGMPww1jDr" three.sinf
Substitution2: "'subs' +TgswZDBNZYdbVwAA lookup 10 +MLUw1jDGMPww1jDr" three.sinf
Substitution2: "'sups' +TgowZDBNZYdbVwAA lookup 9 +MLUw1jDGMPww1jDr" three.sups
Substitution2: "'dnom' +UgZrzQAA lookup 8 +MLUw1jDGMPww1jDr" threeinferior
Substitution2: "'numr' +UgZbUAAA lookup 6 +MLUw1jDGMPww1jDr" threesuperior
EndChar

StartChar: four
Encoding: 52 52 23
Width: 500
Flags: W
LayerCount: 2
Fore
SplineSet
441 669 m 1,0,-1
 441 267 l 1,1,-1
 513 267 l 1,2,-1
 513 158 l 1,3,-1
 441 158 l 1,4,-1
 441 0 l 1,5,-1
 308 0 l 1,6,-1
 308 158 l 1,7,-1
 29 158 l 1,8,-1
 29 255 l 1,9,10
 50 297 50 297 82 350.5 c 128,-1,11
 114 404 114 404 153 460 c 128,-1,12
 192 516 192 516 235.5 570.5 c 128,-1,13
 279 625 279 625 322 669 c 1,14,-1
 441 669 l 1,0,-1
308 502 m 1,15,16
 289 477 289 477 268 449 c 128,-1,17
 247 421 247 421 227 390.5 c 128,-1,18
 207 360 207 360 189 328.5 c 128,-1,19
 171 297 171 297 157 267 c 1,20,-1
 308 267 l 1,21,-1
 308 502 l 1,15,16
EndSplineSet
Substitution2: "'ss02' +MLkwvzCkMOswuzDDMMgA-2 lookup 15 +MLUw1jDGMPww1jDr" foursuperior
Substitution2: "'sinf' +edFbZmWHcy51KE4LMGQwTWWHW1cA lookup 11 +MLUw1jDGMPww1jDr" four.sinf
Substitution2: "'subs' +TgswZDBNZYdbVwAA lookup 10 +MLUw1jDGMPww1jDr" four.sinf
Substitution2: "'sups' +TgowZDBNZYdbVwAA lookup 9 +MLUw1jDGMPww1jDr" four.sups
Substitution2: "'dnom' +UgZrzQAA lookup 8 +MLUw1jDGMPww1jDr" fourinferior
Substitution2: "'numr' +UgZbUAAA lookup 6 +MLUw1jDGMPww1jDr" foursuperior
EndChar

StartChar: five
Encoding: 53 53 24
Width: 500
Flags: W
LayerCount: 2
Fore
SplineSet
347 197 m 0,0,1
 347 225 347 225 337.5 248 c 128,-1,2
 328 271 328 271 300.5 288 c 128,-1,3
 273 305 273 305 222.5 314 c 128,-1,4
 172 323 172 323 90 323 c 1,5,6
 101 414 101 414 107 501 c 128,-1,7
 113 588 113 588 117 669 c 1,8,-1
 458 669 l 1,9,-1
 458 558 l 1,10,-1
 228 558 l 1,11,12
 226 523 226 523 222.5 485.5 c 128,-1,13
 219 448 219 448 217 424 c 1,14,15
 351 415 351 415 417 359 c 128,-1,16
 483 303 483 303 483 202 c 0,17,18
 483 156 483 156 466.5 116.5 c 128,-1,19
 450 77 450 77 416.5 47.5 c 128,-1,20
 383 18 383 18 333.5 2 c 128,-1,21
 284 -14 284 -14 218 -14 c 0,22,23
 192 -14 192 -14 165 -11 c 128,-1,24
 138 -8 138 -8 113.5 -3 c 128,-1,25
 89 2 89 2 69 8.5 c 128,-1,26
 49 15 49 15 38 21 c 1,27,-1
 65 131 l 1,28,29
 89 119 89 119 125.5 109 c 128,-1,30
 162 99 162 99 217 99 c 0,31,32
 256 99 256 99 281.5 108 c 128,-1,33
 307 117 307 117 321.5 130.5 c 128,-1,34
 336 144 336 144 341.5 161.5 c 128,-1,35
 347 179 347 179 347 197 c 0,0,1
EndSplineSet
Substitution2: "'ss02' +MLkwvzCkMOswuzDDMMgA-2 lookup 15 +MLUw1jDGMPww1jDr" fivesuperior
Substitution2: "'sinf' +edFbZmWHcy51KE4LMGQwTWWHW1cA lookup 11 +MLUw1jDGMPww1jDr" five.sinf
Substitution2: "'subs' +TgswZDBNZYdbVwAA lookup 10 +MLUw1jDGMPww1jDr" five.sinf
Substitution2: "'sups' +TgowZDBNZYdbVwAA lookup 9 +MLUw1jDGMPww1jDr" five.sups
Substitution2: "'dnom' +UgZrzQAA lookup 8 +MLUw1jDGMPww1jDr" fiveinferior
Substitution2: "'numr' +UgZbUAAA lookup 6 +MLUw1jDGMPww1jDr" fivesuperior
EndChar

StartChar: six
Encoding: 54 54 25
Width: 500
Flags: W
LayerCount: 2
Fore
SplineSet
278 428 m 0,0,1
 336 428 336 428 376.5 410.5 c 128,-1,2
 417 393 417 393 443 364 c 128,-1,3
 469 335 469 335 480 296 c 128,-1,4
 491 257 491 257 491 214 c 0,5,6
 491 175 491 175 479 135 c 128,-1,7
 467 95 467 95 441 61.5 c 128,-1,8
 415 28 415 28 375 7 c 128,-1,9
 335 -14 335 -14 280 -14 c 0,10,11
 168 -14 168 -14 109 55.5 c 128,-1,12
 50 125 50 125 50 273 c 0,13,14
 50 370 50 370 78.5 444.5 c 128,-1,15
 107 519 107 519 160 570 c 128,-1,16
 213 621 213 621 287.5 647 c 128,-1,17
 362 673 362 673 453 673 c 1,18,-1
 460 559 l 1,19,20
 417 558 417 558 376 550.5 c 128,-1,21
 335 543 335 543 300.5 525.5 c 128,-1,22
 266 508 266 508 240.5 479.5 c 128,-1,23
 215 451 215 451 203 409 c 1,24,25
 224 418 224 418 243.5 423 c 128,-1,26
 263 428 263 428 278 428 c 0,0,1
260 318 m 0,27,28
 239 318 239 318 218 313.5 c 128,-1,29
 197 309 197 309 183 301 c 1,30,31
 182 291 182 291 181 281.5 c 128,-1,32
 180 272 180 272 180 261 c 0,33,34
 180 230 180 230 184.5 201.5 c 128,-1,35
 189 173 189 173 200 150 c 128,-1,36
 211 127 211 127 229.5 113.5 c 128,-1,37
 248 100 248 100 276 100 c 0,38,39
 299 100 299 100 315.5 111 c 128,-1,40
 332 122 332 122 342 138 c 128,-1,41
 352 154 352 154 357 173.5 c 128,-1,42
 362 193 362 193 362 212 c 0,43,44
 362 263 362 263 339 290.5 c 128,-1,45
 316 318 316 318 260 318 c 0,27,28
EndSplineSet
Substitution2: "'ss02' +MLkwvzCkMOswuzDDMMgA-2 lookup 15 +MLUw1jDGMPww1jDr" sixsuperior
Substitution2: "'sinf' +edFbZmWHcy51KE4LMGQwTWWHW1cA lookup 11 +MLUw1jDGMPww1jDr" six.sinf
Substitution2: "'subs' +TgswZDBNZYdbVwAA lookup 10 +MLUw1jDGMPww1jDr" six.sinf
Substitution2: "'sups' +TgowZDBNZYdbVwAA lookup 9 +MLUw1jDGMPww1jDr" six.sups
Substitution2: "'dnom' +UgZrzQAA lookup 8 +MLUw1jDGMPww1jDr" sixinferior
Substitution2: "'numr' +UgZbUAAA lookup 6 +MLUw1jDGMPww1jDr" sixsuperior
EndChar

StartChar: seven
Encoding: 55 55 26
Width: 500
Flags: W
LayerCount: 2
Fore
SplineSet
143 0 m 1,0,1
 146 69 146 69 165.5 146.5 c 128,-1,2
 185 224 185 224 212.5 299.5 c 128,-1,3
 240 375 240 375 272.5 442.5 c 128,-1,4
 305 510 305 510 334 558 c 1,5,-1
 53 558 l 1,6,-1
 53 669 l 1,7,-1
 489 669 l 1,8,-1
 489 568 l 1,9,10
 460 535 460 535 425.5 474.5 c 128,-1,11
 391 414 391 414 360 337 c 128,-1,12
 329 260 329 260 306 173 c 128,-1,13
 283 86 283 86 278 0 c 1,14,-1
 143 0 l 1,0,1
EndSplineSet
Substitution2: "'ss02' +MLkwvzCkMOswuzDDMMgA-2 lookup 15 +MLUw1jDGMPww1jDr" sevensuperior
Substitution2: "'sinf' +edFbZmWHcy51KE4LMGQwTWWHW1cA lookup 11 +MLUw1jDGMPww1jDr" seven.sinf
Substitution2: "'subs' +TgswZDBNZYdbVwAA lookup 10 +MLUw1jDGMPww1jDr" seven.sinf
Substitution2: "'sups' +TgowZDBNZYdbVwAA lookup 9 +MLUw1jDGMPww1jDr" seven.sups
Substitution2: "'dnom' +UgZrzQAA lookup 8 +MLUw1jDGMPww1jDr" seveninferior
Substitution2: "'numr' +UgZbUAAA lookup 6 +MLUw1jDGMPww1jDr" sevensuperior
EndChar

StartChar: eight
Encoding: 56 56 27
Width: 500
Flags: W
LayerCount: 2
Fore
SplineSet
270 575 m 0,0,1
 235 575 235 575 209 555.5 c 128,-1,2
 183 536 183 536 183 498 c 128,-1,3
 183 460 183 460 207.5 436.5 c 128,-1,4
 232 413 232 413 295 387 c 1,5,6
 328 412 328 412 342 441.5 c 128,-1,7
 356 471 356 471 356 499 c 0,8,9
 356 537 356 537 331 556 c 128,-1,10
 306 575 306 575 270 575 c 0,0,1
375 175 m 0,11,12
 375 197 375 197 367 213 c 128,-1,13
 359 229 359 229 341 242.5 c 128,-1,14
 323 256 323 256 295 269.5 c 128,-1,15
 267 283 267 283 228 298 c 1,16,17
 198 273 198 273 181.5 242.5 c 128,-1,18
 165 212 165 212 165 184 c 0,19,20
 165 141 165 141 196 118.5 c 128,-1,21
 227 96 227 96 269 96 c 0,22,23
 318 96 318 96 346.5 119.5 c 128,-1,24
 375 143 375 143 375 175 c 0,11,12
482 510 m 0,25,26
 482 464 482 464 459 419 c 128,-1,27
 436 374 436 374 388 343 c 1,28,29
 450 307 450 307 475 265.5 c 128,-1,30
 500 224 500 224 500 173 c 0,31,32
 500 141 500 141 487.5 107 c 128,-1,33
 475 73 475 73 447.5 47 c 128,-1,34
 420 21 420 21 376 3.5 c 128,-1,35
 332 -14 332 -14 267 -14 c 0,36,37
 216 -14 216 -14 174.5 -1.5 c 128,-1,38
 133 11 133 11 103 34 c 128,-1,39
 73 57 73 57 57 91 c 128,-1,40
 41 125 41 125 41 167 c 0,41,42
 41 218 41 218 65 263 c 128,-1,43
 89 308 89 308 139 342 c 1,44,45
 91 374 91 374 74 411 c 128,-1,46
 57 448 57 448 57 489 c 0,47,48
 57 521 57 521 68.5 556.5 c 128,-1,49
 80 592 80 592 105 620 c 128,-1,50
 130 648 130 648 171 666.5 c 128,-1,51
 212 685 212 685 272 685 c 0,52,53
 368 685 368 685 425 637.5 c 128,-1,54
 482 590 482 590 482 510 c 0,25,26
EndSplineSet
Substitution2: "'ss02' +MLkwvzCkMOswuzDDMMgA-2 lookup 15 +MLUw1jDGMPww1jDr" eightsuperior
Substitution2: "'sinf' +edFbZmWHcy51KE4LMGQwTWWHW1cA lookup 11 +MLUw1jDGMPww1jDr" eight.sinf
Substitution2: "'subs' +TgswZDBNZYdbVwAA lookup 10 +MLUw1jDGMPww1jDr" eight.sinf
Substitution2: "'sups' +TgowZDBNZYdbVwAA lookup 9 +MLUw1jDGMPww1jDr" eight.sups
Substitution2: "'dnom' +UgZrzQAA lookup 8 +MLUw1jDGMPww1jDr" eightinferior
Substitution2: "'numr' +UgZbUAAA lookup 6 +MLUw1jDGMPww1jDr" eightsuperior
EndChar

StartChar: nine
Encoding: 57 57 28
Width: 500
Flags: W
LayerCount: 2
Fore
SplineSet
265 245 m 0,0,1
 207 245 207 245 165.5 262 c 128,-1,2
 124 279 124 279 98 308 c 128,-1,3
 72 337 72 337 60.5 375.5 c 128,-1,4
 49 414 49 414 49 458 c 0,5,6
 49 497 49 497 62.5 537.5 c 128,-1,7
 76 578 76 578 102.5 611 c 128,-1,8
 129 644 129 644 168.5 665 c 128,-1,9
 208 686 208 686 262 686 c 0,10,11
 374 686 374 686 434 610.5 c 128,-1,12
 494 535 494 535 494 400 c 0,13,14
 494 303 494 303 465.5 227.5 c 128,-1,15
 437 152 437 152 385 101.5 c 128,-1,16
 333 51 333 51 259 24.5 c 128,-1,17
 185 -2 185 -2 94 -2 c 1,18,-1
 90 112 l 1,19,20
 176 113 176 113 244 149.5 c 128,-1,21
 312 186 312 186 340 264 c 1,22,23
 298 245 298 245 265 245 c 0,0,1
282 355 m 0,24,25
 303 355 303 355 325.5 359.5 c 128,-1,26
 348 364 348 364 362 372 c 1,27,28
 363 381 363 381 363.5 393 c 128,-1,29
 364 405 364 405 364 417 c 0,30,31
 364 444 364 444 359 471.5 c 128,-1,32
 354 499 354 499 343 521.5 c 128,-1,33
 332 544 332 544 313 558 c 128,-1,34
 294 572 294 572 266 572 c 0,35,36
 242 572 242 572 225 563 c 128,-1,37
 208 554 208 554 198 539 c 128,-1,38
 188 524 188 524 183 503.5 c 128,-1,39
 178 483 178 483 178 460 c 0,40,41
 178 409 178 409 202 382 c 128,-1,42
 226 355 226 355 282 355 c 0,24,25
EndSplineSet
Substitution2: "'ss02' +MLkwvzCkMOswuzDDMMgA-2 lookup 15 +MLUw1jDGMPww1jDr" ninesuperior
Substitution2: "'sinf' +edFbZmWHcy51KE4LMGQwTWWHW1cA lookup 11 +MLUw1jDGMPww1jDr" nine.sinf
Substitution2: "'subs' +TgswZDBNZYdbVwAA lookup 10 +MLUw1jDGMPww1jDr" nine.sinf
Substitution2: "'sups' +TgowZDBNZYdbVwAA lookup 9 +MLUw1jDGMPww1jDr" nine.sups
Substitution2: "'dnom' +UgZrzQAA lookup 8 +MLUw1jDGMPww1jDr" nineinferior
Substitution2: "'numr' +UgZbUAAA lookup 6 +MLUw1jDGMPww1jDr" ninesuperior
EndChar

StartChar: colon
Encoding: 58 58 29
Width: 500
Flags: W
LayerCount: 2
Fore
SplineSet
367 85 m 0,0,1
 367 37 367 37 338 12.5 c 128,-1,2
 309 -12 309 -12 271 -12 c 0,3,4
 252 -12 252 -12 234.5 -5.5 c 128,-1,5
 217 1 217 1 203.5 13.5 c 128,-1,6
 190 26 190 26 182 44 c 128,-1,7
 174 62 174 62 174 85 c 128,-1,8
 174 108 174 108 182 126 c 128,-1,9
 190 144 190 144 203.5 155.5 c 128,-1,10
 217 167 217 167 234.5 173.5 c 128,-1,11
 252 180 252 180 271 180 c 0,12,13
 309 180 309 180 338 155 c 128,-1,14
 367 130 367 130 367 85 c 0,0,1
367 413 m 0,15,16
 367 365 367 365 338 340 c 128,-1,17
 309 315 309 315 271 315 c 0,18,19
 252 315 252 315 234.5 321.5 c 128,-1,20
 217 328 217 328 203.5 340.5 c 128,-1,21
 190 353 190 353 182 371 c 128,-1,22
 174 389 174 389 174 413 c 0,23,24
 174 436 174 436 182 453.5 c 128,-1,25
 190 471 190 471 203.5 483 c 128,-1,26
 217 495 217 495 234.5 501.5 c 128,-1,27
 252 508 252 508 271 508 c 0,28,29
 309 508 309 508 338 483 c 128,-1,30
 367 458 367 458 367 413 c 0,15,16
EndSplineSet
EndChar

StartChar: semicolon
Encoding: 59 59 30
Width: 500
Flags: W
LayerCount: 2
Fore
SplineSet
127 -79 m 1,0,1
 146 -75 146 -75 166.5 -71.5 c 128,-1,2
 187 -68 187 -68 204.5 -61.5 c 128,-1,3
 222 -55 222 -55 236.5 -43 c 128,-1,4
 251 -31 251 -31 259 -11 c 1,5,6
 218 -7 218 -7 195.5 21.5 c 128,-1,7
 173 50 173 50 173 84 c 0,8,9
 173 126 173 126 200.5 153 c 128,-1,10
 228 180 228 180 270 180 c 0,11,12
 315 180 315 180 340.5 150 c 128,-1,13
 366 120 366 120 366 68 c 0,14,15
 366 30 366 30 354 -7.5 c 128,-1,16
 342 -45 342 -45 315.5 -77.5 c 128,-1,17
 289 -110 289 -110 247 -134 c 128,-1,18
 205 -158 205 -158 145 -165 c 1,19,-1
 127 -79 l 1,0,1
367 413 m 0,20,21
 367 365 367 365 338 340 c 128,-1,22
 309 315 309 315 271 315 c 0,23,24
 252 315 252 315 234.5 321.5 c 128,-1,25
 217 328 217 328 203.5 340.5 c 128,-1,26
 190 353 190 353 182 371 c 128,-1,27
 174 389 174 389 174 413 c 0,28,29
 174 436 174 436 182 453.5 c 128,-1,30
 190 471 190 471 203.5 483 c 128,-1,31
 217 495 217 495 234.5 501.5 c 128,-1,32
 252 508 252 508 271 508 c 0,33,34
 309 508 309 508 338 483 c 128,-1,35
 367 458 367 458 367 413 c 0,20,21
EndSplineSet
EndChar

StartChar: less
Encoding: 60 60 31
Width: 500
Flags: W
LayerCount: 2
Fore
SplineSet
49 338 m 1,0,-1
 463 512 l 1,1,-1
 500 395 l 1,2,-1
 198 278 l 1,3,-1
 500 160 l 1,4,-1
 463 43 l 1,5,-1
 49 218 l 1,6,-1
 49 338 l 1,0,-1
EndSplineSet
EndChar

StartChar: equal
Encoding: 61 61 32
Width: 500
Flags: W
LayerCount: 2
Fore
SplineSet
43 233 m 1,0,-1
 497 233 l 1,1,-1
 497 123 l 1,2,-1
 43 123 l 1,3,-1
 43 233 l 1,0,-1
43 444 m 1,4,-1
 497 444 l 1,5,-1
 497 334 l 1,6,-1
 43 334 l 1,7,-1
 43 444 l 1,4,-1
EndSplineSet
EndChar

StartChar: greater
Encoding: 62 62 33
Width: 500
Flags: W
LayerCount: 2
Fore
SplineSet
496 217 m 1,0,-1
 81 42 l 1,1,-1
 43 159 l 1,2,-1
 347 276 l 1,3,-1
 43 394 l 1,4,-1
 81 511 l 1,5,-1
 496 337 l 1,6,-1
 496 217 l 1,0,-1
EndSplineSet
EndChar

StartChar: question
Encoding: 63 63 34
Width: 500
Flags: W
LayerCount: 2
Fore
SplineSet
338 77 m 0,0,1
 338 35 338 35 310.5 11 c 128,-1,2
 283 -13 283 -13 248 -13 c 0,3,4
 231 -13 231 -13 215 -7 c 128,-1,5
 199 -1 199 -1 186 11 c 128,-1,6
 173 23 173 23 165.5 39 c 128,-1,7
 158 55 158 55 158 77 c 0,8,9
 158 98 158 98 165.5 114.5 c 128,-1,10
 173 131 173 131 186 142 c 128,-1,11
 199 153 199 153 215 159 c 128,-1,12
 231 165 231 165 248.5 165 c 128,-1,13
 266 165 266 165 282 159 c 128,-1,14
 298 153 298 153 310.5 142 c 128,-1,15
 323 131 323 131 330.5 114.5 c 128,-1,16
 338 98 338 98 338 77 c 0,0,1
179 243 m 1,17,18
 178 248 178 248 178 259 c 0,19,20
 178 302 178 302 201 341.5 c 128,-1,21
 224 381 224 381 260 411 c 0,22,23
 285 432 285 432 306.5 455 c 128,-1,24
 328 478 328 478 328 505 c 0,25,26
 328 537 328 537 305.5 554 c 128,-1,27
 283 571 283 571 248.5 571 c 128,-1,28
 214 571 214 571 181.5 561 c 128,-1,29
 149 551 149 551 111 532 c 1,30,-1
 75 634 l 1,31,32
 113 658 113 658 163.5 671 c 128,-1,33
 214 684 214 684 264 684 c 0,34,35
 326 684 326 684 365.5 667 c 128,-1,36
 405 650 405 650 427.5 625 c 128,-1,37
 450 600 450 600 459.5 570.5 c 128,-1,38
 469 541 469 541 469 514 c 0,39,40
 469 483 469 483 456.5 457 c 128,-1,41
 444 431 444 431 425 408.5 c 128,-1,42
 406 386 406 386 384.5 366 c 128,-1,43
 363 346 363 346 344 326.5 c 128,-1,44
 325 307 325 307 312.5 286.5 c 128,-1,45
 300 266 300 266 300 243 c 1,46,-1
 179 243 l 1,17,18
EndSplineSet
EndChar

StartChar: at
Encoding: 64 64 35
Width: 500
Flags: W
LayerCount: 2
Fore
SplineSet
293 267 m 0,0,1
 293 246 293 246 295.5 224.5 c 128,-1,2
 298 203 298 203 305.5 185.5 c 128,-1,3
 313 168 313 168 326.5 157 c 128,-1,4
 340 146 340 146 362 146 c 0,5,6
 376 146 376 146 392 149 c 1,7,-1
 392 365 l 1,8,9
 383 367 383 367 375.5 368 c 128,-1,10
 368 369 368 369 361 369 c 0,11,12
 340 369 340 369 327 360 c 128,-1,13
 314 351 314 351 306.5 336.5 c 128,-1,14
 299 322 299 322 296 303.5 c 128,-1,15
 293 285 293 285 293 267 c 0,0,1
505 59 m 1,16,17
 476 47 476 47 438 41.5 c 128,-1,18
 400 36 400 36 372 36 c 0,19,20
 331 36 331 36 295.5 48 c 128,-1,21
 260 60 260 60 234 86.5 c 128,-1,22
 208 113 208 113 193.5 156 c 128,-1,23
 179 199 179 199 179 260 c 0,24,25
 179 305 179 305 187 345.5 c 128,-1,26
 195 386 195 386 214.5 415.5 c 128,-1,27
 234 445 234 445 265 462.5 c 128,-1,28
 296 480 296 480 341 480 c 0,29,30
 362 480 362 480 392 474 c 1,31,-1
 392 491 l 2,32,33
 392 532 392 532 366 561 c 128,-1,34
 340 590 340 590 291 590 c 0,35,36
 255 590 255 590 223 574.5 c 128,-1,37
 191 559 191 559 168 521.5 c 128,-1,38
 145 484 145 484 131.5 420.5 c 128,-1,39
 118 357 118 357 118 261 c 0,40,41
 118 185 118 185 129 127 c 128,-1,42
 140 69 140 69 167.5 29.5 c 128,-1,43
 195 -10 195 -10 241 -30.5 c 128,-1,44
 287 -51 287 -51 355 -51 c 0,45,46
 406 -51 406 -51 435 -45.5 c 128,-1,47
 464 -40 464 -40 473 -37 c 1,48,-1
 485 -131 l 1,49,50
 467 -135 467 -135 451.5 -137.5 c 128,-1,51
 436 -140 436 -140 421 -142 c 128,-1,52
 406 -144 406 -144 390.5 -145 c 128,-1,53
 375 -146 375 -146 355 -146 c 0,54,55
 284 -146 284 -146 222.5 -126.5 c 128,-1,56
 161 -107 161 -107 116 -59 c 128,-1,57
 71 -11 71 -11 45 68.5 c 128,-1,58
 19 148 19 148 19 268 c 0,59,60
 19 385 19 385 41.5 464 c 128,-1,61
 64 543 64 543 101.5 592.5 c 128,-1,62
 139 642 139 642 188 663 c 128,-1,63
 237 684 237 684 291 684 c 0,64,65
 335 684 335 684 374 670.5 c 128,-1,66
 413 657 413 657 442 627.5 c 128,-1,67
 471 598 471 598 488 551 c 128,-1,68
 505 504 505 504 505 437 c 2,69,-1
 505 59 l 1,16,17
EndSplineSet
Substitution2: "'case' +WSdlh1tXfUQwf3UoMGuKv2V0MFcwX1tXX2IA lookup 17 +MLUw1jDGMPww1jDr" At
EndChar

StartChar: A
Encoding: 65 65 36
Width: 500
Flags: W
LayerCount: 2
Fore
SplineSet
269 539 m 1,0,1
 258 501 258 501 249 467 c 128,-1,2
 240 433 240 433 232 400 c 128,-1,3
 224 367 224 367 217 333.5 c 128,-1,4
 210 300 210 300 203 265 c 1,5,-1
 334 265 l 1,6,7
 328 301 328 301 321 334 c 128,-1,8
 314 367 314 367 306 400 c 128,-1,9
 298 433 298 433 289 467 c 128,-1,10
 280 501 280 501 269 539 c 1,0,1
388 0 m 1,11,-1
 356 154 l 1,12,-1
 178 154 l 1,13,-1
 148 0 l 1,14,-1
 10 0 l 1,15,16
 58 198 58 198 106 360.5 c 128,-1,17
 154 523 154 523 200 669 c 1,18,-1
 345 669 l 1,19,20
 393 522 393 522 439.5 357 c 128,-1,21
 486 192 486 192 530 0 c 1,22,-1
 388 0 l 1,11,-1
EndSplineSet
EndChar

StartChar: B
Encoding: 66 66 37
Width: 500
Flags: W
LayerCount: 2
Fore
SplineSet
243 403 m 2,0,1
 294 403 294 403 320 425 c 128,-1,2
 346 447 346 447 346 486 c 0,3,4
 346 510 346 510 338 524.5 c 128,-1,5
 330 539 330 539 317.5 547 c 128,-1,6
 305 555 305 555 287.5 558 c 128,-1,7
 270 561 270 561 252 561 c 0,8,9
 237 561 237 561 220.5 559.5 c 128,-1,10
 204 558 204 558 191 556 c 1,11,-1
 191 403 l 1,12,-1
 243 403 l 2,0,1
191 293 m 1,13,-1
 191 111 l 1,14,15
 205 109 205 109 222 108 c 128,-1,16
 239 107 239 107 255 107 c 0,17,18
 278 107 278 107 299.5 110.5 c 128,-1,19
 321 114 321 114 337.5 124.5 c 128,-1,20
 354 135 354 135 365 154 c 128,-1,21
 376 173 376 173 376 202 c 0,22,23
 376 251 376 251 345 272 c 128,-1,24
 314 293 314 293 262 293 c 2,25,-1
 191 293 l 1,13,-1
507 202 m 0,26,27
 507 142 507 142 486 101 c 128,-1,28
 465 60 465 60 430 36 c 128,-1,29
 395 12 395 12 347 1.5 c 128,-1,30
 299 -9 299 -9 244 -9 c 0,31,32
 200 -9 200 -9 152.5 -4 c 128,-1,33
 105 1 105 1 58 11 c 1,34,-1
 58 660 l 1,35,36
 96 666 96 666 141.5 671 c 128,-1,37
 187 676 187 676 231 676 c 0,38,39
 307 676 307 676 354.5 660.5 c 128,-1,40
 402 645 402 645 429 619.5 c 128,-1,41
 456 594 456 594 465.5 562.5 c 128,-1,42
 475 531 475 531 475 500 c 0,43,44
 475 452 475 452 452 415.5 c 128,-1,45
 429 379 429 379 390 357 c 1,46,47
 458 332 458 332 482.5 290 c 128,-1,48
 507 248 507 248 507 202 c 0,26,27
EndSplineSet
EndChar

StartChar: C
Encoding: 67 67 38
Width: 500
Flags: W
LayerCount: 2
Fore
SplineSet
320 -14 m 0,0,1
 179 -14 179 -14 104 76.5 c 128,-1,2
 29 167 29 167 29 335 c 0,3,4
 29 418 29 418 52 483 c 128,-1,5
 75 548 75 548 115.5 592.5 c 128,-1,6
 156 637 156 637 211.5 660.5 c 128,-1,7
 267 684 267 684 333 684 c 0,8,9
 369 684 369 684 397.5 678 c 128,-1,10
 426 672 426 672 447.5 664.5 c 128,-1,11
 469 657 469 657 483.5 648 c 128,-1,12
 498 639 498 639 505 635 c 1,13,-1
 471 529 l 1,14,15
 446 545 446 545 411 556.5 c 128,-1,16
 376 568 376 568 330 568 c 0,17,18
 299 568 299 568 269.5 556.5 c 128,-1,19
 240 545 240 545 216.5 518.5 c 128,-1,20
 193 492 193 492 178.5 448 c 128,-1,21
 164 404 164 404 164 338 c 0,22,23
 164 224 164 224 203.5 163 c 128,-1,24
 243 102 243 102 333 102 c 0,25,26
 385 102 385 102 419 113.5 c 128,-1,27
 453 125 453 125 473 137 c 1,28,-1
 507 32 l 1,29,30
 479 15 479 15 431 0.5 c 128,-1,31
 383 -14 383 -14 320 -14 c 0,0,1
EndSplineSet
EndChar

StartChar: D
Encoding: 68 68 39
Width: 500
Flags: W
LayerCount: 2
Fore
SplineSet
511 335 m 0,0,1
 511 242 511 242 487.5 176.5 c 128,-1,2
 464 111 464 111 423 70 c 128,-1,3
 382 29 382 29 325.5 10 c 128,-1,4
 269 -9 269 -9 201 -9 c 0,5,6
 165 -9 165 -9 131 -5 c 128,-1,7
 97 -1 97 -1 58 8 c 1,8,-1
 58 660 l 1,9,10
 103 670 103 670 143.5 673 c 128,-1,11
 184 676 184 676 218 676 c 0,12,13
 284 676 284 676 338.5 656.5 c 128,-1,14
 393 637 393 637 431 595.5 c 128,-1,15
 469 554 469 554 490 490 c 128,-1,16
 511 426 511 426 511 335 c 0,0,1
191 108 m 1,17,18
 196 107 196 107 203 107 c 128,-1,19
 210 107 210 107 215 107 c 0,20,21
 260 107 260 107 291 124 c 128,-1,22
 322 141 322 141 341 171.5 c 128,-1,23
 360 202 360 202 368 243.5 c 128,-1,24
 376 285 376 285 376 335 c 0,25,26
 376 378 376 378 369.5 419 c 128,-1,27
 363 460 363 460 346.5 491.5 c 128,-1,28
 330 523 330 523 302 542 c 128,-1,29
 274 561 274 561 230 561 c 0,30,31
 221 561 221 561 210.5 560 c 128,-1,32
 200 559 200 559 191 557 c 1,33,-1
 191 108 l 1,17,18
EndSplineSet
EndChar

StartChar: E
Encoding: 69 69 40
Width: 500
Flags: W
LayerCount: 2
Fore
SplineSet
68 0 m 1,0,-1
 68 669 l 1,1,-1
 473 669 l 1,2,-1
 473 558 l 1,3,-1
 201 558 l 1,4,-1
 201 408 l 1,5,-1
 437 408 l 1,6,-1
 437 298 l 1,7,-1
 201 298 l 1,8,-1
 201 110 l 1,9,-1
 497 110 l 1,10,-1
 497 0 l 1,11,-1
 68 0 l 1,0,-1
EndSplineSet
EndChar

StartChar: F
Encoding: 70 70 41
Width: 500
Flags: W
LayerCount: 2
Fore
SplineSet
68 0 m 1,0,-1
 68 669 l 1,1,-1
 477 669 l 1,2,-1
 477 558 l 1,3,-1
 201 558 l 1,4,-1
 201 396 l 1,5,-1
 443 396 l 1,6,-1
 443 286 l 1,7,-1
 201 286 l 1,8,-1
 201 0 l 1,9,-1
 68 0 l 1,0,-1
EndSplineSet
EndChar

StartChar: G
Encoding: 71 71 42
Width: 500
Flags: W
LayerCount: 2
Fore
SplineSet
337 568 m 0,0,1
 289 568 289 568 257 551 c 128,-1,2
 225 534 225 534 204 503 c 128,-1,3
 183 472 183 472 173.5 429.5 c 128,-1,4
 164 387 164 387 164 335 c 0,5,6
 164 215 164 215 202 158.5 c 128,-1,7
 240 102 240 102 313 102 c 0,8,9
 325 102 325 102 339 103 c 128,-1,10
 353 104 353 104 365 106 c 1,11,-1
 365 231 l 1,12,-1
 302 231 l 1,13,-1
 302 348 l 1,14,-1
 498 350 l 1,15,-1
 498 16 l 1,16,17
 474 7 474 7 424 -3.5 c 128,-1,18
 374 -14 374 -14 302 -14 c 0,19,20
 239 -14 239 -14 189 8 c 128,-1,21
 139 30 139 30 103.5 74 c 128,-1,22
 68 118 68 118 48.5 183 c 128,-1,23
 29 248 29 248 29 335 c 0,24,25
 29 420 29 420 52 485.5 c 128,-1,26
 75 551 75 551 113.5 595 c 128,-1,27
 152 639 152 639 205 661.5 c 128,-1,28
 258 684 258 684 319 684 c 0,29,30
 358 684 358 684 388.5 678 c 128,-1,31
 419 672 419 672 441.5 664.5 c 128,-1,32
 464 657 464 657 479 648 c 128,-1,33
 494 639 494 639 501 635 c 1,34,-1
 467 529 l 1,35,36
 443 544 443 544 408.5 556 c 128,-1,37
 374 568 374 568 337 568 c 0,0,1
EndSplineSet
EndChar

StartChar: H
Encoding: 72 72 43
Width: 500
Flags: W
LayerCount: 2
Fore
SplineSet
491 669 m 1,0,-1
 491 0 l 1,1,-1
 359 0 l 1,2,-1
 359 295 l 1,3,-1
 181 295 l 1,4,-1
 181 0 l 1,5,-1
 49 0 l 1,6,-1
 49 669 l 1,7,-1
 181 669 l 1,8,-1
 181 405 l 1,9,-1
 359 405 l 1,10,-1
 359 669 l 1,11,-1
 491 669 l 1,0,-1
EndSplineSet
EndChar

StartChar: I
Encoding: 73 73 44
Width: 500
Flags: W
LayerCount: 2
Fore
SplineSet
58 0 m 1,0,-1
 58 110 l 1,1,-1
 204 110 l 1,2,-1
 204 558 l 1,3,-1
 58 558 l 1,4,-1
 58 669 l 1,5,-1
 483 669 l 1,6,-1
 483 558 l 1,7,-1
 338 558 l 1,8,-1
 338 110 l 1,9,-1
 483 110 l 1,10,-1
 483 0 l 1,11,-1
 58 0 l 1,0,-1
EndSplineSet
EndChar

StartChar: J
Encoding: 74 74 45
Width: 500
Flags: W
LayerCount: 2
Fore
SplineSet
473 224 m 2,0,1
 473 175 473 175 460.5 132 c 128,-1,2
 448 89 448 89 419.5 56.5 c 128,-1,3
 391 24 391 24 345.5 5 c 128,-1,4
 300 -14 300 -14 235 -14 c 0,5,6
 167 -14 167 -14 122 3.5 c 128,-1,7
 77 21 77 21 45 45 c 1,8,-1
 96 151 l 1,9,10
 123 134 123 134 156 118 c 128,-1,11
 189 102 189 102 224 102 c 0,12,13
 276 102 276 102 307.5 129.5 c 128,-1,14
 339 157 339 157 339 231 c 2,15,-1
 339 558 l 1,16,-1
 338 558 l 1,17,-1
 338 669 l 1,18,-1
 473 669 l 1,19,-1
 473 224 l 2,0,1
EndSplineSet
EndChar

StartChar: K
Encoding: 75 75 46
Width: 500
Flags: W
LayerCount: 2
Fore
SplineSet
378 0 m 1,0,1
 366 38 366 38 344 81.5 c 128,-1,2
 322 125 322 125 295 166.5 c 128,-1,3
 268 208 268 208 238 244.5 c 128,-1,4
 208 281 208 281 181 306 c 1,5,-1
 181 0 l 1,6,-1
 49 0 l 1,7,-1
 49 669 l 1,8,-1
 181 669 l 1,9,-1
 181 391 l 1,10,11
 205 421 205 421 231 458 c 128,-1,12
 257 495 257 495 280 531.5 c 128,-1,13
 303 568 303 568 322.5 603.5 c 128,-1,14
 342 639 342 639 355 669 c 1,15,-1
 505 669 l 1,16,17
 490 640 490 640 469 602.5 c 128,-1,18
 448 565 448 565 421 524.5 c 128,-1,19
 394 484 394 484 363.5 442 c 128,-1,20
 333 400 333 400 299 361 c 1,21,22
 332 329 332 329 367 286.5 c 128,-1,23
 402 244 402 244 432.5 196 c 128,-1,24
 463 148 463 148 488 98 c 128,-1,25
 513 48 513 48 528 0 c 1,26,-1
 378 0 l 1,0,1
EndSplineSet
EndChar

StartChar: L
Encoding: 76 76 47
Width: 500
Flags: W
LayerCount: 2
Fore
SplineSet
497 0 m 1,0,-1
 77 0 l 1,1,-1
 77 669 l 1,2,-1
 211 669 l 1,3,-1
 211 110 l 1,4,-1
 497 110 l 1,5,-1
 497 0 l 1,0,-1
EndSplineSet
EndChar

StartChar: M
Encoding: 77 77 48
Width: 500
Flags: W
LayerCount: 2
Fore
SplineSet
174 669 m 1,0,1
 182 646 182 646 193 610.5 c 128,-1,2
 204 575 204 575 217 533.5 c 128,-1,3
 230 492 230 492 243 450 c 128,-1,4
 256 408 256 408 268 373 c 1,5,6
 281 413 281 413 295 455.5 c 128,-1,7
 309 498 309 498 322 537.5 c 128,-1,8
 335 577 335 577 345.5 611.5 c 128,-1,9
 356 646 356 646 365 669 c 1,10,-1
 475 669 l 1,11,12
 483 582 483 582 490 498.5 c 128,-1,13
 497 415 497 415 502 333.5 c 128,-1,14
 507 252 507 252 510 169 c 128,-1,15
 513 86 513 86 515 0 c 1,16,-1
 393 0 l 1,17,-1
 400 519 l 1,18,-1
 318 237 l 1,19,-1
 220 237 l 1,20,-1
 141 519 l 1,21,-1
 147 0 l 1,22,-1
 25 0 l 1,23,24
 28 82 28 82 32 170.5 c 128,-1,25
 36 259 36 259 40 346.5 c 128,-1,26
 44 434 44 434 50 516 c 128,-1,27
 56 598 56 598 64 669 c 1,28,-1
 174 669 l 1,0,1
EndSplineSet
EndChar

StartChar: N
Encoding: 78 78 49
Width: 500
Flags: W
LayerCount: 2
Fore
SplineSet
383 0 m 1,0,1
 338 111 338 111 284.5 222 c 128,-1,2
 231 333 231 333 170 444 c 1,3,-1
 170 0 l 1,4,-1
 50 0 l 1,5,-1
 50 669 l 1,6,-1
 157 669 l 1,7,8
 187 621 187 621 217 565.5 c 128,-1,9
 247 510 247 510 276 455 c 128,-1,10
 305 400 305 400 329 348 c 128,-1,11
 353 296 353 296 370 257 c 1,12,-1
 370 669 l 1,13,-1
 490 669 l 1,14,-1
 490 0 l 1,15,-1
 383 0 l 1,0,1
EndSplineSet
EndChar

StartChar: O
Encoding: 79 79 50
Width: 500
Flags: W
LayerCount: 2
Fore
SplineSet
29 335 m 128,-1,1
 29 508 29 508 93 596 c 128,-1,2
 157 684 157 684 270 684 c 0,3,4
 388 684 388 684 449.5 596 c 128,-1,5
 511 508 511 508 511 335 c 128,-1,6
 511 162 511 162 448.5 74 c 128,-1,7
 386 -14 386 -14 271 -14 c 0,8,9
 153 -14 153 -14 91 74 c 128,-1,0
 29 162 29 162 29 335 c 128,-1,1
164 334.5 m 128,-1,11
 164 286 164 286 168 243.5 c 128,-1,12
 172 201 172 201 183 169.5 c 128,-1,13
 194 138 194 138 214.5 120 c 128,-1,14
 235 102 235 102 270 102 c 0,15,16
 303 102 303 102 324.5 120 c 128,-1,17
 346 138 346 138 357 170 c 128,-1,18
 368 202 368 202 372 244 c 128,-1,19
 376 286 376 286 376 334.5 c 128,-1,20
 376 383 376 383 372 426 c 128,-1,21
 368 469 368 469 357 500 c 128,-1,22
 346 531 346 531 325.5 549.5 c 128,-1,23
 305 568 305 568 270 568 c 128,-1,24
 235 568 235 568 214.5 549.5 c 128,-1,25
 194 531 194 531 183 499.5 c 128,-1,26
 172 468 172 468 168 425.5 c 128,-1,10
 164 383 164 383 164 334.5 c 128,-1,11
EndSplineSet
EndChar

StartChar: P
Encoding: 80 80 51
Width: 500
Flags: W
LayerCount: 2
Fore
SplineSet
257 561 m 0,0,1
 245 561 245 561 224 560 c 128,-1,2
 203 559 203 559 191 557 c 1,3,-1
 191 341 l 1,4,-1
 245 341 l 2,5,6
 309 341 309 341 341.5 366.5 c 128,-1,7
 374 392 374 392 374 454 c 0,8,9
 374 512 374 512 342 536.5 c 128,-1,10
 310 561 310 561 257 561 c 0,0,1
242 676 m 0,11,12
 369 676 369 676 439.5 623.5 c 128,-1,13
 510 571 510 571 510 453 c 0,14,15
 510 333 510 333 439 279.5 c 128,-1,16
 368 226 368 226 239 226 c 2,17,-1
 191 226 l 1,18,-1
 191 0 l 1,19,-1
 58 0 l 1,20,-1
 58 660 l 1,21,22
 77 664 77 664 101.5 667.5 c 128,-1,23
 126 671 126 671 151 672.5 c 128,-1,24
 176 674 176 674 200 675 c 128,-1,25
 224 676 224 676 242 676 c 0,11,12
EndSplineSet
EndChar

StartChar: Q
Encoding: 81 81 52
Width: 500
Flags: W
LayerCount: 2
Fore
SplineSet
164 331.5 m 128,-1,1
 164 283 164 283 168 241 c 128,-1,2
 172 199 172 199 183 167 c 128,-1,3
 194 135 194 135 214.5 116.5 c 128,-1,4
 235 98 235 98 270 98 c 0,5,6
 303 98 303 98 324.5 116.5 c 128,-1,7
 346 135 346 135 357 167 c 128,-1,8
 368 199 368 199 372 241 c 128,-1,9
 376 283 376 283 376 331.5 c 128,-1,10
 376 380 376 380 372 422.5 c 128,-1,11
 368 465 368 465 357 496.5 c 128,-1,12
 346 528 346 528 325.5 546.5 c 128,-1,13
 305 565 305 565 270 565 c 128,-1,14
 235 565 235 565 214.5 546.5 c 128,-1,15
 194 528 194 528 183 496 c 128,-1,16
 172 464 172 464 168 422 c 128,-1,0
 164 380 164 380 164 331.5 c 128,-1,1
29 332 m 0,17,18
 29 505 29 505 93 592.5 c 128,-1,19
 157 680 157 680 270 680 c 0,20,21
 388 680 388 680 449.5 592 c 128,-1,22
 511 504 511 504 511 332 c 0,23,24
 511 181 511 181 462.5 93.5 c 128,-1,25
 414 6 414 6 322 -12 c 1,26,27
 334 -39 334 -39 380 -57 c 128,-1,28
 426 -75 426 -75 505 -89 c 1,29,-1
 477 -184 l 1,30,31
 351 -167 351 -167 286.5 -126 c 128,-1,32
 222 -85 222 -85 211 -10 c 1,33,34
 124 12 124 12 76.5 98 c 128,-1,35
 29 184 29 184 29 332 c 0,17,18
EndSplineSet
EndChar

StartChar: R
Encoding: 82 82 53
Width: 500
Flags: W
LayerCount: 2
Fore
SplineSet
349 458 m 0,0,1
 349 511 349 511 316.5 536 c 128,-1,2
 284 561 284 561 231 561 c 0,3,4
 223 561 223 561 212.5 560 c 128,-1,5
 202 559 202 559 191 557 c 1,6,-1
 191 356 l 1,7,-1
 220 356 l 2,8,9
 288 356 288 356 318.5 382.5 c 128,-1,10
 349 409 349 409 349 458 c 0,0,1
231 676 m 0,11,12
 288 676 288 676 334.5 663 c 128,-1,13
 381 650 381 650 414.5 623 c 128,-1,14
 448 596 448 596 466 554.5 c 128,-1,15
 484 513 484 513 484 457 c 0,16,17
 484 399 484 399 460 351 c 128,-1,18
 436 303 436 303 381 279 c 1,19,20
 399 251 399 251 420 217 c 128,-1,21
 441 183 441 183 460.5 145.5 c 128,-1,22
 480 108 480 108 497.5 70.5 c 128,-1,23
 515 33 515 33 528 0 c 1,24,-1
 389 0 l 1,25,26
 364 65 364 65 331 125 c 128,-1,27
 298 185 298 185 260 246 c 1,28,-1
 191 246 l 1,29,-1
 191 0 l 1,30,-1
 58 0 l 1,31,-1
 58 659 l 1,32,33
 77 663 77 663 100.5 667 c 128,-1,34
 124 671 124 671 148 672.5 c 128,-1,35
 172 674 172 674 193.5 675 c 128,-1,36
 215 676 215 676 231 676 c 0,11,12
EndSplineSet
EndChar

StartChar: S
Encoding: 83 83 54
Width: 500
Flags: W
LayerCount: 2
Fore
SplineSet
251 97 m 0,0,1
 284 97 284 97 306 104 c 128,-1,2
 328 111 328 111 341 123.5 c 128,-1,3
 354 136 354 136 359 151.5 c 128,-1,4
 364 167 364 167 364 184 c 0,5,6
 364 205 364 205 352 221 c 128,-1,7
 340 237 340 237 321.5 249 c 128,-1,8
 303 261 303 261 280.5 271.5 c 128,-1,9
 258 282 258 282 235 291 c 0,10,11
 205 302 205 302 172.5 315.5 c 128,-1,12
 140 329 140 329 113.5 351 c 128,-1,13
 87 373 87 373 70 404.5 c 128,-1,14
 53 436 53 436 53 484 c 0,15,16
 53 578 53 578 114 631 c 128,-1,17
 175 684 175 684 282 684 c 0,18,19
 344 684 344 684 389.5 670 c 128,-1,20
 435 656 435 656 467 638 c 1,21,-1
 428 536 l 1,22,23
 401 551 401 551 368 561.5 c 128,-1,24
 335 572 335 572 292 572 c 0,25,26
 186 572 186 572 186 496 c 0,27,28
 186 477 186 477 196.5 462 c 128,-1,29
 207 447 207 447 224 435.5 c 128,-1,30
 241 424 241 424 262 415.5 c 128,-1,31
 283 407 283 407 303 400 c 0,32,33
 334 388 334 388 368.5 373.5 c 128,-1,34
 403 359 403 359 431.5 334.5 c 128,-1,35
 460 310 460 310 478.5 274 c 128,-1,36
 497 238 497 238 497 183 c 0,37,38
 497 89 497 89 436 37.5 c 128,-1,39
 375 -14 375 -14 251 -14 c 0,40,41
 168 -14 168 -14 118 4 c 128,-1,42
 68 22 68 22 43 37 c 1,43,-1
 82 145 l 1,44,45
 111 128 111 128 152 112.5 c 128,-1,46
 193 97 193 97 251 97 c 0,0,1
EndSplineSet
EndChar

StartChar: T
Encoding: 84 84 55
Width: 500
Flags: W
LayerCount: 2
Fore
SplineSet
513 669 m 1,0,-1
 513 558 l 1,1,-1
 337 558 l 1,2,-1
 337 0 l 1,3,-1
 203 0 l 1,4,-1
 203 558 l 1,5,-1
 27 558 l 1,6,-1
 27 669 l 1,7,-1
 513 669 l 1,0,-1
EndSplineSet
EndChar

StartChar: U
Encoding: 85 85 56
Width: 500
Flags: W
LayerCount: 2
Fore
SplineSet
268 -14 m 0,0,1
 203 -14 203 -14 159.5 4 c 128,-1,2
 116 22 116 22 90 55.5 c 128,-1,3
 64 89 64 89 53 136.5 c 128,-1,4
 42 184 42 184 42 242 c 2,5,-1
 42 669 l 1,6,-1
 176 669 l 1,7,-1
 176 251 l 2,8,9
 176 209 176 209 180.5 180 c 128,-1,10
 185 151 185 151 195 134 c 128,-1,11
 205 117 205 117 223.5 109.5 c 128,-1,12
 242 102 242 102 270 102 c 128,-1,13
 298 102 298 102 316.5 109.5 c 128,-1,14
 335 117 335 117 345.5 134.5 c 128,-1,15
 356 152 356 152 360.5 181 c 128,-1,16
 365 210 365 210 365 252 c 2,17,-1
 365 669 l 1,18,-1
 498 669 l 1,19,-1
 498 242 l 2,20,21
 498 184 498 184 487 136.5 c 128,-1,22
 476 89 476 89 449 55.5 c 128,-1,23
 422 22 422 22 378 4 c 128,-1,24
 334 -14 334 -14 268 -14 c 0,0,1
EndSplineSet
EndChar

StartChar: V
Encoding: 86 86 57
Width: 500
Flags: W
LayerCount: 2
Fore
SplineSet
201 0 m 1,0,1
 175 75 175 75 146 168.5 c 128,-1,2
 117 262 117 262 91 355.5 c 128,-1,3
 65 449 65 449 44.5 532.5 c 128,-1,4
 24 616 24 616 14 669 c 1,5,-1
 154 669 l 1,6,7
 160 617 160 617 173.5 548.5 c 128,-1,8
 187 480 187 480 202.5 407 c 128,-1,9
 218 334 218 334 236 263 c 128,-1,10
 254 192 254 192 271 136 c 1,11,12
 288 191 288 191 305.5 262 c 128,-1,13
 323 333 323 333 338 405.5 c 128,-1,14
 353 478 353 478 366 547.5 c 128,-1,15
 379 617 379 617 388 669 c 1,16,-1
 527 669 l 1,17,18
 514 604 514 604 495 524 c 128,-1,19
 476 444 476 444 452 356 c 128,-1,20
 428 268 428 268 398.5 176.5 c 128,-1,21
 369 85 369 85 338 0 c 1,22,-1
 201 0 l 1,0,1
EndSplineSet
EndChar

StartChar: W
Encoding: 87 87 58
Width: 500
Flags: W
LayerCount: 2
Fore
SplineSet
320 432 m 1,0,1
 324 411 324 411 332.5 381 c 128,-1,2
 341 351 341 351 351.5 314.5 c 128,-1,3
 362 278 362 278 374.5 235.5 c 128,-1,4
 387 193 387 193 399 149 c 1,5,6
 399 205 399 205 397.5 269.5 c 128,-1,7
 396 334 396 334 395 401 c 128,-1,8
 394 468 394 468 393 536.5 c 128,-1,9
 392 605 392 605 392 669 c 1,10,-1
 515 669 l 1,11,12
 512 587 512 587 508.5 500 c 128,-1,13
 505 413 505 413 501 327 c 128,-1,14
 497 241 497 241 491 158 c 128,-1,15
 485 75 485 75 477 0 c 1,16,-1
 367 0 l 1,17,18
 343 68 343 68 319.5 146.5 c 128,-1,19
 296 225 296 225 272 296 c 1,20,21
 248 228 248 228 222.5 148 c 128,-1,22
 197 68 197 68 175 0 c 1,23,-1
 65 0 l 1,24,25
 56 75 56 75 49.5 158.5 c 128,-1,26
 43 242 43 242 38 328 c 128,-1,27
 33 414 33 414 30 501 c 128,-1,28
 27 588 27 588 25 669 c 1,29,-1
 148 669 l 1,30,31
 147 605 147 605 146 537 c 128,-1,32
 145 469 145 469 144 401.5 c 128,-1,33
 143 334 143 334 141.5 269.5 c 128,-1,34
 140 205 140 205 140 149 c 1,35,36
 150 184 150 184 162.5 225 c 128,-1,37
 175 266 175 266 186.5 306 c 128,-1,38
 198 346 198 346 207.5 379.5 c 128,-1,39
 217 413 217 413 222 432 c 1,40,-1
 320 432 l 1,0,1
EndSplineSet
EndChar

StartChar: X
Encoding: 88 88 59
Width: 500
Flags: W
LayerCount: 2
Fore
SplineSet
384 0 m 1,0,1
 363 55 363 55 334 122 c 128,-1,2
 305 189 305 189 272 256 c 1,3,4
 241 192 241 192 209.5 123.5 c 128,-1,5
 178 55 178 55 156 0 c 1,6,-1
 12 0 l 1,7,8
 23 29 23 29 44 70 c 128,-1,9
 65 111 65 111 90.5 158.5 c 128,-1,10
 116 206 116 206 144 256.5 c 128,-1,11
 172 307 172 307 198 353 c 1,12,-1
 23 669 l 1,13,-1
 166 669 l 1,14,-1
 272 455 l 1,15,-1
 383 669 l 1,16,-1
 517 669 l 1,17,-1
 347 356 l 1,18,19
 376 310 376 310 404 259 c 128,-1,20
 432 208 432 208 456.5 160 c 128,-1,21
 481 112 481 112 499 70.5 c 128,-1,22
 517 29 517 29 528 0 c 1,23,-1
 384 0 l 1,0,1
EndSplineSet
EndChar

StartChar: Y
Encoding: 89 89 60
Width: 500
Flags: W
LayerCount: 2
Fore
SplineSet
274 363 m 1,0,1
 286 388 286 388 302 425.5 c 128,-1,2
 318 463 318 463 333.5 505.5 c 128,-1,3
 349 548 349 548 363.5 591 c 128,-1,4
 378 634 378 634 390 669 c 1,5,-1
 527 669 l 1,6,7
 506 614 506 614 485.5 562 c 128,-1,8
 465 510 465 510 442.5 459 c 128,-1,9
 420 408 420 408 394 358 c 128,-1,10
 368 308 368 308 338 255 c 1,11,-1
 338 0 l 1,12,-1
 204 0 l 1,13,-1
 204 254 l 1,14,15
 145 359 145 359 100 458.5 c 128,-1,16
 55 558 55 558 14 669 c 1,17,-1
 157 669 l 1,18,19
 182 591 182 591 212 510.5 c 128,-1,20
 242 430 242 430 274 363 c 1,0,1
EndSplineSet
EndChar

StartChar: Z
Encoding: 90 90 61
Width: 500
Flags: W
LayerCount: 2
Fore
SplineSet
481 576 m 1,0,1
 435 505 435 505 395.5 442 c 128,-1,2
 356 379 356 379 322.5 322.5 c 128,-1,3
 289 266 289 266 259.5 213.5 c 128,-1,4
 230 161 230 161 203 110 c 1,5,-1
 490 110 l 1,6,-1
 490 0 l 1,7,-1
 50 0 l 1,8,-1
 50 77 l 1,9,10
 74 123 74 123 100.5 174.5 c 128,-1,11
 127 226 127 226 160.5 284 c 128,-1,12
 194 342 194 342 233.5 410 c 128,-1,13
 273 478 273 478 321 558 c 1,14,-1
 64 558 l 1,15,-1
 64 669 l 1,16,-1
 481 669 l 1,17,-1
 481 576 l 1,0,1
EndSplineSet
EndChar

StartChar: bracketleft
Encoding: 91 91 62
Width: 500
Flags: W
LayerCount: 2
Fore
SplineSet
122 755 m 1,0,-1
 421 755 l 1,1,-1
 421 651 l 1,2,-1
 248 651 l 1,3,-1
 248 -75 l 1,4,-1
 421 -75 l 1,5,-1
 421 -178 l 1,6,-1
 122 -178 l 1,7,-1
 122 755 l 1,0,-1
EndSplineSet
Substitution2: "'case' +WSdlh1tXfUQwf3UoMGuKv2V0MFcwX1tXX2IA lookup 17 +MLUw1jDGMPww1jDr" Bracketleft
EndChar

StartChar: backslash
Encoding: 92 92 63
Width: 500
Flags: W
LayerCount: 2
Fore
SplineSet
53 755 m 1,0,-1
 189 755 l 1,1,-1
 491 -178 l 1,2,-1
 354 -178 l 1,3,-1
 53 755 l 1,0,-1
EndSplineSet
Substitution2: "'case' +WSdlh1tXfUQwf3UoMGuKv2V0MFcwX1tXX2IA lookup 17 +MLUw1jDGMPww1jDr" Backslash
EndChar

StartChar: bracketright
Encoding: 93 93 64
Width: 500
Flags: W
LayerCount: 2
Fore
SplineSet
418 -178 m 1,0,-1
 118 -178 l 1,1,-1
 118 -75 l 1,2,-1
 291 -75 l 1,3,-1
 291 651 l 1,4,-1
 118 651 l 1,5,-1
 118 755 l 1,6,-1
 418 755 l 1,7,-1
 418 -178 l 1,0,-1
EndSplineSet
Substitution2: "'case' +WSdlh1tXfUQwf3UoMGuKv2V0MFcwX1tXX2IA lookup 17 +MLUw1jDGMPww1jDr" Bracketright
EndChar

StartChar: asciicircum
Encoding: 94 94 65
Width: 500
Flags: W
LayerCount: 2
Fore
SplineSet
530 334 m 1,0,-1
 410 275 l 1,1,-1
 274 511 l 1,2,-1
 138 275 l 1,3,-1
 17 334 l 1,4,-1
 217 669 l 1,5,-1
 330 669 l 1,6,-1
 530 334 l 1,0,-1
EndSplineSet
EndChar

StartChar: underscore
Encoding: 95 95 66
Width: 500
Flags: W
LayerCount: 2
Fore
SplineSet
52 -63 m 1,0,-1
 496 -63 l 1,1,-1
 496 -178 l 1,2,-1
 52 -178 l 1,3,-1
 52 -63 l 1,0,-1
EndSplineSet
EndChar

StartChar: grave
Encoding: 96 96 67
Width: 500
Flags: W
LayerCount: 2
Fore
SplineSet
230 746 m 1,0,-1
 401 626 l 1,1,-1
 352 554 l 1,2,-1
 164 645 l 1,3,-1
 230 746 l 1,0,-1
EndSplineSet
EndChar

StartChar: a
Encoding: 97 97 68
Width: 500
Flags: W
LayerCount: 2
Fore
SplineSet
259 521 m 0,0,1
 322 521 322 521 363.5 506 c 128,-1,2
 405 491 405 491 430 464.5 c 128,-1,3
 455 438 455 438 465.5 400 c 128,-1,4
 476 362 476 362 476 314 c 2,5,-1
 476 12 l 1,6,7
 447 6 447 6 390 -3 c 128,-1,8
 333 -12 333 -12 261 -12 c 0,9,10
 212 -12 212 -12 173 -3.5 c 128,-1,11
 134 5 134 5 106 25 c 128,-1,12
 78 45 78 45 63 77 c 128,-1,13
 48 109 48 109 48 156 c 0,14,15
 48 200 48 200 65 230 c 128,-1,16
 82 260 82 260 111 278.5 c 128,-1,17
 140 297 140 297 178 305 c 128,-1,18
 216 313 216 313 257 313 c 0,19,20
 309 313 309 313 349 305 c 1,21,-1
 349 321 l 2,22,23
 349 359 349 359 325 384 c 128,-1,24
 301 409 301 409 243 409 c 0,25,26
 205 409 205 409 170 404 c 128,-1,27
 135 399 135 399 113 391 c 1,28,-1
 95 498 l 1,29,30
 120 507 120 507 165 514 c 128,-1,31
 210 521 210 521 259 521 c 0,0,1
271 95 m 0,32,33
 293 95 293 95 313.5 95.5 c 128,-1,34
 334 96 334 96 349 98 c 1,35,-1
 349 215 l 1,36,37
 336 217 336 217 317.5 218.5 c 128,-1,38
 299 220 299 220 284 220 c 0,39,40
 263 220 263 220 244 217.5 c 128,-1,41
 225 215 225 215 210 208.5 c 128,-1,42
 195 202 195 202 186.5 190 c 128,-1,43
 178 178 178 178 178 159 c 0,44,45
 178 124 178 124 204 109.5 c 128,-1,46
 230 95 230 95 271 95 c 0,32,33
EndSplineSet
Substitution2: "'case' +WSdlh1tXfUQwf3UoMGuKv2V0MFcwX1tXX2IA lookup 18 +MLUw1jDGMPww1jDr" A
Substitution2: "'ordn' +Xo9lcAAA in +MOkwxjDzZYdbVwAA lookup 7 +MLUw1jDGMPww1jDr" ordfeminine
EndChar

StartChar: b
Encoding: 98 98 69
Width: 500
Flags: W
LayerCount: 2
Fore
SplineSet
508 254 m 0,0,1
 508 194 508 194 491.5 144.5 c 128,-1,2
 475 95 475 95 444 60.5 c 128,-1,3
 413 26 413 26 367.5 7 c 128,-1,4
 322 -12 322 -12 264 -12 c 0,5,6
 212 -12 212 -12 158 -4.5 c 128,-1,7
 104 3 104 3 67 15 c 1,8,-1
 67 727 l 1,9,-1
 200 750 l 1,10,-1
 200 496 l 1,11,12
 228 509 228 509 254 513.5 c 128,-1,13
 280 518 280 518 306 518 c 0,14,15
 356 518 356 518 393.5 499.5 c 128,-1,16
 431 481 431 481 456.5 445.5 c 128,-1,17
 482 410 482 410 495 361.5 c 128,-1,18
 508 313 508 313 508 254 c 0,0,1
373 257 m 0,19,20
 373 328 373 328 349.5 366 c 128,-1,21
 326 404 326 404 279 404 c 0,22,23
 257 404 257 404 236 398 c 128,-1,24
 215 392 215 392 200 383 c 1,25,-1
 200 108 l 1,26,27
 215 105 215 105 231.5 104 c 128,-1,28
 248 103 248 103 260 103 c 0,29,30
 312 103 312 103 342.5 138 c 128,-1,31
 373 173 373 173 373 257 c 0,19,20
EndSplineSet
Substitution2: "'case' +WSdlh1tXfUQwf3UoMGuKv2V0MFcwX1tXX2IA lookup 18 +MLUw1jDGMPww1jDr" B
EndChar

StartChar: c
Encoding: 99 99 70
Width: 500
Flags: W
LayerCount: 2
Fore
SplineSet
48 254 m 0,0,1
 48 309 48 309 65 357.5 c 128,-1,2
 82 406 82 406 117.5 442 c 128,-1,3
 153 478 153 478 207.5 499.5 c 128,-1,4
 262 521 262 521 338 521 c 0,5,6
 383 521 383 521 420 514.5 c 128,-1,7
 457 508 457 508 495 492 c 1,8,-1
 465 386 l 1,9,10
 443 394 443 394 417 399.5 c 128,-1,11
 391 405 391 405 350 405 c 0,12,13
 302 405 302 405 270.5 393.5 c 128,-1,14
 239 382 239 382 219.5 362 c 128,-1,15
 200 342 200 342 191.5 314 c 128,-1,16
 183 286 183 286 183 254 c 0,17,18
 183 184 183 184 222 144 c 128,-1,19
 261 104 261 104 356 104 c 0,20,21
 387 104 387 104 421.5 108 c 128,-1,22
 456 112 456 112 484 122 c 1,23,-1
 503 13 l 1,24,25
 475 2 475 2 435 -5 c 128,-1,26
 395 -12 395 -12 341 -12 c 0,27,28
 263 -12 263 -12 207.5 8.5 c 128,-1,29
 152 29 152 29 116.5 64.5 c 128,-1,30
 81 100 81 100 64.5 149 c 128,-1,31
 48 198 48 198 48 254 c 0,0,1
EndSplineSet
Substitution2: "'case' +WSdlh1tXfUQwf3UoMGuKv2V0MFcwX1tXX2IA lookup 18 +MLUw1jDGMPww1jDr" C
EndChar

StartChar: d
Encoding: 100 100 71
Width: 500
Flags: W
LayerCount: 2
Fore
SplineSet
464 15 m 1,0,1
 427 3 427 3 374.5 -4.5 c 128,-1,2
 322 -12 322 -12 271 -12 c 0,3,4
 152 -12 152 -12 91 58.5 c 128,-1,5
 30 129 30 129 30 251 c 0,6,7
 30 375 30 375 81.5 446.5 c 128,-1,8
 133 518 133 518 233 518 c 0,9,10
 260 518 260 518 286 512.5 c 128,-1,11
 312 507 312 507 332 496 c 1,12,-1
 332 727 l 1,13,-1
 464 750 l 1,14,-1
 464 15 l 1,0,1
165 257 m 0,15,16
 165 189 165 189 190.5 146 c 128,-1,17
 216 103 216 103 272 103 c 0,18,19
 288 103 288 103 302 104 c 128,-1,20
 316 105 316 105 332 107 c 1,21,-1
 332 383 l 1,22,23
 317 392 317 392 297.5 398 c 128,-1,24
 278 404 278 404 256 404 c 0,25,26
 208 404 208 404 186.5 366 c 128,-1,27
 165 328 165 328 165 257 c 0,15,16
EndSplineSet
Substitution2: "'case' +WSdlh1tXfUQwf3UoMGuKv2V0MFcwX1tXX2IA lookup 18 +MLUw1jDGMPww1jDr" D
EndChar

StartChar: e
Encoding: 101 101 72
Width: 500
Flags: W
LayerCount: 2
Fore
SplineSet
374 302 m 1,0,1
 374 323 374 323 368.5 342 c 128,-1,2
 363 361 363 361 351 376 c 128,-1,3
 339 391 339 391 320.5 400 c 128,-1,4
 302 409 302 409 275 409 c 0,5,6
 249 409 249 409 230.5 400.5 c 128,-1,7
 212 392 212 392 199.5 377 c 128,-1,8
 187 362 187 362 180 342.5 c 128,-1,9
 173 323 173 323 171 302 c 1,10,-1
 374 302 l 1,0,1
33 249 m 0,11,12
 33 316 33 316 54 367 c 128,-1,13
 75 418 75 418 108 452 c 128,-1,14
 141 486 141 486 184.5 503.5 c 128,-1,15
 228 521 228 521 273 521 c 0,16,17
 385 521 385 521 443.5 454.5 c 128,-1,18
 502 388 502 388 502 260 c 0,19,20
 502 247 502 247 501.5 233 c 128,-1,21
 501 219 501 219 500 211 c 1,22,-1
 171 211 l 1,23,24
 171 161 171 161 212 132.5 c 128,-1,25
 253 104 253 104 318 104 c 0,26,27
 358 104 358 104 394 112.5 c 128,-1,28
 430 121 430 121 455 130 c 1,29,-1
 473 16 l 1,30,31
 438 4 438 4 399.5 -4 c 128,-1,32
 361 -12 361 -12 312 -12 c 0,33,34
 247 -12 247 -12 196 5 c 128,-1,35
 145 22 145 22 108.5 54.5 c 128,-1,36
 72 87 72 87 52.5 135.5 c 128,-1,37
 33 184 33 184 33 249 c 0,11,12
EndSplineSet
Substitution2: "'case' +WSdlh1tXfUQwf3UoMGuKv2V0MFcwX1tXX2IA lookup 18 +MLUw1jDGMPww1jDr" E
EndChar

StartChar: f
Encoding: 102 102 73
Width: 500
Flags: W
LayerCount: 2
Fore
SplineSet
150 0 m 1,0,-1
 150 397 l 1,1,-1
 39 397 l 1,2,-1
 39 508 l 1,3,-1
 150 508 l 1,4,-1
 150 537 l 2,5,6
 150 599 150 599 168 639 c 128,-1,7
 186 679 186 679 216 703.5 c 128,-1,8
 246 728 246 728 285 738 c 128,-1,9
 324 748 324 748 365 748 c 0,10,11
 407 748 407 748 451.5 740.5 c 128,-1,12
 496 733 496 733 531 716 c 1,13,-1
 509 608 l 1,14,15
 484 617 484 617 446.5 626 c 128,-1,16
 409 635 409 635 376 635 c 0,17,18
 358 635 358 635 341 632 c 128,-1,19
 324 629 324 629 311.5 618 c 128,-1,20
 299 607 299 607 291.5 587 c 128,-1,21
 284 567 284 567 284 535 c 2,22,-1
 284 508 l 1,23,-1
 492 508 l 1,24,-1
 492 397 l 1,25,-1
 284 397 l 1,26,-1
 284 0 l 1,27,-1
 150 0 l 1,0,-1
EndSplineSet
Substitution2: "'case' +WSdlh1tXfUQwf3UoMGuKv2V0MFcwX1tXX2IA lookup 18 +MLUw1jDGMPww1jDr" F
EndChar

StartChar: g
Encoding: 103 103 74
Width: 500
Flags: W
LayerCount: 2
Fore
SplineSet
473 62 m 2,0,1
 473 -62 473 -62 413 -121.5 c 128,-1,2
 353 -181 353 -181 220 -181 c 0,3,4
 172 -181 172 -181 128.5 -171.5 c 128,-1,5
 85 -162 85 -162 45 -149 c 1,6,-1
 70 -37 l 1,7,8
 101 -49 101 -49 136 -59 c 128,-1,9
 171 -69 171 -69 222 -69 c 0,10,11
 257 -69 257 -69 279.5 -61 c 128,-1,12
 302 -53 302 -53 315 -39 c 128,-1,13
 328 -25 328 -25 333.5 -6 c 128,-1,14
 339 13 339 13 339 35 c 2,15,-1
 339 55 l 1,16,17
 311 44 311 44 288 38.5 c 128,-1,18
 265 33 265 33 238 33 c 0,19,20
 139 33 139 33 87.5 96 c 128,-1,21
 36 159 36 159 36 270 c 0,22,23
 36 395 36 395 105 456.5 c 128,-1,24
 174 518 174 518 293 518 c 0,25,26
 376 518 376 518 473 491 c 1,27,-1
 473 62 l 2,0,1
171 270 m 0,28,29
 171 207 171 207 193.5 174 c 128,-1,30
 216 141 216 141 265 141 c 0,31,32
 287 141 287 141 305.5 146.5 c 128,-1,33
 324 152 324 152 339 161 c 1,34,-1
 339 405 l 1,35,36
 324 408 324 408 312 409 c 128,-1,37
 300 410 300 410 287 410 c 0,38,39
 171 410 171 410 171 270 c 0,28,29
EndSplineSet
Substitution2: "'case' +WSdlh1tXfUQwf3UoMGuKv2V0MFcwX1tXX2IA lookup 18 +MLUw1jDGMPww1jDr" G
EndChar

StartChar: h
Encoding: 104 104 75
Width: 500
Flags: W
LayerCount: 2
Fore
SplineSet
68 0 m 1,0,-1
 68 727 l 1,1,-1
 201 750 l 1,2,-1
 201 503 l 1,3,4
 217 508 217 508 239.5 513 c 128,-1,5
 262 518 262 518 280 518 c 0,6,7
 336 518 336 518 373.5 501.5 c 128,-1,8
 411 485 411 485 434 454 c 128,-1,9
 457 423 457 423 466.5 380.5 c 128,-1,10
 476 338 476 338 476 286 c 2,11,-1
 476 0 l 1,12,-1
 343 0 l 1,13,-1
 343 269 l 2,14,15
 343 340 343 340 327 371.5 c 128,-1,16
 311 403 311 403 266 403 c 0,17,18
 248 403 248 403 230 398.5 c 128,-1,19
 212 394 212 394 201 391 c 1,20,-1
 201 0 l 1,21,-1
 68 0 l 1,0,-1
EndSplineSet
Substitution2: "'case' +WSdlh1tXfUQwf3UoMGuKv2V0MFcwX1tXX2IA lookup 18 +MLUw1jDGMPww1jDr" H
EndChar

StartChar: i
Encoding: 105 105 76
Width: 500
Flags: W
LayerCount: 2
Fore
SplineSet
416 653 m 0,0,1
 416 614 416 614 391 591.5 c 128,-1,2
 366 569 366 569 331.5 569 c 128,-1,3
 297 569 297 569 272.5 592 c 128,-1,4
 248 615 248 615 248 653 c 0,5,6
 248 693 248 693 272.5 716 c 128,-1,7
 297 739 297 739 331.5 739 c 128,-1,8
 366 739 366 739 391 716 c 128,-1,9
 416 693 416 693 416 653 c 0,0,1
265 397 m 1,10,-1
 124 397 l 1,11,-1
 124 508 l 1,12,-1
 397 508 l 1,13,-1
 397 0 l 1,14,-1
 265 0 l 1,15,-1
 265 397 l 1,10,-1
EndSplineSet
Substitution2: "'case' +WSdlh1tXfUQwf3UoMGuKv2V0MFcwX1tXX2IA lookup 18 +MLUw1jDGMPww1jDr" I
Substitution2: "'locl' +Vv0w+1cwV99W+mcJMG5bV19i in +MOkwxjDzZYdbVwAA lookup 2 +MLUw1jDGMPww1jDr" i.locl
Substitution2: "'locl' +Vv0w+1cwV99W+mcJMG5bV19i in +MOkwxjDzZYdbVwAA lookup 1 +MLUw1jDGMPww1jDr" i.locl
Substitution2: "'locl' +Vv0w+1cwV99W+mcJMG5bV19i in +MOkwxjDzZYdbVwAA lookup 0 +MLUw1jDGMPww1jDr" i.locl
EndChar

StartChar: j
Encoding: 106 106 77
Width: 500
Flags: W
LayerCount: 2
Fore
SplineSet
455 653 m 0,0,1
 455 614 455 614 430 591.5 c 128,-1,2
 405 569 405 569 370.5 569 c 128,-1,3
 336 569 336 569 311.5 592 c 128,-1,4
 287 615 287 615 287 653 c 0,5,6
 287 693 287 693 311.5 716 c 128,-1,7
 336 739 336 739 370.5 739 c 128,-1,8
 405 739 405 739 430 716 c 128,-1,9
 455 693 455 693 455 653 c 0,0,1
432 33 m 2,10,11
 432 -29 432 -29 417 -70 c 128,-1,12
 402 -111 402 -111 375.5 -136.5 c 128,-1,13
 349 -162 349 -162 312.5 -173 c 128,-1,14
 276 -184 276 -184 234 -184 c 0,15,16
 182 -184 182 -184 138 -171 c 128,-1,17
 94 -158 94 -158 53 -137 c 1,18,-1
 94 -25 l 1,19,20
 121 -40 121 -40 159.5 -53.5 c 128,-1,21
 198 -67 198 -67 229 -67 c 0,22,23
 262 -67 262 -67 280.5 -47 c 128,-1,24
 299 -27 299 -27 299 27 c 2,25,-1
 299 397 l 1,26,-1
 299 508 l 1,27,-1
 432 508 l 1,28,-1
 432 33 l 2,10,11
EndSplineSet
Substitution2: "'case' +WSdlh1tXfUQwf3UoMGuKv2V0MFcwX1tXX2IA lookup 18 +MLUw1jDGMPww1jDr" J
EndChar

StartChar: k
Encoding: 107 107 78
Width: 500
Flags: W
LayerCount: 2
Fore
SplineSet
202 307 m 1,0,1
 221 330 221 330 241 355 c 128,-1,2
 261 380 261 380 280 407 c 128,-1,3
 299 434 299 434 316.5 459.5 c 128,-1,4
 334 485 334 485 347 508 c 1,5,-1
 507 508 l 1,6,7
 488 483 488 483 462.5 453.5 c 128,-1,8
 437 424 437 424 410.5 394 c 128,-1,9
 384 364 384 364 358 336 c 128,-1,10
 332 308 332 308 310 284 c 1,11,12
 337 258 337 258 368.5 222 c 128,-1,13
 400 186 400 186 430 147 c 128,-1,14
 460 108 460 108 485.5 69 c 128,-1,15
 511 30 511 30 526 0 c 1,16,-1
 374 0 l 1,17,18
 361 27 361 27 340 61 c 128,-1,19
 319 95 319 95 295 128 c 128,-1,20
 271 161 271 161 246.5 190.5 c 128,-1,21
 222 220 222 220 202 240 c 1,22,-1
 202 0 l 1,23,-1
 68 0 l 1,24,-1
 68 727 l 1,25,-1
 202 750 l 1,26,-1
 202 307 l 1,0,1
EndSplineSet
Substitution2: "'case' +WSdlh1tXfUQwf3UoMGuKv2V0MFcwX1tXX2IA lookup 18 +MLUw1jDGMPww1jDr" K
EndChar

StartChar: l
Encoding: 108 108 79
Width: 500
Flags: W
LayerCount: 2
Fore
SplineSet
504 22 m 2,0,1
 504 21 504 21 490 14 c 0,2,3
 479 9 479 9 460.5 3 c 128,-1,4
 442 -3 442 -3 415.5 -7.5 c 128,-1,5
 389 -12 389 -12 355 -12 c 0,6,7
 259 -12 259 -12 221 43 c 1,8,9
 179 106 179 106 179 202 c 2,10,-1
 179 743 l 1,11,-1
 312 743 l 1,12,-1
 312 192 l 2,13,14
 312 140 312 140 332.5 122 c 128,-1,15
 353 104 353 104 384 104 c 0,16,17
 424 104 424 104 451 114.5 c 128,-1,18
 478 125 478 125 487 129 c 1,19,-1
 504 22 l 2,0,1
EndSplineSet
Substitution2: "'case' +WSdlh1tXfUQwf3UoMGuKv2V0MFcwX1tXX2IA lookup 18 +MLUw1jDGMPww1jDr" L
EndChar

StartChar: m
Encoding: 109 109 80
Width: 500
Flags: W
LayerCount: 2
Fore
SplineSet
370 513 m 0,0,1
 412 513 412 513 439.5 500 c 128,-1,2
 467 487 467 487 482.5 461 c 128,-1,3
 498 435 498 435 503.5 395.5 c 128,-1,4
 509 356 509 356 509 303 c 2,5,-1
 509 0 l 1,6,-1
 401 0 l 1,7,-1
 401 310 l 2,8,9
 401 340 401 340 397 358.5 c 128,-1,10
 393 377 393 377 387 386.5 c 128,-1,11
 381 396 381 396 373 399.5 c 128,-1,12
 365 403 365 403 356 403 c 0,13,14
 346 403 346 403 335.5 401.5 c 128,-1,15
 325 400 325 400 316 395 c 1,16,17
 319 374 319 374 321.5 349.5 c 128,-1,18
 324 325 324 325 324 295 c 2,19,-1
 324 193 l 1,20,-1
 216 193 l 1,21,-1
 216 310 l 2,22,23
 216 362 216 362 205.5 382.5 c 128,-1,24
 195 403 195 403 173 403 c 0,25,26
 167 403 167 403 157.5 402 c 128,-1,27
 148 401 148 401 139 399 c 1,28,-1
 139 0 l 1,29,-1
 31 0 l 1,30,-1
 31 488 l 1,31,32
 73 500 73 500 114.5 506.5 c 128,-1,33
 156 513 156 513 187 513 c 0,34,35
 215 513 215 513 237 506 c 128,-1,36
 259 499 259 499 275 483 c 1,37,38
 293 495 293 495 318 504 c 128,-1,39
 343 513 343 513 370 513 c 0,0,1
EndSplineSet
Substitution2: "'case' +WSdlh1tXfUQwf3UoMGuKv2V0MFcwX1tXX2IA lookup 18 +MLUw1jDGMPww1jDr" M
EndChar

StartChar: n
Encoding: 110 110 81
Width: 500
Flags: W
LayerCount: 2
Fore
SplineSet
68 491 m 1,0,1
 104 501 104 501 156 509.5 c 128,-1,2
 208 518 208 518 270 518 c 0,3,4
 330 518 330 518 370 501.5 c 128,-1,5
 410 485 410 485 433.5 454 c 128,-1,6
 457 423 457 423 466.5 380.5 c 128,-1,7
 476 338 476 338 476 286 c 2,8,-1
 476 0 l 1,9,-1
 343 0 l 1,10,-1
 343 269 l 2,11,12
 343 340 343 340 327 371.5 c 128,-1,13
 311 403 311 403 261 403 c 0,14,15
 246 403 246 403 231.5 402 c 128,-1,16
 217 401 217 401 201 399 c 1,17,-1
 201 0 l 1,18,-1
 68 0 l 1,19,-1
 68 491 l 1,0,1
EndSplineSet
Substitution2: "'case' +WSdlh1tXfUQwf3UoMGuKv2V0MFcwX1tXX2IA lookup 18 +MLUw1jDGMPww1jDr" N
EndChar

StartChar: o
Encoding: 111 111 82
Width: 500
Flags: W
LayerCount: 2
Fore
SplineSet
166 254 m 128,-1,1
 166 186 166 186 190.5 144 c 128,-1,2
 215 102 215 102 269 102 c 0,3,4
 321 102 321 102 347.5 144 c 128,-1,5
 374 186 374 186 374 254 c 128,-1,6
 374 322 374 322 349.5 363.5 c 128,-1,7
 325 405 325 405 271 405 c 0,8,9
 219 405 219 405 192.5 363.5 c 128,-1,0
 166 322 166 322 166 254 c 128,-1,1
510 255 m 0,10,11
 510 195 510 195 492.5 145.5 c 128,-1,12
 475 96 475 96 444 60.5 c 128,-1,13
 413 25 413 25 369 5.5 c 128,-1,14
 325 -14 325 -14 271 -14 c 128,-1,15
 217 -14 217 -14 173.5 5.5 c 128,-1,16
 130 25 130 25 98 60.5 c 128,-1,17
 66 96 66 96 48.5 145 c 128,-1,18
 31 194 31 194 31 255 c 0,19,20
 31 314 31 314 49 363.5 c 128,-1,21
 67 413 67 413 99 448 c 128,-1,22
 131 483 131 483 175 502 c 128,-1,23
 219 521 219 521 271 521 c 0,24,25
 324 521 324 521 367.5 502 c 128,-1,26
 411 483 411 483 443 448 c 128,-1,27
 475 413 475 413 492.5 363.5 c 128,-1,28
 510 314 510 314 510 255 c 0,10,11
EndSplineSet
Substitution2: "'case' +WSdlh1tXfUQwf3UoMGuKv2V0MFcwX1tXX2IA lookup 18 +MLUw1jDGMPww1jDr" O
Substitution2: "'ordn' +Xo9lcAAA in +MOkwxjDzZYdbVwAA lookup 7 +MLUw1jDGMPww1jDr" ordmasculine
EndChar

StartChar: p
Encoding: 112 112 83
Width: 500
Flags: W
LayerCount: 2
Fore
SplineSet
507 254 m 0,0,1
 507 196 507 196 494 146.5 c 128,-1,2
 481 97 481 97 456 62 c 128,-1,3
 431 27 431 27 393 7.5 c 128,-1,4
 355 -12 355 -12 306 -12 c 0,5,6
 255 -12 255 -12 201 13 c 1,7,-1
 201 -178 l 1,8,-1
 68 -178 l 1,9,-1
 68 491 l 1,10,11
 105 503 105 503 158.5 510.5 c 128,-1,12
 212 518 212 518 264 518 c 0,13,14
 382 518 382 518 444.5 447 c 128,-1,15
 507 376 507 376 507 254 c 0,0,1
372 249 m 0,16,17
 372 317 372 317 345 361 c 128,-1,18
 318 405 318 405 262 405 c 0,19,20
 247 405 247 405 230 403.5 c 128,-1,21
 213 402 213 402 201 401 c 1,22,-1
 201 122 l 1,23,24
 214 113 214 113 235.5 108 c 128,-1,25
 257 103 257 103 279 103 c 0,26,27
 327 103 327 103 349.5 141 c 128,-1,28
 372 179 372 179 372 249 c 0,16,17
EndSplineSet
Substitution2: "'case' +WSdlh1tXfUQwf3UoMGuKv2V0MFcwX1tXX2IA lookup 18 +MLUw1jDGMPww1jDr" P
EndChar

StartChar: q
Encoding: 113 113 84
Width: 500
Flags: W
LayerCount: 2
Fore
SplineSet
33 254 m 0,0,1
 33 312 33 312 49.5 361 c 128,-1,2
 66 410 66 410 96.5 445 c 128,-1,3
 127 480 127 480 173 499 c 128,-1,4
 219 518 219 518 278 518 c 0,5,6
 303 518 303 518 330 516 c 128,-1,7
 357 514 357 514 383 510.5 c 128,-1,8
 409 507 409 507 432.5 502 c 128,-1,9
 456 497 456 497 473 491 c 1,10,-1
 473 -178 l 1,11,-1
 340 -178 l 1,12,-1
 340 14 l 1,13,14
 315 2 315 2 287.5 -5 c 128,-1,15
 260 -12 260 -12 235 -12 c 0,16,17
 185 -12 185 -12 147.5 7 c 128,-1,18
 110 26 110 26 84.5 60.5 c 128,-1,19
 59 95 59 95 46 144.5 c 128,-1,20
 33 194 33 194 33 254 c 0,0,1
168 249 m 0,21,22
 168 179 168 179 191.5 141 c 128,-1,23
 215 103 215 103 262 103 c 0,24,25
 285 103 285 103 305 108 c 128,-1,26
 325 113 325 113 340 122 c 1,27,-1
 340 401 l 1,28,29
 330 402 330 402 313.5 403.5 c 128,-1,30
 297 405 297 405 279 405 c 0,31,32
 224 405 224 405 196 361 c 128,-1,33
 168 317 168 317 168 249 c 0,21,22
EndSplineSet
Substitution2: "'case' +WSdlh1tXfUQwf3UoMGuKv2V0MFcwX1tXX2IA lookup 18 +MLUw1jDGMPww1jDr" Q
EndChar

StartChar: r
Encoding: 114 114 85
Width: 500
Flags: W
LayerCount: 2
Fore
SplineSet
472 373 m 1,0,1
 459 376 459 376 441 379 c 128,-1,2
 423 382 423 382 405 385 c 128,-1,3
 387 388 387 388 369.5 389 c 128,-1,4
 352 390 352 390 340 390 c 0,5,6
 312 390 312 390 285 387 c 128,-1,7
 258 384 258 384 230 377 c 1,8,-1
 230 0 l 1,9,-1
 96 0 l 1,10,-1
 96 474 l 1,11,12
 149 493 149 493 204.5 505 c 128,-1,13
 260 517 260 517 335 517 c 0,14,15
 346 517 346 517 366 516 c 128,-1,16
 386 515 386 515 408.5 512.5 c 128,-1,17
 431 510 431 510 454 506 c 128,-1,18
 477 502 477 502 496 496 c 1,19,-1
 472 373 l 1,0,1
EndSplineSet
Substitution2: "'case' +WSdlh1tXfUQwf3UoMGuKv2V0MFcwX1tXX2IA lookup 18 +MLUw1jDGMPww1jDr" R
EndChar

StartChar: s
Encoding: 115 115 86
Width: 500
Flags: W
LayerCount: 2
Fore
SplineSet
246 100 m 0,0,1
 295 100 295 100 321 107 c 128,-1,2
 347 114 347 114 347 136 c 0,3,4
 347 150 347 150 338.5 160 c 128,-1,5
 330 170 330 170 315.5 177 c 128,-1,6
 301 184 301 184 282.5 190.5 c 128,-1,7
 264 197 264 197 243 203 c 0,8,9
 214 212 214 212 183.5 223 c 128,-1,10
 153 234 153 234 128.5 251.5 c 128,-1,11
 104 269 104 269 87.5 295.5 c 128,-1,12
 71 322 71 322 71 362 c 0,13,14
 71 394 71 394 83.5 422.5 c 128,-1,15
 96 451 96 451 122.5 473.5 c 128,-1,16
 149 496 149 496 190 508.5 c 128,-1,17
 231 521 231 521 288 521 c 0,18,19
 338 521 338 521 380.5 513 c 128,-1,20
 423 505 423 505 455 491 c 1,21,-1
 434 379 l 1,22,23
 416 384 416 384 377 396.5 c 128,-1,24
 338 409 338 409 289 409 c 0,25,26
 238 409 238 409 220.5 396.5 c 128,-1,27
 203 384 203 384 203 370 c 0,28,29
 203 358 203 358 211 349 c 128,-1,30
 219 340 219 340 232.5 332.5 c 128,-1,31
 246 325 246 325 264 318 c 128,-1,32
 282 311 282 311 302 305 c 0,33,34
 331 295 331 295 362.5 283 c 128,-1,35
 394 271 394 271 419.5 253 c 128,-1,36
 445 235 445 235 461 207.5 c 128,-1,37
 477 180 477 180 477 140 c 0,38,39
 477 109 477 109 465.5 81 c 128,-1,40
 454 53 454 53 426.5 32.5 c 128,-1,41
 399 12 399 12 354.5 0 c 128,-1,42
 310 -12 310 -12 245 -12 c 0,43,44
 179 -12 179 -12 132.5 3 c 128,-1,45
 86 18 86 18 58 30 c 1,46,-1
 79 141 l 1,47,48
 117 126 117 126 159.5 113 c 128,-1,49
 202 100 202 100 246 100 c 0,0,1
EndSplineSet
Substitution2: "'case' +WSdlh1tXfUQwf3UoMGuKv2V0MFcwX1tXX2IA lookup 18 +MLUw1jDGMPww1jDr" S
EndChar

StartChar: t
Encoding: 116 116 87
Width: 500
Flags: W
LayerCount: 2
Fore
SplineSet
154 397 m 1,0,-1
 39 397 l 1,1,-1
 39 508 l 1,2,-1
 154 508 l 1,3,-1
 154 635 l 1,4,-1
 287 657 l 1,5,-1
 287 508 l 1,6,-1
 500 508 l 1,7,-1
 500 397 l 1,8,-1
 287 397 l 1,9,-1
 287 192 l 2,10,11
 287 164 287 164 292.5 147 c 128,-1,12
 298 130 298 130 308 120 c 128,-1,13
 318 110 318 110 332 107 c 128,-1,14
 346 104 346 104 363 104 c 0,15,16
 381 104 381 104 397 105 c 128,-1,17
 413 106 413 106 427.5 108.5 c 128,-1,18
 442 111 442 111 457.5 116.5 c 128,-1,19
 473 122 473 122 491 131 c 1,20,-1
 510 16 l 1,21,22
 473 1 473 1 430.5 -5.5 c 128,-1,23
 388 -12 388 -12 348 -12 c 0,24,25
 302 -12 302 -12 266 -4.5 c 128,-1,26
 230 3 230 3 205 24.5 c 128,-1,27
 180 46 180 46 167 85.5 c 128,-1,28
 154 125 154 125 154 189 c 2,29,-1
 154 397 l 1,0,-1
EndSplineSet
Substitution2: "'case' +WSdlh1tXfUQwf3UoMGuKv2V0MFcwX1tXX2IA lookup 18 +MLUw1jDGMPww1jDr" T
EndChar

StartChar: u
Encoding: 117 117 88
Width: 500
Flags: W
LayerCount: 2
Fore
SplineSet
473 17 m 1,0,1
 436 7 436 7 384 -2.5 c 128,-1,2
 332 -12 332 -12 270 -12 c 0,3,4
 207 -12 207 -12 167 5.5 c 128,-1,5
 127 23 127 23 104 54.5 c 128,-1,6
 81 86 81 86 72.5 129.5 c 128,-1,7
 64 173 64 173 64 225 c 2,8,-1
 64 508 l 1,9,-1
 197 508 l 1,10,-1
 197 242 l 2,11,12
 197 172 197 172 213.5 138 c 128,-1,13
 230 104 230 104 279 104 c 0,14,15
 309 104 309 104 339 109 c 1,16,-1
 339 508 l 1,17,-1
 473 508 l 1,18,-1
 473 17 l 1,0,1
EndSplineSet
Substitution2: "'case' +WSdlh1tXfUQwf3UoMGuKv2V0MFcwX1tXX2IA lookup 18 +MLUw1jDGMPww1jDr" U
EndChar

StartChar: v
Encoding: 118 118 89
Width: 500
Flags: W
LayerCount: 2
Fore
SplineSet
210 0 m 1,0,1
 161 96 161 96 110.5 225 c 128,-1,2
 60 354 60 354 15 508 c 1,3,-1
 154 508 l 1,4,5
 164 467 164 467 177.5 420.5 c 128,-1,6
 191 374 191 374 206 327 c 128,-1,7
 221 280 221 280 237 235.5 c 128,-1,8
 253 191 253 191 267 154 c 1,9,10
 281 191 281 191 298 235.5 c 128,-1,11
 315 280 315 280 332 327 c 128,-1,12
 349 374 349 374 364.5 420.5 c 128,-1,13
 380 467 380 467 390 508 c 1,14,-1
 525 508 l 1,15,16
 480 355 480 355 424.5 225.5 c 128,-1,17
 369 96 369 96 321 0 c 1,18,-1
 210 0 l 1,0,1
EndSplineSet
Substitution2: "'case' +WSdlh1tXfUQwf3UoMGuKv2V0MFcwX1tXX2IA lookup 18 +MLUw1jDGMPww1jDr" V
EndChar

StartChar: w
Encoding: 119 119 90
Width: 500
Flags: W
LayerCount: 2
Fore
SplineSet
348 0 m 1,0,1
 336 33 336 33 325.5 61.5 c 128,-1,2
 315 90 315 90 306 116.5 c 128,-1,3
 297 143 297 143 288 171.5 c 128,-1,4
 279 200 279 200 269 234 c 1,5,6
 258 199 258 199 249.5 172 c 128,-1,7
 241 145 241 145 231.5 118 c 128,-1,8
 222 91 222 91 212.5 63 c 128,-1,9
 203 35 203 35 189 0 c 1,10,-1
 89 0 l 1,11,12
 76 48 76 48 64.5 105.5 c 128,-1,13
 53 163 53 163 43 228.5 c 128,-1,14
 33 294 33 294 25.5 364 c 128,-1,15
 18 434 18 434 12 508 c 1,16,-1
 125 508 l 1,17,18
 129 414 129 414 134 324 c 128,-1,19
 139 234 139 234 152 139 c 1,20,21
 166 180 166 180 176.5 215.5 c 128,-1,22
 187 251 187 251 195 282.5 c 128,-1,23
 203 314 203 314 210 344 c 128,-1,24
 217 374 217 374 225 405 c 1,25,-1
 321 405 l 1,26,27
 327 374 327 374 334 344 c 128,-1,28
 341 314 341 314 349 282.5 c 128,-1,29
 357 251 357 251 366.5 215.5 c 128,-1,30
 376 180 376 180 389 139 c 1,31,32
 395 189 395 189 399.5 234.5 c 128,-1,33
 404 280 404 280 406.5 324.5 c 128,-1,34
 409 369 409 369 411 414 c 128,-1,35
 413 459 413 459 415 508 c 1,36,-1
 528 508 l 1,37,38
 516 360 516 360 495 229 c 128,-1,39
 474 98 474 98 448 0 c 1,40,-1
 348 0 l 1,0,1
EndSplineSet
Substitution2: "'case' +WSdlh1tXfUQwf3UoMGuKv2V0MFcwX1tXX2IA lookup 18 +MLUw1jDGMPww1jDr" W
EndChar

StartChar: x
Encoding: 120 120 91
Width: 500
Flags: W
LayerCount: 2
Fore
SplineSet
274 349 m 1,0,-1
 378 508 l 1,1,-1
 513 508 l 1,2,-1
 349 264 l 1,3,4
 375 233 375 233 399.5 197.5 c 128,-1,5
 424 162 424 162 447 126.5 c 128,-1,6
 470 91 470 91 488.5 58.5 c 128,-1,7
 507 26 507 26 519 0 c 1,8,-1
 381 0 l 1,9,10
 352 55 352 55 323 98 c 128,-1,11
 294 141 294 141 268 176 c 1,12,13
 236 133 236 133 210 92 c 128,-1,14
 184 51 184 51 157 0 c 1,15,-1
 22 0 l 1,16,17
 38 30 38 30 59 63 c 128,-1,18
 80 96 80 96 103 130 c 128,-1,19
 126 164 126 164 151.5 197.5 c 128,-1,20
 177 231 177 231 201 261 c 1,21,-1
 23 508 l 1,22,-1
 162 508 l 1,23,-1
 274 349 l 1,0,-1
EndSplineSet
Substitution2: "'case' +WSdlh1tXfUQwf3UoMGuKv2V0MFcwX1tXX2IA lookup 18 +MLUw1jDGMPww1jDr" X
EndChar

StartChar: y
Encoding: 121 121 92
Width: 500
Flags: W
LayerCount: 2
Fore
SplineSet
510 508 m 1,0,1
 489 437 489 437 470 368 c 128,-1,2
 451 299 451 299 430.5 233.5 c 128,-1,3
 410 168 410 168 387 105.5 c 128,-1,4
 364 43 364 43 337 -16 c 1,5,6
 316 -59 316 -59 296 -90.5 c 128,-1,7
 276 -122 276 -122 252 -142 c 128,-1,8
 228 -162 228 -162 198 -171.5 c 128,-1,9
 168 -181 168 -181 129 -181 c 0,10,11
 96 -181 96 -181 68 -176 c 128,-1,12
 40 -171 40 -171 22 -162 c 1,13,-1
 46 -51 l 1,14,15
 68 -61 68 -61 85 -64.5 c 128,-1,16
 102 -68 102 -68 121 -68 c 0,17,18
 160 -68 160 -68 183.5 -42 c 128,-1,19
 207 -16 207 -16 221 19 c 1,20,21
 173 114 173 114 126 237 c 128,-1,22
 79 360 79 360 40 508 c 1,23,-1
 178 508 l 1,24,25
 188 468 188 468 200.5 422.5 c 128,-1,26
 213 377 213 377 227 331.5 c 128,-1,27
 241 286 241 286 256.5 242.5 c 128,-1,28
 272 199 272 199 288 161 c 1,29,30
 299 199 299 199 311 242.5 c 128,-1,31
 323 286 323 286 334 331 c 128,-1,32
 345 376 345 376 355 421.5 c 128,-1,33
 365 467 365 467 374 508 c 1,34,-1
 510 508 l 1,0,1
EndSplineSet
Substitution2: "'case' +WSdlh1tXfUQwf3UoMGuKv2V0MFcwX1tXX2IA lookup 18 +MLUw1jDGMPww1jDr" Y
EndChar

StartChar: z
Encoding: 122 122 93
Width: 500
Flags: W
LayerCount: 2
Fore
SplineSet
460 410 m 1,0,1
 445 393 445 393 417 359 c 128,-1,2
 389 325 389 325 356 283 c 128,-1,3
 323 241 323 241 290 195 c 128,-1,4
 257 149 257 149 231 110 c 1,5,-1
 471 110 l 1,6,-1
 471 0 l 1,7,-1
 72 0 l 1,8,-1
 72 81 l 1,9,10
 97 122 97 122 126.5 165 c 128,-1,11
 156 208 156 208 185 250 c 128,-1,12
 214 292 214 292 242 329.5 c 128,-1,13
 270 367 270 367 293 397 c 1,14,-1
 83 397 l 1,15,-1
 83 508 l 1,16,-1
 460 508 l 1,17,-1
 460 410 l 1,0,1
EndSplineSet
Substitution2: "'case' +WSdlh1tXfUQwf3UoMGuKv2V0MFcwX1tXX2IA lookup 18 +MLUw1jDGMPww1jDr" Z
EndChar

StartChar: braceleft
Encoding: 123 123 94
Width: 500
Flags: W
LayerCount: 2
Fore
SplineSet
202 287 m 1,0,1
 260 276 260 276 285.5 239.5 c 128,-1,2
 311 203 311 203 311 134 c 2,3,-1
 311 12 l 2,4,5
 311 -33 311 -33 324 -54 c 128,-1,6
 337 -75 337 -75 372 -75 c 2,7,-1
 472 -75 l 1,8,-1
 472 -178 l 1,9,-1
 360 -178 l 2,10,11
 263 -178 263 -178 225.5 -136 c 128,-1,12
 188 -94 188 -94 188 -14 c 2,13,-1
 188 145 l 2,14,15
 188 190 188 190 174 213.5 c 128,-1,16
 160 237 160 237 126 237 c 2,17,-1
 68 237 l 1,18,-1
 68 340 l 1,19,-1
 126 340 l 2,20,21
 159 340 159 340 173.5 363.5 c 128,-1,22
 188 387 188 387 188 431 c 2,23,-1
 188 591 l 2,24,25
 188 671 188 671 225 713 c 128,-1,26
 262 755 262 755 360 755 c 2,27,-1
 472 755 l 1,28,-1
 472 651 l 1,29,-1
 372 651 l 2,30,31
 337 651 337 651 324 631 c 128,-1,32
 311 611 311 611 311 565 c 2,33,-1
 311 443 l 2,34,35
 311 374 311 374 285.5 337 c 128,-1,36
 260 300 260 300 202 287 c 1,0,1
EndSplineSet
Substitution2: "'case' +WSdlh1tXfUQwf3UoMGuKv2V0MFcwX1tXX2IA lookup 17 +MLUw1jDGMPww1jDr" Braceleft
EndChar

StartChar: bar
Encoding: 124 124 95
Width: 500
Flags: W
LayerCount: 2
Fore
SplineSet
204 755 m 1,0,-1
 338 755 l 1,1,-1
 338 -178 l 1,2,-1
 204 -178 l 1,3,-1
 204 755 l 1,0,-1
EndSplineSet
EndChar

StartChar: braceright
Encoding: 125 125 96
Width: 500
Flags: W
LayerCount: 2
Fore
SplineSet
338 289 m 1,0,1
 280 300 280 300 254 337 c 128,-1,2
 228 374 228 374 228 443 c 2,3,-1
 228 565 l 2,4,5
 228 610 228 610 215 630.5 c 128,-1,6
 202 651 202 651 167 651 c 2,7,-1
 68 651 l 1,8,-1
 68 755 l 1,9,-1
 179 755 l 2,10,11
 228 755 228 755 261 744 c 128,-1,12
 294 733 294 733 314 712.5 c 128,-1,13
 334 692 334 692 342.5 661.5 c 128,-1,14
 351 631 351 631 351 591 c 2,15,-1
 351 432 l 2,16,17
 351 387 351 387 365 363.5 c 128,-1,18
 379 340 379 340 413 340 c 2,19,-1
 472 340 l 1,20,-1
 472 237 l 1,21,-1
 413 237 l 2,22,23
 380 237 380 237 365.5 213.5 c 128,-1,24
 351 190 351 190 351 146 c 2,25,-1
 351 -14 l 2,26,27
 351 -54 351 -54 342.5 -85 c 128,-1,28
 334 -116 334 -116 314 -136.5 c 128,-1,29
 294 -157 294 -157 261 -167.5 c 128,-1,30
 228 -178 228 -178 179 -178 c 2,31,-1
 68 -178 l 1,32,-1
 68 -75 l 1,33,-1
 167 -75 l 2,34,35
 202 -75 202 -75 215 -55 c 128,-1,36
 228 -35 228 -35 228 12 c 2,37,-1
 228 134 l 2,38,39
 228 203 228 203 254 239.5 c 128,-1,40
 280 276 280 276 338 289 c 1,0,1
EndSplineSet
Substitution2: "'case' +WSdlh1tXfUQwf3UoMGuKv2V0MFcwX1tXX2IA lookup 17 +MLUw1jDGMPww1jDr" Braceright
EndChar

StartChar: asciitilde
Encoding: 126 126 97
Width: 500
Flags: W
LayerCount: 2
Fore
SplineSet
373 185 m 0,0,1
 344 185 344 185 318.5 196 c 128,-1,2
 293 207 293 207 269 221 c 128,-1,3
 245 235 245 235 223 246.5 c 128,-1,4
 201 258 201 258 180 258 c 0,5,6
 171 258 171 258 163.5 256 c 128,-1,7
 156 254 156 254 148 247 c 128,-1,8
 140 240 140 240 133.5 226 c 128,-1,9
 127 212 127 212 121 188 c 1,10,-1
 23 215 l 1,11,12
 27 242 27 242 38 271.5 c 128,-1,13
 49 301 49 301 66.5 326 c 128,-1,14
 84 351 84 351 111 367.5 c 128,-1,15
 138 384 138 384 176 384 c 0,16,17
 204 384 204 384 229.5 373 c 128,-1,18
 255 362 255 362 278.5 348 c 128,-1,19
 302 334 302 334 324 322.5 c 128,-1,20
 346 311 346 311 367 311 c 0,21,22
 376 311 376 311 384 313 c 128,-1,23
 392 315 392 315 399.5 322.5 c 128,-1,24
 407 330 407 330 414 344.5 c 128,-1,25
 421 359 421 359 428 382 c 1,26,-1
 526 355 l 1,27,28
 521 328 521 328 510.5 298.5 c 128,-1,29
 500 269 500 269 481.5 243.5 c 128,-1,30
 463 218 463 218 437 201.5 c 128,-1,31
 411 185 411 185 373 185 c 0,0,1
EndSplineSet
EndChar

StartChar: Euro
Encoding: 8364 8364 98
Width: 500
Flags: W
LayerCount: 2
Fore
SplineSet
108 461 m 1,0,1
 133 572 133 572 200 626.5 c 128,-1,2
 267 681 267 681 363 681 c 0,3,4
 394 681 394 681 428.5 677 c 128,-1,5
 463 673 463 673 500 658 c 1,6,-1
 471 548 l 1,7,8
 452 557 452 557 426.5 561.5 c 128,-1,9
 401 566 401 566 369 566 c 0,10,11
 314 566 314 566 286 538 c 128,-1,12
 258 510 258 510 246 461 c 1,13,-1
 443 461 l 1,14,-1
 424 370 l 1,15,-1
 233 370 l 1,16,17
 232 361 232 361 231.5 353.5 c 128,-1,18
 231 346 231 346 231 337 c 128,-1,19
 231 328 231 328 231.5 319.5 c 128,-1,20
 232 311 232 311 233 302 c 1,21,-1
 413 302 l 1,22,-1
 394 212 l 1,23,-1
 246 212 l 1,24,25
 259 155 259 155 291.5 129.5 c 128,-1,26
 324 104 324 104 364 104 c 0,27,28
 392 104 392 104 425.5 109 c 128,-1,29
 459 114 459 114 488 129 c 1,30,-1
 516 22 l 1,31,32
 483 6 483 6 442.5 -3.5 c 128,-1,33
 402 -13 402 -13 361 -13 c 0,34,35
 316 -13 316 -13 273.5 -0.5 c 128,-1,36
 231 12 231 12 197 38.5 c 128,-1,37
 163 65 163 65 138.5 107.5 c 128,-1,38
 114 150 114 150 104 212 c 1,39,-1
 33 212 l 1,40,-1
 33 302 l 1,41,-1
 95 302 l 1,42,-1
 95 370 l 1,43,-1
 33 370 l 1,44,-1
 33 461 l 1,45,-1
 108 461 l 1,0,1
EndSplineSet
EndChar

StartChar: quotesinglbase
Encoding: 8218 8218 99
Width: 500
Flags: W
LayerCount: 2
Fore
SplineSet
136 -79 m 1,0,1
 155 -75 155 -75 175 -71.5 c 128,-1,2
 195 -68 195 -68 213 -61.5 c 128,-1,3
 231 -55 231 -55 245 -43 c 128,-1,4
 259 -31 259 -31 268 -11 c 1,5,6
 227 -7 227 -7 204 21.5 c 128,-1,7
 181 50 181 50 181 84 c 0,8,9
 181 126 181 126 209 153 c 128,-1,10
 237 180 237 180 279 180 c 0,11,12
 324 180 324 180 349.5 150 c 128,-1,13
 375 120 375 120 375 68 c 0,14,15
 375 30 375 30 363 -7.5 c 128,-1,16
 351 -45 351 -45 324.5 -77.5 c 128,-1,17
 298 -110 298 -110 256 -134 c 128,-1,18
 214 -158 214 -158 153 -165 c 1,19,-1
 136 -79 l 1,0,1
EndSplineSet
EndChar

StartChar: florin
Encoding: 402 402 100
Width: 500
Flags: W
LayerCount: 2
Fore
SplineSet
284 33 m 2,0,1
 284 -29 284 -29 269 -70 c 128,-1,2
 254 -111 254 -111 227 -136.5 c 128,-1,3
 200 -162 200 -162 163.5 -173 c 128,-1,4
 127 -184 127 -184 85 -184 c 0,5,6
 54 -184 54 -184 35.5 -179.5 c 128,-1,7
 17 -175 17 -175 -1 -170 c 1,8,-1
 29 -59 l 1,9,10
 38 -61 38 -61 48 -64 c 128,-1,11
 58 -67 58 -67 80 -67 c 0,12,13
 113 -67 113 -67 131.5 -47 c 128,-1,14
 150 -27 150 -27 150 27 c 2,15,-1
 150 397 l 1,16,-1
 39 397 l 1,17,-1
 39 508 l 1,18,-1
 150 508 l 1,19,-1
 150 537 l 2,20,21
 150 599 150 599 168 639 c 128,-1,22
 186 679 186 679 216 703.5 c 128,-1,23
 246 728 246 728 285 738 c 128,-1,24
 324 748 324 748 365 748 c 0,25,26
 407 748 407 748 451.5 740.5 c 128,-1,27
 496 733 496 733 531 716 c 1,28,-1
 509 608 l 1,29,30
 484 617 484 617 446.5 626 c 128,-1,31
 409 635 409 635 376 635 c 0,32,33
 358 635 358 635 341 632 c 128,-1,34
 324 629 324 629 311.5 618 c 128,-1,35
 299 607 299 607 291.5 587 c 128,-1,36
 284 567 284 567 284 535 c 2,37,-1
 284 508 l 1,38,-1
 492 508 l 1,39,-1
 492 397 l 1,40,-1
 284 397 l 1,41,-1
 284 33 l 2,0,1
EndSplineSet
EndChar

StartChar: quotedblbase
Encoding: 8222 8222 101
Width: 500
Flags: W
LayerCount: 2
Fore
SplineSet
267 -83 m 1,0,1
 288 -79 288 -79 307.5 -74.5 c 128,-1,2
 327 -70 327 -70 344.5 -63 c 128,-1,3
 362 -56 362 -56 375.5 -43.5 c 128,-1,4
 389 -31 389 -31 396 -12 c 1,5,6
 359 -9 359 -9 342 14.5 c 128,-1,7
 325 38 325 38 325 66 c 0,8,9
 325 104 325 104 350 122.5 c 128,-1,10
 375 141 375 141 404 141 c 0,11,12
 446 141 446 141 466.5 113.5 c 128,-1,13
 487 86 487 86 487 48 c 0,14,15
 487 17 487 17 474 -18 c 128,-1,16
 461 -53 461 -53 436 -82 c 128,-1,17
 411 -111 411 -111 373.5 -131.5 c 128,-1,18
 336 -152 336 -152 286 -156 c 1,19,-1
 267 -83 l 1,0,1
13 -83 m 1,20,21
 34 -79 34 -79 53.5 -74.5 c 128,-1,22
 73 -70 73 -70 90 -63 c 128,-1,23
 107 -56 107 -56 120.5 -43.5 c 128,-1,24
 134 -31 134 -31 141 -12 c 1,25,26
 105 -9 105 -9 87.5 14.5 c 128,-1,27
 70 38 70 38 70 66 c 0,28,29
 70 104 70 104 95 122.5 c 128,-1,30
 120 141 120 141 149 141 c 0,31,32
 191 141 191 141 211.5 113.5 c 128,-1,33
 232 86 232 86 232 48 c 0,34,35
 232 17 232 17 219 -18 c 128,-1,36
 206 -53 206 -53 181.5 -82 c 128,-1,37
 157 -111 157 -111 119 -131.5 c 128,-1,38
 81 -152 81 -152 31 -156 c 1,39,-1
 13 -83 l 1,20,21
EndSplineSet
EndChar

StartChar: ellipsis
Encoding: 8230 8230 102
Width: 500
Flags: W
LayerCount: 2
Fore
SplineSet
93 -13 m 0,0,1
 62 -13 62 -13 46 9 c 128,-1,2
 30 31 30 31 30 58 c 128,-1,3
 30 85 30 85 46 107 c 128,-1,4
 62 129 62 129 93 129 c 0,5,6
 122 129 122 129 139 106.5 c 128,-1,7
 156 84 156 84 156 58 c 0,8,9
 156 31 156 31 139.5 9 c 128,-1,10
 123 -13 123 -13 93 -13 c 0,0,1
272 -13 m 0,11,12
 241 -13 241 -13 225.5 9 c 128,-1,13
 210 31 210 31 210 58 c 128,-1,14
 210 85 210 85 225.5 107 c 128,-1,15
 241 129 241 129 272 129 c 0,16,17
 301 129 301 129 318 106.5 c 128,-1,18
 335 84 335 84 335 58 c 0,19,20
 335 31 335 31 318.5 9 c 128,-1,21
 302 -13 302 -13 272 -13 c 0,11,12
450 -13 m 0,22,23
 420 -13 420 -13 404 9 c 128,-1,24
 388 31 388 31 388 58 c 128,-1,25
 388 85 388 85 404 107 c 128,-1,26
 420 129 420 129 450.5 129 c 128,-1,27
 481 129 481 129 497 106.5 c 128,-1,28
 513 84 513 84 513 58 c 0,29,30
 513 31 513 31 497 9 c 128,-1,31
 481 -13 481 -13 450 -13 c 0,22,23
EndSplineSet
EndChar

StartChar: dagger
Encoding: 8224 8224 103
Width: 500
Flags: W
LayerCount: 2
Fore
SplineSet
329 363 m 1,0,-1
 329 143 l 2,1,2
 329 65 329 65 325 -1.5 c 128,-1,3
 321 -68 321 -68 311 -139 c 1,4,-1
 230 -139 l 1,5,6
 221 -69 221 -69 216.5 -2 c 128,-1,7
 212 65 212 65 212 143 c 2,8,-1
 212 363 l 1,9,-1
 67 363 l 1,10,-1
 67 473 l 1,11,-1
 212 473 l 1,12,-1
 212 669 l 1,13,-1
 329 669 l 1,14,-1
 329 473 l 1,15,-1
 475 473 l 1,16,-1
 475 363 l 1,17,-1
 329 363 l 1,0,-1
EndSplineSet
EndChar

StartChar: daggerdbl
Encoding: 8225 8225 104
Width: 500
Flags: W
LayerCount: 2
Fore
SplineSet
326 106 m 1,0,1
 324 40 324 40 319.5 -18.5 c 128,-1,2
 315 -77 315 -77 307 -139 c 1,3,-1
 227 -139 l 1,4,5
 218 -77 218 -77 213 -18.5 c 128,-1,6
 208 40 208 40 207 106 c 1,7,-1
 63 106 l 1,8,-1
 63 217 l 1,9,-1
 207 217 l 1,10,-1
 207 363 l 1,11,-1
 63 363 l 1,12,-1
 63 473 l 1,13,-1
 207 473 l 1,14,-1
 207 669 l 1,15,-1
 326 669 l 1,16,-1
 326 473 l 1,17,-1
 472 473 l 1,18,-1
 472 363 l 1,19,-1
 326 363 l 1,20,-1
 326 217 l 1,21,-1
 472 217 l 1,22,-1
 472 106 l 1,23,-1
 326 106 l 1,0,1
EndSplineSet
EndChar

StartChar: circumflex
Encoding: 710 710 105
Width: 500
Flags: W
LayerCount: 2
Fore
SplineSet
421 615 m 1,0,-1
 368 551 l 1,1,-1
 272 625 l 1,2,-1
 176 551 l 1,3,-1
 121 615 l 1,4,-1
 272 746 l 1,5,-1
 421 615 l 1,0,-1
EndSplineSet
EndChar

StartChar: perthousand
Encoding: 8240 8240 106
Width: 500
Flags: W
LayerCount: 2
Fore
SplineSet
147 536 m 0,0,1
 147 575 147 575 139.5 591.5 c 128,-1,2
 132 608 132 608 116 608 c 0,3,4
 101 608 101 608 93 591.5 c 128,-1,5
 85 575 85 575 85 536 c 0,6,7
 85 496 85 496 92.5 479 c 128,-1,8
 100 462 100 462 116 462 c 128,-1,9
 132 462 132 462 139.5 479 c 128,-1,10
 147 496 147 496 147 536 c 0,0,1
14 536 m 0,11,12
 14 608 14 608 40 646 c 128,-1,13
 66 684 66 684 116 684 c 0,14,15
 168 684 168 684 193.5 646 c 128,-1,16
 219 608 219 608 219 536 c 0,17,18
 219 463 219 463 193 425 c 128,-1,19
 167 387 167 387 116 387 c 0,20,21
 66 387 66 387 40 425 c 128,-1,22
 14 463 14 463 14 536 c 0,11,12
455 134 m 128,-1,24
 455 173 455 173 447.5 190 c 128,-1,25
 440 207 440 207 423.5 207 c 128,-1,26
 407 207 407 207 400 190 c 128,-1,27
 393 173 393 173 393 134 c 128,-1,28
 393 95 393 95 400 77.5 c 128,-1,29
 407 60 407 60 423.5 60 c 128,-1,30
 440 60 440 60 447.5 77.5 c 128,-1,23
 455 95 455 95 455 134 c 128,-1,24
37 251 m 1,31,-1
 10 298 l 1,32,-1
 503 545 l 1,33,-1
 530 497 l 1,34,-1
 37 251 l 1,31,-1
321 134 m 128,-1,36
 321 206 321 206 347 244.5 c 128,-1,37
 373 283 373 283 423 283 c 0,38,39
 475 283 475 283 501 244.5 c 128,-1,40
 527 206 527 206 527 134 c 128,-1,41
 527 62 527 62 501 24 c 128,-1,42
 475 -14 475 -14 423 -14 c 0,43,44
 372 -14 372 -14 346.5 24 c 128,-1,35
 321 62 321 62 321 134 c 128,-1,36
218 134 m 128,-1,46
 218 173 218 173 210.5 190 c 128,-1,47
 203 207 203 207 187 207 c 0,48,49
 172 207 172 207 165 190 c 128,-1,50
 158 173 158 173 158 134 c 128,-1,51
 158 95 158 95 165 77.5 c 128,-1,52
 172 60 172 60 187 60 c 0,53,54
 203 60 203 60 210.5 77.5 c 128,-1,45
 218 95 218 95 218 134 c 128,-1,46
85 134 m 128,-1,56
 85 206 85 206 111 244.5 c 128,-1,57
 137 283 137 283 187 283 c 0,58,59
 239 283 239 283 265 244.5 c 128,-1,60
 291 206 291 206 291 134 c 128,-1,61
 291 62 291 62 265 24 c 128,-1,62
 239 -14 239 -14 187 -14 c 0,63,64
 137 -14 137 -14 111 24 c 128,-1,55
 85 62 85 62 85 134 c 128,-1,56
EndSplineSet
EndChar

StartChar: Scaron
Encoding: 352 352 107
Width: 500
Flags: W
LayerCount: 2
Fore
SplineSet
251 97 m 0,0,1
 284 97 284 97 306 104 c 128,-1,2
 328 111 328 111 341 123.5 c 128,-1,3
 354 136 354 136 359 151.5 c 128,-1,4
 364 167 364 167 364 184 c 0,5,6
 364 205 364 205 352 221 c 128,-1,7
 340 237 340 237 321.5 249 c 128,-1,8
 303 261 303 261 280.5 271.5 c 128,-1,9
 258 282 258 282 235 291 c 0,10,11
 205 302 205 302 172.5 315.5 c 128,-1,12
 140 329 140 329 113.5 351 c 128,-1,13
 87 373 87 373 70 404.5 c 128,-1,14
 53 436 53 436 53 484 c 0,15,16
 53 578 53 578 114 631 c 128,-1,17
 175 684 175 684 282 684 c 0,18,19
 344 684 344 684 389.5 670 c 128,-1,20
 435 656 435 656 467 638 c 1,21,-1
 428 536 l 1,22,23
 401 551 401 551 368 561.5 c 128,-1,24
 335 572 335 572 292 572 c 0,25,26
 186 572 186 572 186 496 c 0,27,28
 186 477 186 477 196.5 462 c 128,-1,29
 207 447 207 447 224 435.5 c 128,-1,30
 241 424 241 424 262 415.5 c 128,-1,31
 283 407 283 407 303 400 c 0,32,33
 334 388 334 388 368.5 373.5 c 128,-1,34
 403 359 403 359 431.5 334.5 c 128,-1,35
 460 310 460 310 478.5 274 c 128,-1,36
 497 238 497 238 497 183 c 0,37,38
 497 89 497 89 436 37.5 c 128,-1,39
 375 -14 375 -14 251 -14 c 0,40,41
 168 -14 168 -14 118 4 c 128,-1,42
 68 22 68 22 43 37 c 1,43,-1
 82 145 l 1,44,45
 111 128 111 128 152 112.5 c 128,-1,46
 193 97 193 97 251 97 c 0,0,1
121 833 m 1,47,-1
 174 896 l 1,48,-1
 270 822 l 1,49,-1
 366 896 l 1,50,-1
 421 833 l 1,51,-1
 270 701 l 1,52,-1
 121 833 l 1,47,-1
EndSplineSet
EndChar

StartChar: guilsinglleft
Encoding: 8249 8249 108
Width: 500
Flags: W
LayerCount: 2
Fore
SplineSet
312 274 m 1,0,-1
 410 94 l 1,1,-1
 301 42 l 1,2,-1
 143 274 l 1,3,-1
 301 505 l 1,4,-1
 410 455 l 1,5,-1
 312 274 l 1,0,-1
EndSplineSet
Substitution2: "'case' +WSdlh1tXfUQwf3UoMGuKv2V0MFcwX1tXX2IA lookup 17 +MLUw1jDGMPww1jDr" Guilsinglleft
EndChar

StartChar: OE
Encoding: 338 338 109
Width: 500
Flags: W
LayerCount: 2
Fore
SplineSet
241 110 m 0,0,1
 259 110 259 110 275 116 c 1,2,-1
 275 554 l 1,3,4
 259 559 259 559 241 559 c 0,5,6
 211 559 211 559 192 543.5 c 128,-1,7
 173 528 173 528 162.5 499 c 128,-1,8
 152 470 152 470 148.5 428.5 c 128,-1,9
 145 387 145 387 145 335 c 128,-1,10
 145 283 145 283 148 241.5 c 128,-1,11
 151 200 151 200 162 170.5 c 128,-1,12
 173 141 173 141 191.5 125.5 c 128,-1,13
 210 110 210 110 241 110 c 0,0,1
297 0 m 1,14,15
 284 -3 284 -3 270.5 -4 c 128,-1,16
 257 -5 257 -5 242 -5 c 0,17,18
 133 -5 133 -5 76 75.5 c 128,-1,19
 19 156 19 156 19 335 c 0,20,21
 19 513 19 513 77 594 c 128,-1,22
 135 675 135 675 241 675 c 0,23,24
 257 675 257 675 272 673 c 128,-1,25
 287 671 287 671 302 669 c 1,26,-1
 516 669 l 1,27,-1
 516 558 l 1,28,-1
 396 558 l 1,29,-1
 396 409 l 1,30,-1
 491 409 l 1,31,-1
 491 299 l 1,32,-1
 396 299 l 1,33,-1
 396 110 l 1,34,-1
 530 110 l 1,35,-1
 530 0 l 1,36,-1
 297 0 l 1,14,15
EndSplineSet
EndChar

StartChar: quoteleft
Encoding: 8216 8216 110
Width: 500
Flags: W
LayerCount: 2
Fore
SplineSet
394 690 m 1,0,1
 375 687 375 687 355.5 683 c 128,-1,2
 336 679 336 679 318 672.5 c 128,-1,3
 300 666 300 666 285.5 654.5 c 128,-1,4
 271 643 271 643 262 622 c 1,5,6
 303 619 303 619 326 590.5 c 128,-1,7
 349 562 349 562 349 527 c 0,8,9
 349 485 349 485 321.5 458 c 128,-1,10
 294 431 294 431 252 431 c 0,11,12
 207 431 207 431 181.5 461 c 128,-1,13
 156 491 156 491 156 543 c 0,14,15
 156 580 156 580 167.5 618.5 c 128,-1,16
 179 657 179 657 205.5 689 c 128,-1,17
 232 721 232 721 274 745 c 128,-1,18
 316 769 316 769 377 777 c 1,19,-1
 394 690 l 1,0,1
EndSplineSet
EndChar

StartChar: quoteright
Encoding: 8217 8217 111
Width: 500
Flags: W
LayerCount: 2
Fore
SplineSet
156 535 m 1,0,1
 175 539 175 539 195 542 c 128,-1,2
 215 545 215 545 233 551.5 c 128,-1,3
 251 558 251 558 265 570 c 128,-1,4
 279 582 279 582 287 603 c 1,5,6
 246 607 246 607 223.5 635 c 128,-1,7
 201 663 201 663 201 698 c 0,8,9
 201 740 201 740 228.5 767 c 128,-1,10
 256 794 256 794 298 794 c 0,11,12
 343 794 343 794 368.5 763.5 c 128,-1,13
 394 733 394 733 394 681 c 0,14,15
 394 643 394 643 382 605.5 c 128,-1,16
 370 568 370 568 344 535.5 c 128,-1,17
 318 503 318 503 275.5 479.5 c 128,-1,18
 233 456 233 456 173 448 c 1,19,-1
 156 535 l 1,0,1
EndSplineSet
EndChar

StartChar: quotedblleft
Encoding: 8220 8220 112
Width: 500
Flags: W
LayerCount: 2
Fore
SplineSet
265 672 m 1,0,1
 244 668 244 668 224 663.5 c 128,-1,2
 204 659 204 659 187 652 c 128,-1,3
 170 645 170 645 156.5 632.5 c 128,-1,4
 143 620 143 620 135 599 c 1,5,6
 172 597 172 597 189 574 c 128,-1,7
 206 551 206 551 206 523 c 0,8,9
 206 485 206 485 181.5 465.5 c 128,-1,10
 157 446 157 446 127 446 c 0,11,12
 85 446 85 446 64.5 474 c 128,-1,13
 44 502 44 502 44 541 c 0,14,15
 44 572 44 572 57 607 c 128,-1,16
 70 642 70 642 95 671 c 128,-1,17
 120 700 120 700 157.5 720.5 c 128,-1,18
 195 741 195 741 245 744 c 1,19,-1
 265 672 l 1,0,1
518 672 m 1,20,21
 497 668 497 668 478 663.5 c 128,-1,22
 459 659 459 659 441.5 652 c 128,-1,23
 424 645 424 645 410.5 632.5 c 128,-1,24
 397 620 397 620 390 599 c 1,25,26
 426 597 426 597 443.5 574 c 128,-1,27
 461 551 461 551 461 523 c 0,28,29
 461 485 461 485 436 465.5 c 128,-1,30
 411 446 411 446 382 446 c 0,31,32
 340 446 340 446 319.5 474 c 128,-1,33
 299 502 299 502 299 541 c 0,34,35
 299 572 299 572 312 607 c 128,-1,36
 325 642 325 642 350 671 c 128,-1,37
 375 700 375 700 412.5 720.5 c 128,-1,38
 450 741 450 741 500 744 c 1,39,-1
 518 672 l 1,20,21
EndSplineSet
EndChar

StartChar: quotedblright
Encoding: 8221 8221 113
Width: 500
Flags: W
LayerCount: 2
Fore
SplineSet
286 554 m 1,0,1
 307 558 307 558 327 562.5 c 128,-1,2
 347 567 347 567 364 574 c 128,-1,3
 381 581 381 581 394.5 593.5 c 128,-1,4
 408 606 408 606 416 626 c 1,5,6
 379 628 379 628 362 651.5 c 128,-1,7
 345 675 345 675 345 703 c 0,8,9
 345 741 345 741 369 760.5 c 128,-1,10
 393 780 393 780 423 780 c 0,11,12
 465 780 465 780 486 752 c 128,-1,13
 507 724 507 724 507 685 c 0,14,15
 507 654 507 654 494 619 c 128,-1,16
 481 584 481 584 455.5 555 c 128,-1,17
 430 526 430 526 392.5 506 c 128,-1,18
 355 486 355 486 306 483 c 1,19,-1
 286 554 l 1,0,1
31 554 m 1,20,21
 52 558 52 558 72 562.5 c 128,-1,22
 92 567 92 567 109 574 c 128,-1,23
 126 581 126 581 139.5 593.5 c 128,-1,24
 153 606 153 606 161 626 c 1,25,26
 124 628 124 628 107 651.5 c 128,-1,27
 90 675 90 675 90 703 c 0,28,29
 90 741 90 741 114.5 760.5 c 128,-1,30
 139 780 139 780 168 780 c 0,31,32
 210 780 210 780 231 752 c 128,-1,33
 252 724 252 724 252 685 c 0,34,35
 252 654 252 654 239 619 c 128,-1,36
 226 584 226 584 201 555 c 128,-1,37
 176 526 176 526 138 506 c 128,-1,38
 100 486 100 486 51 483 c 1,39,-1
 31 554 l 1,20,21
EndSplineSet
EndChar

StartChar: bullet
Encoding: 8226 8226 114
Width: 500
Flags: W
LayerCount: 2
Fore
SplineSet
417 339 m 0,0,1
 417 308 417 308 406.5 280.5 c 128,-1,2
 396 253 396 253 377.5 231.5 c 128,-1,3
 359 210 359 210 331 197.5 c 128,-1,4
 303 185 303 185 270 185 c 0,5,6
 235 185 235 185 208 197.5 c 128,-1,7
 181 210 181 210 162.5 231.5 c 128,-1,8
 144 253 144 253 133.5 280.5 c 128,-1,9
 123 308 123 308 123 339 c 0,10,11
 123 369 123 369 133.5 397.5 c 128,-1,12
 144 426 144 426 162.5 447.5 c 128,-1,13
 181 469 181 469 208 481.5 c 128,-1,14
 235 494 235 494 270 494 c 0,15,16
 303 494 303 494 331 481.5 c 128,-1,17
 359 469 359 469 377.5 447.5 c 128,-1,18
 396 426 396 426 406.5 397.5 c 128,-1,19
 417 369 417 369 417 339 c 0,0,1
EndSplineSet
Substitution2: "'case' +WSdlh1tXfUQwf3UoMGuKv2V0MFcwX1tXX2IA lookup 17 +MLUw1jDGMPww1jDr" Bullet
EndChar

StartChar: endash
Encoding: 8211 8211 115
Width: 500
Flags: W
LayerCount: 2
Fore
SplineSet
58 338 m 1,0,-1
 483 338 l 1,1,-1
 483 239 l 1,2,-1
 58 239 l 1,3,-1
 58 338 l 1,0,-1
EndSplineSet
Substitution2: "'case' +WSdlh1tXfUQwf3UoMGuKv2V0MFcwX1tXX2IA lookup 17 +MLUw1jDGMPww1jDr" Endash
EndChar

StartChar: emdash
Encoding: 8212 8212 116
Width: 500
Flags: W
LayerCount: 2
Fore
SplineSet
0 338 m 1,0,-1
 540 338 l 1,1,-1
 540 239 l 1,2,-1
 0 239 l 1,3,-1
 0 338 l 1,0,-1
EndSplineSet
Substitution2: "'case' +WSdlh1tXfUQwf3UoMGuKv2V0MFcwX1tXX2IA lookup 17 +MLUw1jDGMPww1jDr" Emdash
EndChar

StartChar: tilde
Encoding: 732 732 117
Width: 500
Flags: W
LayerCount: 2
Fore
SplineSet
447 684 m 1,0,1
 442 669 442 669 431.5 652 c 128,-1,2
 421 635 421 635 406.5 620 c 128,-1,3
 392 605 392 605 373.5 595 c 128,-1,4
 355 585 355 585 334 585 c 0,5,6
 317 585 317 585 302 590.5 c 128,-1,7
 287 596 287 596 272.5 602 c 128,-1,8
 258 608 258 608 243.5 613.5 c 128,-1,9
 229 619 229 619 213 619 c 0,10,11
 195 619 195 619 182.5 606.5 c 128,-1,12
 170 594 170 594 161 578 c 1,13,-1
 97 620 l 1,14,15
 102 635 102 635 112.5 652.5 c 128,-1,16
 123 670 123 670 137.5 685 c 128,-1,17
 152 700 152 700 170.5 709.5 c 128,-1,18
 189 719 189 719 212 719 c 0,19,20
 229 719 229 719 243.5 713.5 c 128,-1,21
 258 708 258 708 272.5 702.5 c 128,-1,22
 287 697 287 697 301 691.5 c 128,-1,23
 315 686 315 686 332 686 c 0,24,25
 350 686 350 686 363 698 c 128,-1,26
 376 710 376 710 383 726 c 1,27,-1
 447 684 l 1,0,1
EndSplineSet
EndChar

StartChar: trademark
Encoding: 8482 8482 118
Width: 500
Flags: W
LayerCount: 2
Fore
SplineSet
352 460 m 1,0,-1
 310 585 l 1,1,2
 308 563 308 563 307 531 c 128,-1,3
 306 499 306 499 305.5 468 c 128,-1,4
 305 437 305 437 304 413.5 c 128,-1,5
 303 390 303 390 303 386 c 1,6,-1
 241 386 l 1,7,8
 244 440 244 440 247.5 479.5 c 128,-1,9
 251 519 251 519 254.5 551.5 c 128,-1,10
 258 584 258 584 262 611.5 c 128,-1,11
 266 639 266 639 271 669 c 1,12,-1
 329 669 l 1,13,-1
 377 522 l 1,14,-1
 428 669 l 1,15,-1
 486 669 l 1,16,17
 491 640 491 640 495 611.5 c 128,-1,18
 499 583 499 583 502 550.5 c 128,-1,19
 505 518 505 518 508 478 c 128,-1,20
 511 438 511 438 514 386 c 1,21,-1
 451 386 l 1,22,23
 451 390 451 390 450.5 413.5 c 128,-1,24
 450 437 450 437 449.5 468 c 128,-1,25
 449 499 449 499 448 531.5 c 128,-1,26
 447 564 447 564 446 585 c 1,27,-1
 401 460 l 1,28,-1
 352 460 l 1,0,-1
220 669 m 1,29,-1
 220 615 l 1,30,-1
 151 615 l 1,31,-1
 151 386 l 1,32,-1
 89 386 l 1,33,-1
 89 615 l 1,34,-1
 19 615 l 1,35,-1
 19 669 l 1,36,-1
 220 669 l 1,29,-1
EndSplineSet
EndChar

StartChar: scaron
Encoding: 353 353 119
Width: 500
Flags: W
LayerCount: 2
Fore
SplineSet
246 100 m 0,0,1
 295 100 295 100 321 107 c 128,-1,2
 347 114 347 114 347 136 c 0,3,4
 347 150 347 150 338.5 160 c 128,-1,5
 330 170 330 170 315.5 177 c 128,-1,6
 301 184 301 184 282.5 190.5 c 128,-1,7
 264 197 264 197 243 203 c 0,8,9
 214 212 214 212 183.5 223 c 128,-1,10
 153 234 153 234 128.5 251.5 c 128,-1,11
 104 269 104 269 87.5 295.5 c 128,-1,12
 71 322 71 322 71 362 c 0,13,14
 71 394 71 394 83.5 422.5 c 128,-1,15
 96 451 96 451 122.5 473.5 c 128,-1,16
 149 496 149 496 190 508.5 c 128,-1,17
 231 521 231 521 288 521 c 0,18,19
 338 521 338 521 380.5 513 c 128,-1,20
 423 505 423 505 455 491 c 1,21,-1
 434 379 l 1,22,23
 416 384 416 384 377 396.5 c 128,-1,24
 338 409 338 409 289 409 c 0,25,26
 238 409 238 409 220.5 396.5 c 128,-1,27
 203 384 203 384 203 370 c 0,28,29
 203 358 203 358 211 349 c 128,-1,30
 219 340 219 340 232.5 332.5 c 128,-1,31
 246 325 246 325 264 318 c 128,-1,32
 282 311 282 311 302 305 c 0,33,34
 331 295 331 295 362.5 283 c 128,-1,35
 394 271 394 271 419.5 253 c 128,-1,36
 445 235 445 235 461 207.5 c 128,-1,37
 477 180 477 180 477 140 c 0,38,39
 477 109 477 109 465.5 81 c 128,-1,40
 454 53 454 53 426.5 32.5 c 128,-1,41
 399 12 399 12 354.5 0 c 128,-1,42
 310 -12 310 -12 245 -12 c 0,43,44
 179 -12 179 -12 132.5 3 c 128,-1,45
 86 18 86 18 58 30 c 1,46,-1
 79 141 l 1,47,48
 117 126 117 126 159.5 113 c 128,-1,49
 202 100 202 100 246 100 c 0,0,1
121 683 m 1,50,-1
 174 746 l 1,51,-1
 270 672 l 1,52,-1
 366 746 l 1,53,-1
 421 683 l 1,54,-1
 270 551 l 1,55,-1
 121 683 l 1,50,-1
EndSplineSet
Substitution2: "'case' +WSdlh1tXfUQwf3UoMGuKv2V0MFcwX1tXX2IA lookup 18 +MLUw1jDGMPww1jDr" Scaron
EndChar

StartChar: guilsinglright
Encoding: 8250 8250 120
Width: 500
Flags: W
LayerCount: 2
Fore
SplineSet
167 455 m 1,0,-1
 276 505 l 1,1,-1
 435 274 l 1,2,-1
 276 42 l 1,3,-1
 167 94 l 1,4,-1
 266 274 l 1,5,-1
 167 455 l 1,0,-1
EndSplineSet
Substitution2: "'case' +WSdlh1tXfUQwf3UoMGuKv2V0MFcwX1tXX2IA lookup 17 +MLUw1jDGMPww1jDr" Guilsinglright
EndChar

StartChar: oe
Encoding: 339 339 121
Width: 500
Flags: W
LayerCount: 2
Fore
SplineSet
382 415 m 128,-1,1
 368 415 368 415 359 404.5 c 128,-1,2
 350 394 350 394 344 378 c 128,-1,3
 338 362 338 362 335.5 342 c 128,-1,4
 333 322 333 322 333 302 c 1,5,-1
 428 302 l 1,6,7
 428 323 428 323 425.5 343.5 c 128,-1,8
 423 364 423 364 418.5 379.5 c 128,-1,9
 414 395 414 395 405 405 c 128,-1,0
 396 415 396 415 382 415 c 128,-1,1
125 255 m 0,10,11
 125 169 125 169 141 134 c 128,-1,12
 157 99 157 99 178.5 99 c 128,-1,13
 200 99 200 99 215 133 c 128,-1,14
 230 167 230 167 230 255 c 0,15,16
 230 341 230 341 214.5 375.5 c 128,-1,17
 199 410 199 410 177.5 410 c 128,-1,18
 156 410 156 410 140.5 376 c 128,-1,19
 125 342 125 342 125 255 c 0,10,11
24 255 m 0,20,21
 24 391 24 391 65.5 456 c 128,-1,22
 107 521 107 521 178 521 c 0,23,24
 208 521 208 521 237 503 c 128,-1,25
 266 485 266 485 284 450 c 1,26,27
 305 483 305 483 329.5 502 c 128,-1,28
 354 521 354 521 382 521 c 0,29,30
 413 521 413 521 440 508 c 128,-1,31
 467 495 467 495 486 465.5 c 128,-1,32
 505 436 505 436 516 388.5 c 128,-1,33
 527 341 527 341 527 272 c 0,34,35
 527 259 527 259 526.5 239 c 128,-1,36
 526 219 526 219 525 211 c 1,37,-1
 332 211 l 1,38,39
 333 181 333 181 340.5 159.5 c 128,-1,40
 348 138 348 138 360 124.5 c 128,-1,41
 372 111 372 111 387 105 c 128,-1,42
 402 99 402 99 419 99 c 0,43,44
 438 99 438 99 457 104 c 128,-1,45
 476 109 476 109 491 118 c 1,46,-1
 511 13 l 1,47,48
 486 0 486 0 461.5 -6 c 128,-1,49
 437 -12 437 -12 405 -12 c 0,50,51
 361 -12 361 -12 331.5 8 c 128,-1,52
 302 28 302 28 284 56 c 1,53,54
 268 28 268 28 242 8 c 128,-1,55
 216 -12 216 -12 178 -12 c 0,56,57
 99 -12 99 -12 61.5 56 c 128,-1,58
 24 124 24 124 24 255 c 0,20,21
EndSplineSet
Substitution2: "'case' +WSdlh1tXfUQwf3UoMGuKv2V0MFcwX1tXX2IA lookup 18 +MLUw1jDGMPww1jDr" OE
EndChar

StartChar: Ydieresis
Encoding: 376 376 122
Width: 500
Flags: W
LayerCount: 2
Fore
SplineSet
274 363 m 1,0,1
 286 388 286 388 302 425.5 c 128,-1,2
 318 463 318 463 333.5 505.5 c 128,-1,3
 349 548 349 548 363.5 591 c 128,-1,4
 378 634 378 634 390 669 c 1,5,-1
 527 669 l 1,6,7
 506 614 506 614 485.5 562 c 128,-1,8
 465 510 465 510 442.5 459 c 128,-1,9
 420 408 420 408 394 358 c 128,-1,10
 368 308 368 308 338 255 c 1,11,-1
 338 0 l 1,12,-1
 204 0 l 1,13,-1
 204 254 l 1,14,15
 145 359 145 359 100 458.5 c 128,-1,16
 55 558 55 558 14 669 c 1,17,-1
 157 669 l 1,18,19
 182 591 182 591 212 510.5 c 128,-1,20
 242 430 242 430 274 363 c 1,0,1
379 731 m 128,-1,22
 349 731 349 731 327 750 c 128,-1,23
 305 769 305 769 305 803.5 c 128,-1,24
 305 838 305 838 327 857.5 c 128,-1,25
 349 877 349 877 379 877 c 128,-1,26
 409 877 409 877 431.5 857.5 c 128,-1,27
 454 838 454 838 454 803.5 c 128,-1,28
 454 769 454 769 431.5 750 c 128,-1,21
 409 731 409 731 379 731 c 128,-1,22
164 731 m 0,29,30
 134 731 134 731 112 750 c 128,-1,31
 90 769 90 769 90 803.5 c 128,-1,32
 90 838 90 838 112 857.5 c 128,-1,33
 134 877 134 877 164 877 c 0,34,35
 193 877 193 877 216 857.5 c 128,-1,36
 239 838 239 838 239 803.5 c 128,-1,37
 239 769 239 769 216 750 c 128,-1,38
 193 731 193 731 164 731 c 0,29,30
EndSplineSet
EndChar

StartChar: exclamdown
Encoding: 161 161 124
Width: 500
Flags: W
LayerCount: 2
Fore
SplineSet
180 414 m 128,-1,1
 180 456 180 456 207.5 479 c 128,-1,2
 235 502 235 502 270 502 c 128,-1,3
 305 502 305 502 332.5 479 c 128,-1,4
 360 456 360 456 360 414 c 128,-1,5
 360 372 360 372 332.5 348.5 c 128,-1,6
 305 325 305 325 270 325 c 128,-1,7
 235 325 235 325 207.5 348.5 c 128,-1,0
 180 372 180 372 180 414 c 128,-1,1
193 -1 m 2,8,9
 193 38 193 38 195 68.5 c 128,-1,10
 197 99 197 99 199.5 127.5 c 128,-1,11
 202 156 202 156 206 184 c 128,-1,12
 210 212 210 212 214 246 c 1,13,-1
 324 246 l 1,14,15
 328 211 328 211 332.5 183.5 c 128,-1,16
 337 156 337 156 340 127.5 c 128,-1,17
 343 99 343 99 345 68.5 c 128,-1,18
 347 38 347 38 347 -1 c 2,19,-1
 347 -178 l 1,20,-1
 193 -178 l 1,21,-1
 193 -1 l 2,8,9
EndSplineSet
Substitution2: "'case' +WSdlh1tXfUQwf3UoMGuKv2V0MFcwX1tXX2IA lookup 17 +MLUw1jDGMPww1jDr" Exclamdown
EndChar

StartChar: cent
Encoding: 162 162 125
Width: 500
Flags: W
LayerCount: 2
Fore
SplineSet
50 283 m 0,0,1
 50 375 50 375 98 441.5 c 128,-1,2
 146 508 146 508 249 529 c 1,3,-1
 249 667 l 1,4,-1
 383 667 l 1,5,-1
 383 535 l 1,6,7
 409 533 409 533 433.5 526 c 128,-1,8
 458 519 458 519 483 510 c 1,9,-1
 455 397 l 1,10,11
 434 405 434 405 408.5 411 c 128,-1,12
 383 417 383 417 345 417 c 0,13,14
 255 417 255 417 220.5 383 c 128,-1,15
 186 349 186 349 186 283 c 0,16,17
 186 218 186 218 223 183.5 c 128,-1,18
 260 149 260 149 350 149 c 0,19,20
 381 149 381 149 413.5 153.5 c 128,-1,21
 446 158 446 158 473 166 c 1,22,-1
 491 52 l 1,23,24
 470 43 470 43 443.5 37.5 c 128,-1,25
 417 32 417 32 383 30 c 1,26,-1
 383 -105 l 1,27,-1
 249 -105 l 1,28,-1
 249 36 l 1,29,30
 197 46 197 46 159.5 68.5 c 128,-1,31
 122 91 122 91 97.5 123.5 c 128,-1,32
 73 156 73 156 61.5 197 c 128,-1,33
 50 238 50 238 50 283 c 0,0,1
EndSplineSet
EndChar

StartChar: sterling
Encoding: 163 163 126
Width: 500
Flags: W
LayerCount: 2
Fore
SplineSet
253 375 m 1,0,-1
 413 375 l 1,1,-1
 413 266 l 1,2,-1
 253 266 l 1,3,4
 253 249 253 249 252 228 c 128,-1,5
 251 207 251 207 249 186 c 128,-1,6
 247 165 247 165 245 145.5 c 128,-1,7
 243 126 243 126 240 110 c 1,8,-1
 491 110 l 1,9,-1
 491 0 l 1,10,-1
 94 0 l 1,11,12
 111 78 111 78 116.5 144.5 c 128,-1,13
 122 211 122 211 124 266 c 1,14,-1
 41 266 l 1,15,-1
 41 375 l 1,16,-1
 124 375 l 1,17,-1
 124 431 l 2,18,19
 124 503 124 503 140 551 c 128,-1,20
 156 599 156 599 184 628.5 c 128,-1,21
 212 658 212 658 252.5 669.5 c 128,-1,22
 293 681 293 681 343 681 c 0,23,24
 381 681 381 681 415 673.5 c 128,-1,25
 449 666 449 666 482 652 c 1,26,-1
 446 546 l 1,27,28
 423 558 423 558 403.5 562.5 c 128,-1,29
 384 567 384 567 356 568 c 0,30,31
 333 568 333 568 314 563 c 128,-1,32
 295 558 295 558 281.5 544.5 c 128,-1,33
 268 531 268 531 260.5 508.5 c 128,-1,34
 253 486 253 486 253 450 c 2,35,-1
 253 375 l 1,0,-1
EndSplineSet
EndChar

StartChar: currency
Encoding: 164 164 127
Width: 500
Flags: W
LayerCount: 2
Fore
SplineSet
350 335 m 128,-1,1
 350 376 350 376 326.5 397.5 c 128,-1,2
 303 419 303 419 271 419 c 128,-1,3
 239 419 239 419 215.5 397.5 c 128,-1,4
 192 376 192 376 192 335 c 128,-1,5
 192 294 192 294 215.5 272.5 c 128,-1,6
 239 251 239 251 271 251 c 128,-1,7
 303 251 303 251 326.5 272.5 c 128,-1,0
 350 294 350 294 350 335 c 128,-1,1
271 525 m 0,8,9
 319 525 319 525 360 508 c 1,10,-1
 431 576 l 1,11,-1
 521 488 l 1,12,-1
 451 421 l 1,13,14
 472 382 472 382 472 334.5 c 128,-1,15
 472 287 472 287 451 248 c 1,16,-1
 521 181 l 1,17,-1
 430 93 l 1,18,-1
 359 162 l 1,19,20
 338 152 338 152 317 148.5 c 128,-1,21
 296 145 296 145 271 145 c 128,-1,22
 246 145 246 145 225 148.5 c 128,-1,23
 204 152 204 152 183 162 c 1,24,-1
 111 94 l 1,25,-1
 22 181 l 1,26,-1
 91 248 l 1,27,28
 70 285 70 285 70 334.5 c 128,-1,29
 70 384 70 384 91 421 c 1,30,-1
 22 488 l 1,31,-1
 112 577 l 1,32,-1
 184 508 l 1,33,34
 222 525 222 525 271 525 c 0,8,9
EndSplineSet
EndChar

StartChar: yen
Encoding: 165 165 128
Width: 500
Flags: W
LayerCount: 2
Fore
SplineSet
484 112 m 1,0,-1
 338 112 l 1,1,-1
 338 0 l 1,2,-1
 204 0 l 1,3,-1
 204 112 l 1,4,-1
 57 112 l 1,5,-1
 57 203 l 1,6,-1
 204 203 l 1,7,-1
 204 270 l 1,8,-1
 57 270 l 1,9,-1
 57 361 l 1,10,-1
 166 361 l 1,11,12
 145 398 145 398 123.5 438 c 128,-1,13
 102 478 102 478 81 518.5 c 128,-1,14
 60 559 60 559 42.5 597.5 c 128,-1,15
 25 636 25 636 14 669 c 1,16,-1
 157 669 l 1,17,18
 180 600 180 600 207 529.5 c 128,-1,19
 234 459 234 459 273 381 c 1,20,21
 350 534 350 534 390 669 c 1,22,-1
 527 669 l 1,23,24
 515 638 515 638 499 599.5 c 128,-1,25
 483 561 483 561 464 519.5 c 128,-1,26
 445 478 445 478 424 437.5 c 128,-1,27
 403 397 403 397 382 361 c 1,28,-1
 484 361 l 1,29,-1
 484 270 l 1,30,-1
 338 270 l 1,31,-1
 338 203 l 1,32,-1
 484 203 l 1,33,-1
 484 112 l 1,0,-1
EndSplineSet
EndChar

StartChar: brokenbar
Encoding: 166 166 129
Width: 500
Flags: W
LayerCount: 2
Fore
SplineSet
204 755 m 1,0,-1
 338 755 l 1,1,-1
 338 373 l 1,2,-1
 204 373 l 1,3,-1
 204 755 l 1,0,-1
204 204 m 1,4,-1
 338 204 l 1,5,-1
 338 -178 l 1,6,-1
 204 -178 l 1,7,-1
 204 204 l 1,4,-1
EndSplineSet
EndChar

StartChar: section
Encoding: 167 167 130
Width: 500
Flags: W
LayerCount: 2
Fore
SplineSet
221 383 m 1,0,1
 202 368 202 368 189.5 346 c 128,-1,2
 177 324 177 324 177 308 c 0,3,4
 177 290 177 290 182 275.5 c 128,-1,5
 187 261 187 261 202.5 249.5 c 128,-1,6
 218 238 218 238 246.5 225.5 c 128,-1,7
 275 213 275 213 324 198 c 1,8,9
 343 214 343 214 355 235.5 c 128,-1,10
 367 257 367 257 367 273 c 0,11,12
 367 292 367 292 361.5 306 c 128,-1,13
 356 320 356 320 340 331 c 128,-1,14
 324 342 324 342 295 354.5 c 128,-1,15
 266 367 266 367 221 383 c 1,0,1
89 43 m 1,16,17
 111 34 111 34 130 28 c 128,-1,18
 149 22 149 22 168.5 17 c 128,-1,19
 188 12 188 12 209.5 10 c 128,-1,20
 231 8 231 8 257 8 c 0,21,22
 293 8 293 8 311.5 20 c 128,-1,23
 330 32 330 32 330 53 c 0,24,25
 330 70 330 70 310.5 83.5 c 128,-1,26
 291 97 291 97 242 112 c 1,27,28
 204 125 204 125 171 139.5 c 128,-1,29
 138 154 138 154 113.5 174.5 c 128,-1,30
 89 195 89 195 74 222 c 128,-1,31
 59 249 59 249 59 287 c 0,32,33
 59 326 59 326 76.5 360.5 c 128,-1,34
 94 395 94 395 135 434 c 1,35,36
 114 452 114 452 102 476 c 128,-1,37
 90 500 90 500 90 527 c 0,38,39
 90 602 90 602 144 643.5 c 128,-1,40
 198 685 198 685 299 685 c 0,41,42
 342 685 342 685 388.5 674.5 c 128,-1,43
 435 664 435 664 473 649 c 1,44,-1
 437 543 l 1,45,46
 407 555 407 555 374 563 c 128,-1,47
 341 571 341 571 298 571 c 0,48,49
 254 571 254 571 242 558 c 128,-1,50
 230 545 230 545 230 529 c 0,51,52
 230 510 230 510 245.5 497 c 128,-1,53
 261 484 261 484 307 471 c 0,54,55
 485 419 485 419 485 297 c 0,56,57
 485 256 485 256 468 225.5 c 128,-1,58
 451 195 451 195 417 163 c 1,59,60
 444 138 444 138 457.5 114 c 128,-1,61
 471 90 471 90 471 52 c 0,62,63
 471 -29 471 -29 417 -67.5 c 128,-1,64
 363 -106 363 -106 265 -106 c 0,65,66
 190 -106 190 -106 138 -93 c 128,-1,67
 86 -80 86 -80 53 -63 c 1,68,-1
 89 43 l 1,16,17
EndSplineSet
EndChar

StartChar: dieresis
Encoding: 168 168 131
Width: 500
Flags: W
LayerCount: 2
Fore
SplineSet
379 581 m 128,-1,1
 349 581 349 581 327 600 c 128,-1,2
 305 619 305 619 305 653.5 c 128,-1,3
 305 688 305 688 327 707.5 c 128,-1,4
 349 727 349 727 379 727 c 128,-1,5
 409 727 409 727 431.5 707.5 c 128,-1,6
 454 688 454 688 454 653.5 c 128,-1,7
 454 619 454 619 431.5 600 c 128,-1,0
 409 581 409 581 379 581 c 128,-1,1
164 581 m 0,8,9
 134 581 134 581 112 600 c 128,-1,10
 90 619 90 619 90 653.5 c 128,-1,11
 90 688 90 688 112 707.5 c 128,-1,12
 134 727 134 727 164 727 c 0,13,14
 193 727 193 727 216 707.5 c 128,-1,15
 239 688 239 688 239 653.5 c 128,-1,16
 239 619 239 619 216 600 c 128,-1,17
 193 581 193 581 164 581 c 0,8,9
EndSplineSet
EndChar

StartChar: copyright
Encoding: 169 169 132
Width: 500
Flags: W
LayerCount: 2
Fore
SplineSet
270 55 m 128,-1,1
 302 55 302 55 332.5 67.5 c 128,-1,2
 363 80 363 80 387 105 c 128,-1,3
 411 130 411 130 426 166.5 c 128,-1,4
 441 203 441 203 441 251 c 0,5,6
 441 297 441 297 426 333 c 128,-1,7
 411 369 411 369 387.5 394 c 128,-1,8
 364 419 364 419 333 432 c 128,-1,9
 302 445 302 445 270 445 c 128,-1,10
 238 445 238 445 207.5 432 c 128,-1,11
 177 419 177 419 153 394 c 128,-1,12
 129 369 129 369 114 333 c 128,-1,13
 99 297 99 297 99 251 c 0,14,15
 99 203 99 203 114 166.5 c 128,-1,16
 129 130 129 130 153 105 c 128,-1,17
 177 80 177 80 207.5 67.5 c 128,-1,0
 238 55 238 55 270 55 c 128,-1,1
27 249.5 m 128,-1,19
 27 315 27 315 47.5 365 c 128,-1,20
 68 415 68 415 102 448 c 128,-1,21
 136 481 136 481 180 497 c 128,-1,22
 224 513 224 513 271 513 c 0,23,24
 317 513 317 513 361.5 497 c 128,-1,25
 406 481 406 481 440 448 c 128,-1,26
 474 415 474 415 494.5 365 c 128,-1,27
 515 315 515 315 515 249.5 c 128,-1,28
 515 184 515 184 494.5 134.5 c 128,-1,29
 474 85 474 85 440 52 c 128,-1,30
 406 19 406 19 362 2.5 c 128,-1,31
 318 -14 318 -14 271 -14 c 0,32,33
 223 -14 223 -14 179.5 2.5 c 128,-1,34
 136 19 136 19 102 52 c 128,-1,35
 68 85 68 85 47.5 134.5 c 128,-1,18
 27 184 27 184 27 249.5 c 128,-1,19
353 130 m 1,36,37
 335 121 335 121 315 116.5 c 128,-1,38
 295 112 295 112 276 112 c 0,39,40
 245 112 245 112 222 123.5 c 128,-1,41
 199 135 199 135 183.5 154 c 128,-1,42
 168 173 168 173 160.5 197 c 128,-1,43
 153 221 153 221 153 247 c 128,-1,44
 153 273 153 273 160.5 298 c 128,-1,45
 168 323 168 323 183.5 342.5 c 128,-1,46
 199 362 199 362 222 374 c 128,-1,47
 245 386 245 386 278 386 c 0,48,49
 295 386 295 386 314 383 c 128,-1,50
 333 380 333 380 351 372 c 1,51,-1
 329 313 l 1,52,53
 317 318 317 318 305.5 320 c 128,-1,54
 294 322 294 322 284 322 c 0,55,56
 249 322 249 322 234.5 300.5 c 128,-1,57
 220 279 220 279 220 252 c 0,58,59
 220 217 220 217 238 197 c 128,-1,60
 256 177 256 177 288 177 c 0,61,62
 298 177 298 177 310.5 179 c 128,-1,63
 323 181 323 181 335 187 c 1,64,-1
 353 130 l 1,36,37
EndSplineSet
EndChar

StartChar: ordfeminine
Encoding: 170 170 133
Width: 500
Flags: W
LayerCount: 2
Fore
SplineSet
274 683 m 0,0,1
 320 683 320 683 351.5 672.5 c 128,-1,2
 383 662 383 662 402 643 c 128,-1,3
 421 624 421 624 429 596.5 c 128,-1,4
 437 569 437 569 437 536 c 2,5,-1
 437 316 l 1,6,7
 415 311 415 311 373.5 304 c 128,-1,8
 332 297 332 297 275 297 c 0,9,10
 199 297 199 297 155.5 324.5 c 128,-1,11
 112 352 112 352 112 419 c 0,12,13
 112 451 112 451 125 473.5 c 128,-1,14
 138 496 138 496 160.5 509 c 128,-1,15
 183 522 183 522 212 528 c 128,-1,16
 241 534 241 534 273 534 c 0,17,18
 292 534 292 534 307.5 531.5 c 128,-1,19
 323 529 323 529 335 527 c 1,20,-1
 335 537 l 2,21,22
 335 564 335 564 318.5 579 c 128,-1,23
 302 594 302 594 262 594 c 0,24,25
 235 594 235 594 208 590 c 128,-1,26
 181 586 181 586 162 580 c 1,27,-1
 148 665 l 1,28,29
 166 670 166 670 202 676.5 c 128,-1,30
 238 683 238 683 274 683 c 0,0,1
283 379 m 0,31,32
 298 379 298 379 312 380 c 128,-1,33
 326 381 326 381 335 382 c 1,34,-1
 335 457 l 1,35,36
 329 459 329 459 316 460.5 c 128,-1,37
 303 462 303 462 293 462 c 0,38,39
 264 462 264 462 242 454 c 128,-1,40
 220 446 220 446 220 421 c 128,-1,41
 220 396 220 396 237.5 387.5 c 128,-1,42
 255 379 255 379 283 379 c 0,31,32
EndSplineSet
EndChar

StartChar: guillemotleft
Encoding: 171 171 134
Width: 500
Flags: W
LayerCount: 2
Fore
SplineSet
416 499 m 1,0,-1
 487 456 l 1,1,-1
 387 275 l 1,2,-1
 487 95 l 1,3,-1
 418 50 l 1,4,-1
 271 275 l 1,5,-1
 416 499 l 1,0,-1
201 499 m 1,6,-1
 271 456 l 1,7,-1
 170 275 l 1,8,-1
 271 95 l 1,9,-1
 203 50 l 1,10,-1
 54 275 l 1,11,-1
 201 499 l 1,6,-1
EndSplineSet
Substitution2: "'case' +WSdlh1tXfUQwf3UoMGuKv2V0MFcwX1tXX2IA lookup 17 +MLUw1jDGMPww1jDr" Guillemotleft
EndChar

StartChar: logicalnot
Encoding: 172 172 135
Width: 500
Flags: W
LayerCount: 2
Fore
SplineSet
484 45 m 1,0,-1
 370 45 l 1,1,-1
 370 282 l 1,2,-1
 49 282 l 1,3,-1
 49 392 l 1,4,-1
 484 392 l 1,5,-1
 484 45 l 1,0,-1
EndSplineSet
EndChar

StartChar: uni00AD
Encoding: 173 173 136
Width: 500
Flags: W
LayerCount: 2
Fore
SplineSet
122 342 m 1,0,-1
 418 342 l 1,1,-1
 418 212 l 1,2,-1
 122 212 l 1,3,-1
 122 342 l 1,0,-1
EndSplineSet
EndChar

StartChar: registered
Encoding: 174 174 137
Width: 500
Flags: W
LayerCount: 2
Fore
SplineSet
270 55 m 128,-1,1
 302 55 302 55 332.5 67.5 c 128,-1,2
 363 80 363 80 387 105 c 128,-1,3
 411 130 411 130 426 166.5 c 128,-1,4
 441 203 441 203 441 251 c 0,5,6
 441 297 441 297 426 333 c 128,-1,7
 411 369 411 369 387.5 394 c 128,-1,8
 364 419 364 419 333 432 c 128,-1,9
 302 445 302 445 270 445 c 128,-1,10
 238 445 238 445 207.5 432 c 128,-1,11
 177 419 177 419 153 394 c 128,-1,12
 129 369 129 369 114 333 c 128,-1,13
 99 297 99 297 99 251 c 0,14,15
 99 203 99 203 114 166.5 c 128,-1,16
 129 130 129 130 153 105 c 128,-1,17
 177 80 177 80 207.5 67.5 c 128,-1,0
 238 55 238 55 270 55 c 128,-1,1
27 249.5 m 128,-1,19
 27 315 27 315 47.5 365 c 128,-1,20
 68 415 68 415 102 448 c 128,-1,21
 136 481 136 481 180 497 c 128,-1,22
 224 513 224 513 271 513 c 0,23,24
 317 513 317 513 361.5 497 c 128,-1,25
 406 481 406 481 440 448 c 128,-1,26
 474 415 474 415 494.5 365 c 128,-1,27
 515 315 515 315 515 249.5 c 128,-1,28
 515 184 515 184 494.5 134.5 c 128,-1,29
 474 85 474 85 440 52 c 128,-1,30
 406 19 406 19 362 2.5 c 128,-1,31
 318 -14 318 -14 271 -14 c 0,32,33
 223 -14 223 -14 179.5 2.5 c 128,-1,34
 136 19 136 19 102 52 c 128,-1,35
 68 85 68 85 47.5 134.5 c 128,-1,18
 27 184 27 184 27 249.5 c 128,-1,19
238 256 m 1,36,-1
 257 256 l 2,37,38
 286 256 286 256 300 263.5 c 128,-1,39
 314 271 314 271 314 296 c 0,40,41
 314 318 314 318 297 325 c 128,-1,42
 280 332 280 332 261 332 c 0,43,44
 255 332 255 332 249 331 c 128,-1,45
 243 330 243 330 238 329 c 1,46,-1
 238 256 l 1,36,-1
238 202 m 1,47,-1
 238 119 l 1,48,-1
 179 119 l 1,49,-1
 179 376 l 1,50,51
 194 380 194 380 212.5 383 c 128,-1,52
 231 386 231 386 252 386 c 0,53,54
 314 386 314 386 343.5 362 c 128,-1,55
 373 338 373 338 373 293 c 0,56,57
 373 241 373 241 329 216 c 1,58,59
 342 198 342 198 356 172.5 c 128,-1,60
 370 147 370 147 384 119 c 1,61,-1
 323 119 l 1,62,63
 309 145 309 145 298 165 c 128,-1,64
 287 185 287 185 276 202 c 1,65,-1
 238 202 l 1,47,-1
EndSplineSet
EndChar

StartChar: macron
Encoding: 175 175 138
Width: 500
Flags: W
LayerCount: 2
Fore
SplineSet
117 699 m 1,0,-1
 428 699 l 1,1,-1
 428 605 l 1,2,-1
 117 605 l 1,3,-1
 117 699 l 1,0,-1
EndSplineSet
EndChar

StartChar: degree
Encoding: 176 176 139
Width: 500
Flags: W
LayerCount: 2
Fore
SplineSet
272 545 m 128,-1,1
 297 545 297 545 313.5 560 c 128,-1,2
 330 575 330 575 330 605 c 128,-1,3
 330 635 330 635 313.5 649 c 128,-1,4
 297 663 297 663 272 663 c 128,-1,5
 247 663 247 663 230 649 c 128,-1,6
 213 635 213 635 213 605 c 128,-1,7
 213 575 213 575 230 560 c 128,-1,0
 247 545 247 545 272 545 c 128,-1,1
272 754 m 0,8,9
 305 754 305 754 334 743.5 c 128,-1,10
 363 733 363 733 383.5 713.5 c 128,-1,11
 404 694 404 694 416 666 c 128,-1,12
 428 638 428 638 428 603.5 c 128,-1,13
 428 569 428 569 416 541.5 c 128,-1,14
 404 514 404 514 383.5 494.5 c 128,-1,15
 363 475 363 475 334.5 465 c 128,-1,16
 306 455 306 455 272 455 c 0,17,18
 201 455 201 455 159 494.5 c 128,-1,19
 117 534 117 534 117 604 c 128,-1,20
 117 674 117 674 160 714 c 128,-1,21
 203 754 203 754 272 754 c 0,8,9
EndSplineSet
EndChar

StartChar: plusminus
Encoding: 177 177 140
Width: 500
Flags: W
LayerCount: 2
Fore
SplineSet
43 434 m 1,0,-1
 213 434 l 1,1,-1
 213 603 l 1,2,-1
 327 603 l 1,3,-1
 327 434 l 1,4,-1
 497 434 l 1,5,-1
 497 324 l 1,6,-1
 327 324 l 1,7,-1
 327 154 l 1,8,-1
 213 154 l 1,9,-1
 213 324 l 1,10,-1
 43 324 l 1,11,-1
 43 434 l 1,0,-1
43 110 m 1,12,-1
 497 110 l 1,13,-1
 497 0 l 1,14,-1
 43 0 l 1,15,-1
 43 110 l 1,12,-1
EndSplineSet
EndChar

StartChar: twosuperior
Encoding: 178 178 141
Width: 500
Flags: W
LayerCount: 2
Fore
SplineSet
407 565 m 0,0,1
 407 523 407 523 382 494 c 128,-1,2
 357 465 357 465 328 441 c 0,3,4
 311 427 311 427 294.5 410.5 c 128,-1,5
 278 394 278 394 266 379 c 1,6,-1
 417 379 l 1,7,-1
 417 292 l 1,8,-1
 139 292 l 1,9,-1
 139 319 l 2,10,11
 139 367 139 367 164.5 404.5 c 128,-1,12
 190 442 190 442 239 483 c 0,13,14
 266 506 266 506 281.5 522 c 128,-1,15
 297 538 297 538 297 555 c 0,16,17
 297 570 297 570 288.5 579 c 128,-1,18
 280 588 280 588 264 588 c 0,19,20
 236 588 236 588 212 577 c 128,-1,21
 188 566 188 566 172 552 c 1,22,-1
 122 626 l 1,23,24
 147 648 147 648 186 666 c 128,-1,25
 225 684 225 684 268 684 c 0,26,27
 344 684 344 684 375.5 651 c 128,-1,28
 407 618 407 618 407 565 c 0,0,1
EndSplineSet
Substitution2: "+U1h9FH9uY9sA lookup 22 +MLUw1jDGMPww1jDr" twoinferior
Substitution2: "'sinf' +edFbZmWHcy51KE4LMGQwTWWHW1cA lookup 11 +MLUw1jDGMPww1jDr" two.sinf
Substitution2: "'subs' +TgswZDBNZYdbVwAA lookup 10 +MLUw1jDGMPww1jDr" two.sinf
Substitution2: "'sups' +TgowZDBNZYdbVwAA lookup 9 +MLUw1jDGMPww1jDr" two.sups
Substitution2: "'dnom' +UgZrzQAA lookup 8 +MLUw1jDGMPww1jDr" twoinferior
EndChar

StartChar: threesuperior
Encoding: 179 179 142
Width: 500
Flags: W
LayerCount: 2
Fore
SplineSet
249 374 m 0,0,1
 284 374 284 374 297.5 384.5 c 128,-1,2
 311 395 311 395 311 410 c 0,3,4
 311 449 311 449 243 449 c 2,5,-1
 203 449 l 1,6,-1
 203 528 l 1,7,-1
 243 528 l 2,8,9
 266 528 266 528 280 536.5 c 128,-1,10
 294 545 294 545 294 564 c 0,11,12
 294 594 294 594 252 594 c 0,13,14
 229 594 229 594 207.5 586.5 c 128,-1,15
 186 579 186 579 165 570 c 1,16,-1
 129 646 l 1,17,18
 153 661 153 661 189 672.5 c 128,-1,19
 225 684 225 684 259 684 c 0,20,21
 298 684 298 684 324.5 675 c 128,-1,22
 351 666 351 666 367 651.5 c 128,-1,23
 383 637 383 637 389.5 617 c 128,-1,24
 396 597 396 597 396 576 c 128,-1,25
 396 555 396 555 387 537 c 128,-1,26
 378 519 378 519 356 501 c 1,27,28
 387 487 387 487 401 462.5 c 128,-1,29
 415 438 415 438 415 409 c 0,30,31
 415 382 415 382 406 359.5 c 128,-1,32
 397 337 397 337 378 320 c 128,-1,33
 359 303 359 303 327.5 293.5 c 128,-1,34
 296 284 296 284 251 284 c 0,35,36
 219 284 219 284 181.5 291 c 128,-1,37
 144 298 144 298 122 310 c 1,38,-1
 145 395 l 1,39,40
 177 381 177 381 199.5 377.5 c 128,-1,41
 222 374 222 374 249 374 c 0,0,1
EndSplineSet
Substitution2: "+U1h9FH9uY9sA lookup 22 +MLUw1jDGMPww1jDr" threeinferior
Substitution2: "'sinf' +edFbZmWHcy51KE4LMGQwTWWHW1cA lookup 11 +MLUw1jDGMPww1jDr" three.sinf
Substitution2: "'subs' +TgswZDBNZYdbVwAA lookup 10 +MLUw1jDGMPww1jDr" three.sinf
Substitution2: "'sups' +TgowZDBNZYdbVwAA lookup 9 +MLUw1jDGMPww1jDr" three.sups
Substitution2: "'dnom' +UgZrzQAA lookup 8 +MLUw1jDGMPww1jDr" threeinferior
EndChar

StartChar: acute
Encoding: 180 180 143
Width: 500
Flags: W
LayerCount: 2
Fore
SplineSet
401 645 m 1,0,-1
 213 554 l 1,1,-1
 164 626 l 1,2,-1
 335 746 l 1,3,-1
 401 645 l 1,0,-1
EndSplineSet
EndChar

StartChar: mu
Encoding: 181 181 144
Width: 500
Flags: W
LayerCount: 2
Fore
SplineSet
197 508 m 1,0,-1
 197 231 l 2,1,2
 197 193 197 193 202 169 c 128,-1,3
 207 145 207 145 217.5 130.5 c 128,-1,4
 228 116 228 116 243.5 110 c 128,-1,5
 259 104 259 104 280 104 c 0,6,7
 295 104 295 104 310.5 105.5 c 128,-1,8
 326 107 326 107 339 109 c 1,9,-1
 339 508 l 1,10,-1
 473 508 l 1,11,-1
 473 17 l 1,12,13
 438 7 438 7 387.5 -2.5 c 128,-1,14
 337 -12 337 -12 282 -12 c 0,15,16
 265 -12 265 -12 239 -7 c 128,-1,17
 213 -2 213 -2 190 4 c 1,18,19
 192 -19 192 -19 194.5 -39.5 c 128,-1,20
 197 -60 197 -60 197 -89 c 2,21,-1
 197 -178 l 1,22,-1
 64 -178 l 1,23,-1
 64 508 l 1,24,-1
 197 508 l 1,0,-1
EndSplineSet
EndChar

StartChar: paragraph
Encoding: 182 182 145
Width: 500
Flags: W
LayerCount: 2
Fore
SplineSet
186 251 m 1,0,1
 104 269 104 269 62.5 318 c 128,-1,2
 21 367 21 367 21 461 c 0,3,4
 21 513 21 513 39.5 553 c 128,-1,5
 58 593 58 593 93.5 620.5 c 128,-1,6
 129 648 129 648 178.5 662 c 128,-1,7
 228 676 228 676 289 676 c 0,8,9
 341 676 341 676 395.5 670 c 128,-1,10
 450 664 450 664 491 653 c 1,11,-1
 491 -178 l 1,12,-1
 382 -178 l 1,13,-1
 382 564 l 1,14,15
 371 566 371 566 345.5 567 c 128,-1,16
 320 568 320 568 296 566 c 1,17,-1
 296 -178 l 1,18,-1
 186 -178 l 1,19,-1
 186 251 l 1,0,1
EndSplineSet
EndChar

StartChar: periodcentered
Encoding: 183 183 146
Width: 500
Flags: W
LayerCount: 2
Fore
SplineSet
367 286 m 0,0,1
 367 238 367 238 338 213.5 c 128,-1,2
 309 189 309 189 271 189 c 0,3,4
 252 189 252 189 234.5 195.5 c 128,-1,5
 217 202 217 202 203.5 214.5 c 128,-1,6
 190 227 190 227 182 244.5 c 128,-1,7
 174 262 174 262 174 286 c 0,8,9
 174 309 174 309 182 327 c 128,-1,10
 190 345 190 345 203.5 356.5 c 128,-1,11
 217 368 217 368 234.5 374.5 c 128,-1,12
 252 381 252 381 271 381 c 0,13,14
 309 381 309 381 338 356 c 128,-1,15
 367 331 367 331 367 286 c 0,0,1
EndSplineSet
EndChar

StartChar: cedilla
Encoding: 184 184 147
Width: 500
Flags: W
LayerCount: 2
Fore
SplineSet
324 -26 m 1,0,1
 360 -37 360 -37 374 -58 c 128,-1,2
 388 -79 388 -79 388 -98 c 0,3,4
 388 -123 388 -123 376.5 -139.5 c 128,-1,5
 365 -156 365 -156 347 -165.5 c 128,-1,6
 329 -175 329 -175 305.5 -179.5 c 128,-1,7
 282 -184 282 -184 258 -184 c 0,8,9
 209 -184 209 -184 172 -172 c 1,10,-1
 186 -104 l 1,11,12
 192 -106 192 -106 210.5 -109.5 c 128,-1,13
 229 -113 229 -113 246 -113 c 0,14,15
 290 -113 290 -113 291 -86 c 0,16,17
 291 -65 291 -65 252 -53 c 2,18,-1
 230 -46 l 1,19,20
 235 -28 235 -28 244.5 -8.5 c 128,-1,21
 254 11 254 11 259 19 c 1,22,-1
 346 19 l 1,23,24
 341 7 341 7 335 -3.5 c 128,-1,25
 329 -14 329 -14 324 -26 c 1,0,1
EndSplineSet
EndChar

StartChar: onesuperior
Encoding: 185 185 148
Width: 500
Flags: W
LayerCount: 2
Fore
SplineSet
149 292 m 1,0,-1
 149 379 l 1,1,-1
 257 379 l 1,2,-1
 257 552 l 1,3,4
 238 540 238 540 218 532 c 128,-1,5
 198 524 198 524 168 512 c 1,6,-1
 139 596 l 1,7,8
 180 612 180 612 218 632.5 c 128,-1,9
 256 653 256 653 284 676 c 1,10,-1
 367 676 l 1,11,-1
 367 379 l 1,12,-1
 456 379 l 1,13,-1
 456 292 l 1,14,-1
 149 292 l 1,0,-1
EndSplineSet
Substitution2: "+U1h9FH9uY9sA lookup 22 +MLUw1jDGMPww1jDr" oneinferior
Substitution2: "'sinf' +edFbZmWHcy51KE4LMGQwTWWHW1cA lookup 11 +MLUw1jDGMPww1jDr" one.sinf
Substitution2: "'subs' +TgswZDBNZYdbVwAA lookup 10 +MLUw1jDGMPww1jDr" one.sinf
Substitution2: "'sups' +TgowZDBNZYdbVwAA lookup 9 +MLUw1jDGMPww1jDr" one.sups
Substitution2: "'dnom' +UgZrzQAA lookup 8 +MLUw1jDGMPww1jDr" oneinferior
EndChar

StartChar: ordmasculine
Encoding: 186 186 149
Width: 500
Flags: W
LayerCount: 2
Fore
SplineSet
347 488 m 0,0,1
 347 534 347 534 327 561 c 128,-1,2
 307 588 307 588 269 588 c 0,3,4
 232 588 232 588 211 561.5 c 128,-1,5
 190 535 190 535 190 488 c 0,6,7
 190 444 190 444 210.5 418 c 128,-1,8
 231 392 231 392 269 392 c 128,-1,9
 307 392 307 392 327 418 c 128,-1,10
 347 444 347 444 347 488 c 0,0,1
457 488.5 m 128,-1,12
 457 443 457 443 443.5 407.5 c 128,-1,13
 430 372 430 372 405 347 c 128,-1,14
 380 322 380 322 345.5 308.5 c 128,-1,15
 311 295 311 295 269 295 c 128,-1,16
 227 295 227 295 192.5 308.5 c 128,-1,17
 158 322 158 322 133 347 c 128,-1,18
 108 372 108 372 94 407.5 c 128,-1,19
 80 443 80 443 80 488.5 c 128,-1,20
 80 534 80 534 94 570.5 c 128,-1,21
 108 607 108 607 133 632 c 128,-1,22
 158 657 158 657 192.5 670.5 c 128,-1,23
 227 684 227 684 269 684 c 128,-1,24
 311 684 311 684 345.5 670.5 c 128,-1,25
 380 657 380 657 405 632 c 128,-1,26
 430 607 430 607 443.5 570.5 c 128,-1,11
 457 534 457 534 457 488.5 c 128,-1,12
EndSplineSet
EndChar

StartChar: guillemotright
Encoding: 187 187 150
Width: 500
Flags: W
LayerCount: 2
Fore
SplineSet
125 50 m 1,0,-1
 54 93 l 1,1,-1
 154 274 l 1,2,-1
 54 455 l 1,3,-1
 123 499 l 1,4,-1
 270 274 l 1,5,-1
 125 50 l 1,0,-1
340 50 m 1,6,-1
 270 93 l 1,7,-1
 372 274 l 1,8,-1
 270 455 l 1,9,-1
 338 499 l 1,10,-1
 487 274 l 1,11,-1
 340 50 l 1,6,-1
EndSplineSet
Substitution2: "'case' +WSdlh1tXfUQwf3UoMGuKv2V0MFcwX1tXX2IA lookup 17 +MLUw1jDGMPww1jDr" Guillemotright
EndChar

StartChar: onequarter
Encoding: 188 188 151
Width: 500
Flags: W
LayerCount: 2
Fore
SplineSet
484 669 m 1,0,-1
 141 0 l 1,1,-1
 33 0 l 1,2,-1
 376 669 l 1,3,-1
 484 669 l 1,0,-1
409 201 m 1,4,5
 392 176 392 176 378.5 154 c 128,-1,6
 365 132 365 132 354 110 c 1,7,-1
 409 110 l 1,8,-1
 409 201 l 1,4,5
2 602 m 1,9,10
 39 618 39 618 66 634.5 c 128,-1,11
 93 651 93 651 119 676 c 1,12,-1
 187 676 l 1,13,-1
 187 406 l 1,14,-1
 95 406 l 1,15,-1
 95 568 l 1,16,17
 73 556 73 556 58 549.5 c 128,-1,18
 43 543 43 543 23 538 c 1,19,-1
 2 602 l 1,9,10
496 270 m 1,20,-1
 496 110 l 1,21,-1
 535 110 l 1,22,-1
 535 42 l 1,23,-1
 496 42 l 1,24,-1
 496 0 l 1,25,-1
 409 0 l 1,26,-1
 409 42 l 1,27,-1
 275 42 l 1,28,-1
 275 91 l 1,29,30
 300 137 300 137 324.5 178 c 128,-1,31
 349 219 349 219 383 270 c 1,32,-1
 496 270 l 1,20,-1
EndSplineSet
Ligature2: "'frac' +ZZwwgTBuUgZlcAAA lookup 13 +MLUw1jDGMPww1jDr" one.sinf fraction four.sinf
Ligature2: "'frac' +ZZwwgTBuUgZlcAAA lookup 13 +MLUw1jDGMPww1jDr" one.sinf fraction four.sups
Ligature2: "'frac' +ZZwwgTBuUgZlcAAA lookup 13 +MLUw1jDGMPww1jDr" one.sinf fraction fourinferior
Ligature2: "'frac' +ZZwwgTBuUgZlcAAA lookup 13 +MLUw1jDGMPww1jDr" one.sinf fraction foursuperior
Ligature2: "'frac' +ZZwwgTBuUgZlcAAA lookup 13 +MLUw1jDGMPww1jDr" one.sinf fraction four
Ligature2: "'frac' +ZZwwgTBuUgZlcAAA lookup 13 +MLUw1jDGMPww1jDr" one.sups fraction four.sinf
Ligature2: "'frac' +ZZwwgTBuUgZlcAAA lookup 13 +MLUw1jDGMPww1jDr" one.sups fraction four.sups
Ligature2: "'frac' +ZZwwgTBuUgZlcAAA lookup 13 +MLUw1jDGMPww1jDr" one.sups fraction fourinferior
Ligature2: "'frac' +ZZwwgTBuUgZlcAAA lookup 13 +MLUw1jDGMPww1jDr" one.sups fraction foursuperior
Ligature2: "'frac' +ZZwwgTBuUgZlcAAA lookup 13 +MLUw1jDGMPww1jDr" one.sups fraction four
Ligature2: "'frac' +ZZwwgTBuUgZlcAAA lookup 13 +MLUw1jDGMPww1jDr" oneinferior fraction four.sinf
Ligature2: "'frac' +ZZwwgTBuUgZlcAAA lookup 13 +MLUw1jDGMPww1jDr" oneinferior fraction four.sups
Ligature2: "'frac' +ZZwwgTBuUgZlcAAA lookup 13 +MLUw1jDGMPww1jDr" oneinferior fraction fourinferior
Ligature2: "'frac' +ZZwwgTBuUgZlcAAA lookup 13 +MLUw1jDGMPww1jDr" oneinferior fraction foursuperior
Ligature2: "'frac' +ZZwwgTBuUgZlcAAA lookup 13 +MLUw1jDGMPww1jDr" oneinferior fraction four
Ligature2: "'frac' +ZZwwgTBuUgZlcAAA lookup 13 +MLUw1jDGMPww1jDr" onesuperior fraction four.sinf
Ligature2: "'frac' +ZZwwgTBuUgZlcAAA lookup 13 +MLUw1jDGMPww1jDr" onesuperior fraction four.sups
Ligature2: "'frac' +ZZwwgTBuUgZlcAAA lookup 13 +MLUw1jDGMPww1jDr" onesuperior fraction fourinferior
Ligature2: "'frac' +ZZwwgTBuUgZlcAAA lookup 13 +MLUw1jDGMPww1jDr" onesuperior fraction foursuperior
Ligature2: "'frac' +ZZwwgTBuUgZlcAAA lookup 13 +MLUw1jDGMPww1jDr" onesuperior fraction four
Ligature2: "'frac' +ZZwwgTBuUgZlcAAA lookup 13 +MLUw1jDGMPww1jDr" one fraction four.sinf
Ligature2: "'frac' +ZZwwgTBuUgZlcAAA lookup 13 +MLUw1jDGMPww1jDr" one fraction four.sups
Ligature2: "'frac' +ZZwwgTBuUgZlcAAA lookup 13 +MLUw1jDGMPww1jDr" one fraction fourinferior
Ligature2: "'frac' +ZZwwgTBuUgZlcAAA lookup 13 +MLUw1jDGMPww1jDr" one fraction foursuperior
Ligature2: "'frac' +ZZwwgTBuUgZlcAAA lookup 13 +MLUw1jDGMPww1jDr" one fraction four
EndChar

StartChar: onehalf
Encoding: 189 189 152
Width: 500
Flags: W
LayerCount: 2
Fore
SplineSet
484 669 m 1,0,-1
 141 0 l 1,1,-1
 33 0 l 1,2,-1
 376 669 l 1,3,-1
 484 669 l 1,0,-1
2 602 m 1,4,5
 39 618 39 618 66 634.5 c 128,-1,6
 93 651 93 651 119 676 c 1,7,-1
 187 676 l 1,8,-1
 187 406 l 1,9,-1
 95 406 l 1,10,-1
 95 568 l 1,11,12
 73 556 73 556 58 549.5 c 128,-1,13
 43 543 43 543 23 538 c 1,14,-1
 2 602 l 1,4,5
530 68 m 1,15,-1
 530 0 l 1,16,-1
 305 0 l 1,17,18
 303 6 303 6 302.5 12.5 c 128,-1,19
 302 19 302 19 302 25 c 0,20,21
 302 63 302 63 324.5 83.5 c 128,-1,22
 347 104 347 104 378 124 c 2,23,-1
 402 139 l 2,24,25
 420 151 420 151 426.5 158.5 c 128,-1,26
 433 166 433 166 433 180 c 0,27,28
 433 204 433 204 405 204 c 0,29,30
 389 204 389 204 372.5 195.5 c 128,-1,31
 356 187 356 187 343 173 c 1,32,-1
 299 230 l 1,33,34
 320 255 320 255 351 267.5 c 128,-1,35
 382 280 382 280 417 280 c 0,36,37
 459 280 459 280 492 258.5 c 128,-1,38
 525 237 525 237 525 191 c 0,39,40
 525 162 525 162 513 143.5 c 128,-1,41
 501 125 501 125 484 112 c 128,-1,42
 467 99 467 99 447.5 89 c 128,-1,43
 428 79 428 79 413 68 c 1,44,-1
 530 68 l 1,15,-1
EndSplineSet
Ligature2: "'frac' +ZZwwgTBuUgZlcAAA lookup 13 +MLUw1jDGMPww1jDr" one.sinf fraction two.sinf
Ligature2: "'frac' +ZZwwgTBuUgZlcAAA lookup 13 +MLUw1jDGMPww1jDr" one.sinf fraction two.sups
Ligature2: "'frac' +ZZwwgTBuUgZlcAAA lookup 13 +MLUw1jDGMPww1jDr" one.sinf fraction twoinferior
Ligature2: "'frac' +ZZwwgTBuUgZlcAAA lookup 13 +MLUw1jDGMPww1jDr" one.sinf fraction twosuperior
Ligature2: "'frac' +ZZwwgTBuUgZlcAAA lookup 13 +MLUw1jDGMPww1jDr" one.sinf fraction two
Ligature2: "'frac' +ZZwwgTBuUgZlcAAA lookup 13 +MLUw1jDGMPww1jDr" one.sups fraction two.sinf
Ligature2: "'frac' +ZZwwgTBuUgZlcAAA lookup 13 +MLUw1jDGMPww1jDr" one.sups fraction two.sups
Ligature2: "'frac' +ZZwwgTBuUgZlcAAA lookup 13 +MLUw1jDGMPww1jDr" one.sups fraction twoinferior
Ligature2: "'frac' +ZZwwgTBuUgZlcAAA lookup 13 +MLUw1jDGMPww1jDr" one.sups fraction twosuperior
Ligature2: "'frac' +ZZwwgTBuUgZlcAAA lookup 13 +MLUw1jDGMPww1jDr" one.sups fraction two
Ligature2: "'frac' +ZZwwgTBuUgZlcAAA lookup 13 +MLUw1jDGMPww1jDr" oneinferior fraction two.sinf
Ligature2: "'frac' +ZZwwgTBuUgZlcAAA lookup 13 +MLUw1jDGMPww1jDr" oneinferior fraction two.sups
Ligature2: "'frac' +ZZwwgTBuUgZlcAAA lookup 13 +MLUw1jDGMPww1jDr" oneinferior fraction twoinferior
Ligature2: "'frac' +ZZwwgTBuUgZlcAAA lookup 13 +MLUw1jDGMPww1jDr" oneinferior fraction twosuperior
Ligature2: "'frac' +ZZwwgTBuUgZlcAAA lookup 13 +MLUw1jDGMPww1jDr" oneinferior fraction two
Ligature2: "'frac' +ZZwwgTBuUgZlcAAA lookup 13 +MLUw1jDGMPww1jDr" onesuperior fraction two.sinf
Ligature2: "'frac' +ZZwwgTBuUgZlcAAA lookup 13 +MLUw1jDGMPww1jDr" onesuperior fraction two.sups
Ligature2: "'frac' +ZZwwgTBuUgZlcAAA lookup 13 +MLUw1jDGMPww1jDr" onesuperior fraction twoinferior
Ligature2: "'frac' +ZZwwgTBuUgZlcAAA lookup 13 +MLUw1jDGMPww1jDr" onesuperior fraction twosuperior
Ligature2: "'frac' +ZZwwgTBuUgZlcAAA lookup 13 +MLUw1jDGMPww1jDr" onesuperior fraction two
Ligature2: "'frac' +ZZwwgTBuUgZlcAAA lookup 13 +MLUw1jDGMPww1jDr" one fraction two.sinf
Ligature2: "'frac' +ZZwwgTBuUgZlcAAA lookup 13 +MLUw1jDGMPww1jDr" one fraction two.sups
Ligature2: "'frac' +ZZwwgTBuUgZlcAAA lookup 13 +MLUw1jDGMPww1jDr" one fraction twoinferior
Ligature2: "'frac' +ZZwwgTBuUgZlcAAA lookup 13 +MLUw1jDGMPww1jDr" one fraction twosuperior
Ligature2: "'frac' +ZZwwgTBuUgZlcAAA lookup 13 +MLUw1jDGMPww1jDr" one fraction two
EndChar

StartChar: threequarters
Encoding: 190 190 153
Width: 500
Flags: W
LayerCount: 2
Fore
SplineSet
503 669 m 1,0,-1
 161 0 l 1,1,-1
 53 0 l 1,2,-1
 395 669 l 1,3,-1
 503 669 l 1,0,-1
409 201 m 1,4,5
 392 176 392 176 378.5 154 c 128,-1,6
 365 132 365 132 354 110 c 1,7,-1
 409 110 l 1,8,-1
 409 201 l 1,4,5
496 270 m 1,9,-1
 496 110 l 1,10,-1
 535 110 l 1,11,-1
 535 42 l 1,12,-1
 496 42 l 1,13,-1
 496 0 l 1,14,-1
 409 0 l 1,15,-1
 409 42 l 1,16,-1
 275 42 l 1,17,-1
 275 91 l 1,18,19
 300 137 300 137 324.5 178 c 128,-1,20
 349 219 349 219 383 270 c 1,21,-1
 496 270 l 1,9,-1
32 481 m 1,22,23
 44 476 44 476 65 470 c 128,-1,24
 86 464 86 464 108 464 c 0,25,26
 133 464 133 464 145.5 468.5 c 128,-1,27
 158 473 158 473 158 487 c 0,28,29
 158 515 158 515 94 515 c 2,30,-1
 72 515 l 1,31,-1
 72 577 l 1,32,-1
 96 577 l 2,33,34
 124 577 124 577 134.5 582.5 c 128,-1,35
 145 588 145 588 145 598 c 128,-1,36
 145 608 145 608 137 612.5 c 128,-1,37
 129 617 129 617 117 617 c 0,38,39
 99 617 99 617 77 610.5 c 128,-1,40
 55 604 55 604 45 598 c 1,41,-1
 22 657 l 1,42,43
 37 669 37 669 67 676.5 c 128,-1,44
 97 684 97 684 130 684 c 0,45,46
 186 684 186 684 212 661.5 c 128,-1,47
 238 639 238 639 238 611 c 0,48,49
 238 590 238 590 231 576.5 c 128,-1,50
 224 563 224 563 205 551 c 1,51,52
 250 529 250 529 251 483 c 0,53,54
 251 458 251 458 240.5 442 c 128,-1,55
 230 426 230 426 211.5 415.5 c 128,-1,56
 193 405 193 405 169 400.5 c 128,-1,57
 145 396 145 396 116 396 c 0,58,59
 86 396 86 396 58 401 c 128,-1,60
 30 406 30 406 13 415 c 1,61,-1
 32 481 l 1,22,23
EndSplineSet
Ligature2: "'frac' +ZZwwgTBuUgZlcAAA lookup 13 +MLUw1jDGMPww1jDr" three.sinf fraction four.sinf
Ligature2: "'frac' +ZZwwgTBuUgZlcAAA lookup 13 +MLUw1jDGMPww1jDr" three.sinf fraction four.sups
Ligature2: "'frac' +ZZwwgTBuUgZlcAAA lookup 13 +MLUw1jDGMPww1jDr" three.sinf fraction fourinferior
Ligature2: "'frac' +ZZwwgTBuUgZlcAAA lookup 13 +MLUw1jDGMPww1jDr" three.sinf fraction foursuperior
Ligature2: "'frac' +ZZwwgTBuUgZlcAAA lookup 13 +MLUw1jDGMPww1jDr" three.sinf fraction four
Ligature2: "'frac' +ZZwwgTBuUgZlcAAA lookup 13 +MLUw1jDGMPww1jDr" three.sups fraction four.sinf
Ligature2: "'frac' +ZZwwgTBuUgZlcAAA lookup 13 +MLUw1jDGMPww1jDr" three.sups fraction four.sups
Ligature2: "'frac' +ZZwwgTBuUgZlcAAA lookup 13 +MLUw1jDGMPww1jDr" three.sups fraction fourinferior
Ligature2: "'frac' +ZZwwgTBuUgZlcAAA lookup 13 +MLUw1jDGMPww1jDr" three.sups fraction foursuperior
Ligature2: "'frac' +ZZwwgTBuUgZlcAAA lookup 13 +MLUw1jDGMPww1jDr" three.sups fraction four
Ligature2: "'frac' +ZZwwgTBuUgZlcAAA lookup 13 +MLUw1jDGMPww1jDr" threeinferior fraction four.sinf
Ligature2: "'frac' +ZZwwgTBuUgZlcAAA lookup 13 +MLUw1jDGMPww1jDr" threeinferior fraction four.sups
Ligature2: "'frac' +ZZwwgTBuUgZlcAAA lookup 13 +MLUw1jDGMPww1jDr" threeinferior fraction fourinferior
Ligature2: "'frac' +ZZwwgTBuUgZlcAAA lookup 13 +MLUw1jDGMPww1jDr" threeinferior fraction foursuperior
Ligature2: "'frac' +ZZwwgTBuUgZlcAAA lookup 13 +MLUw1jDGMPww1jDr" threeinferior fraction four
Ligature2: "'frac' +ZZwwgTBuUgZlcAAA lookup 13 +MLUw1jDGMPww1jDr" threesuperior fraction four.sinf
Ligature2: "'frac' +ZZwwgTBuUgZlcAAA lookup 13 +MLUw1jDGMPww1jDr" threesuperior fraction four.sups
Ligature2: "'frac' +ZZwwgTBuUgZlcAAA lookup 13 +MLUw1jDGMPww1jDr" threesuperior fraction fourinferior
Ligature2: "'frac' +ZZwwgTBuUgZlcAAA lookup 13 +MLUw1jDGMPww1jDr" threesuperior fraction foursuperior
Ligature2: "'frac' +ZZwwgTBuUgZlcAAA lookup 13 +MLUw1jDGMPww1jDr" threesuperior fraction four
Ligature2: "'frac' +ZZwwgTBuUgZlcAAA lookup 13 +MLUw1jDGMPww1jDr" three fraction four.sinf
Ligature2: "'frac' +ZZwwgTBuUgZlcAAA lookup 13 +MLUw1jDGMPww1jDr" three fraction four.sups
Ligature2: "'frac' +ZZwwgTBuUgZlcAAA lookup 13 +MLUw1jDGMPww1jDr" three fraction fourinferior
Ligature2: "'frac' +ZZwwgTBuUgZlcAAA lookup 13 +MLUw1jDGMPww1jDr" three fraction foursuperior
Ligature2: "'frac' +ZZwwgTBuUgZlcAAA lookup 13 +MLUw1jDGMPww1jDr" three fraction four
EndChar

StartChar: questiondown
Encoding: 191 191 154
Width: 500
Flags: W
LayerCount: 2
Fore
SplineSet
205 414 m 0,0,1
 205 456 205 456 232.5 479.5 c 128,-1,2
 260 503 260 503 295 503 c 0,3,4
 312 503 312 503 328.5 497 c 128,-1,5
 345 491 345 491 357.5 479.5 c 128,-1,6
 370 468 370 468 378 451 c 128,-1,7
 386 434 386 434 386 413.5 c 128,-1,8
 386 393 386 393 378 376.5 c 128,-1,9
 370 360 370 360 357.5 348.5 c 128,-1,10
 345 337 345 337 328.5 331 c 128,-1,11
 312 325 312 325 295 325 c 128,-1,12
 278 325 278 325 261.5 331 c 128,-1,13
 245 337 245 337 232.5 348.5 c 128,-1,14
 220 360 220 360 212.5 376.5 c 128,-1,15
 205 393 205 393 205 414 c 0,0,1
364 247 m 1,16,17
 365 242 365 242 365 231 c 0,18,19
 365 188 365 188 342.5 148.5 c 128,-1,20
 320 109 320 109 283 79 c 0,21,22
 271 69 271 69 258.5 59.5 c 128,-1,23
 246 50 246 50 236.5 40 c 128,-1,24
 227 30 227 30 221 19 c 128,-1,25
 215 8 215 8 215 -5 c 0,26,27
 215 -37 215 -37 237.5 -54 c 128,-1,28
 260 -71 260 -71 294.5 -71 c 128,-1,29
 329 -71 329 -71 361.5 -61 c 128,-1,30
 394 -51 394 -51 432 -32 c 1,31,-1
 469 -134 l 1,32,33
 431 -158 431 -158 380 -171 c 128,-1,34
 329 -184 329 -184 280 -184 c 0,35,36
 218 -184 218 -184 178 -167.5 c 128,-1,37
 138 -151 138 -151 115.5 -125.5 c 128,-1,38
 93 -100 93 -100 84 -70.5 c 128,-1,39
 75 -41 75 -41 75 -14 c 0,40,41
 75 17 75 17 87 42.5 c 128,-1,42
 99 68 99 68 118 89 c 128,-1,43
 137 110 137 110 158.5 129 c 128,-1,44
 180 148 180 148 199 166.5 c 128,-1,45
 218 185 218 185 230.5 204.5 c 128,-1,46
 243 224 243 224 243 247 c 1,47,-1
 364 247 l 1,16,17
EndSplineSet
Substitution2: "'case' +WSdlh1tXfUQwf3UoMGuKv2V0MFcwX1tXX2IA lookup 17 +MLUw1jDGMPww1jDr" Questiondown
EndChar

StartChar: Agrave
Encoding: 192 192 155
Width: 500
Flags: W
LayerCount: 2
Fore
SplineSet
269 539 m 1,0,1
 258 501 258 501 249 467 c 128,-1,2
 240 433 240 433 232 400 c 128,-1,3
 224 367 224 367 217 333.5 c 128,-1,4
 210 300 210 300 203 265 c 1,5,-1
 334 265 l 1,6,7
 328 301 328 301 321 334 c 128,-1,8
 314 367 314 367 306 400 c 128,-1,9
 298 433 298 433 289 467 c 128,-1,10
 280 501 280 501 269 539 c 1,0,1
388 0 m 1,11,-1
 356 154 l 1,12,-1
 178 154 l 1,13,-1
 148 0 l 1,14,-1
 10 0 l 1,15,16
 58 198 58 198 106 360.5 c 128,-1,17
 154 523 154 523 200 669 c 1,18,-1
 345 669 l 1,19,20
 393 522 393 522 439.5 357 c 128,-1,21
 486 192 486 192 530 0 c 1,22,-1
 388 0 l 1,11,-1
213 896 m 1,23,-1
 383 777 l 1,24,-1
 335 704 l 1,25,-1
 147 795 l 1,26,-1
 213 896 l 1,23,-1
EndSplineSet
EndChar

StartChar: Aacute
Encoding: 193 193 156
Width: 500
Flags: W
LayerCount: 2
Fore
SplineSet
269 539 m 1,0,1
 258 501 258 501 249 467 c 128,-1,2
 240 433 240 433 232 400 c 128,-1,3
 224 367 224 367 217 333.5 c 128,-1,4
 210 300 210 300 203 265 c 1,5,-1
 334 265 l 1,6,7
 328 301 328 301 321 334 c 128,-1,8
 314 367 314 367 306 400 c 128,-1,9
 298 433 298 433 289 467 c 128,-1,10
 280 501 280 501 269 539 c 1,0,1
388 0 m 1,11,-1
 356 154 l 1,12,-1
 178 154 l 1,13,-1
 148 0 l 1,14,-1
 10 0 l 1,15,16
 58 198 58 198 106 360.5 c 128,-1,17
 154 523 154 523 200 669 c 1,18,-1
 345 669 l 1,19,20
 393 522 393 522 439.5 357 c 128,-1,21
 486 192 486 192 530 0 c 1,22,-1
 388 0 l 1,11,-1
388 795 m 1,23,-1
 200 704 l 1,24,-1
 151 777 l 1,25,-1
 322 896 l 1,26,-1
 388 795 l 1,23,-1
EndSplineSet
EndChar

StartChar: Acircumflex
Encoding: 194 194 157
Width: 500
Flags: W
LayerCount: 2
Fore
SplineSet
269 539 m 1,0,1
 258 501 258 501 249 467 c 128,-1,2
 240 433 240 433 232 400 c 128,-1,3
 224 367 224 367 217 333.5 c 128,-1,4
 210 300 210 300 203 265 c 1,5,-1
 334 265 l 1,6,7
 328 301 328 301 321 334 c 128,-1,8
 314 367 314 367 306 400 c 128,-1,9
 298 433 298 433 289 467 c 128,-1,10
 280 501 280 501 269 539 c 1,0,1
388 0 m 1,11,-1
 356 154 l 1,12,-1
 178 154 l 1,13,-1
 148 0 l 1,14,-1
 10 0 l 1,15,16
 58 198 58 198 106 360.5 c 128,-1,17
 154 523 154 523 200 669 c 1,18,-1
 345 669 l 1,19,20
 393 522 393 522 439.5 357 c 128,-1,21
 486 192 486 192 530 0 c 1,22,-1
 388 0 l 1,11,-1
421 765 m 1,23,-1
 368 701 l 1,24,-1
 272 775 l 1,25,-1
 176 701 l 1,26,-1
 121 765 l 1,27,-1
 272 896 l 1,28,-1
 421 765 l 1,23,-1
EndSplineSet
EndChar

StartChar: Atilde
Encoding: 195 195 158
Width: 500
Flags: W
LayerCount: 2
Fore
SplineSet
269 539 m 1,0,1
 258 501 258 501 249 467 c 128,-1,2
 240 433 240 433 232 400 c 128,-1,3
 224 367 224 367 217 333.5 c 128,-1,4
 210 300 210 300 203 265 c 1,5,-1
 334 265 l 1,6,7
 328 301 328 301 321 334 c 128,-1,8
 314 367 314 367 306 400 c 128,-1,9
 298 433 298 433 289 467 c 128,-1,10
 280 501 280 501 269 539 c 1,0,1
388 0 m 1,11,-1
 356 154 l 1,12,-1
 178 154 l 1,13,-1
 148 0 l 1,14,-1
 10 0 l 1,15,16
 58 198 58 198 106 360.5 c 128,-1,17
 154 523 154 523 200 669 c 1,18,-1
 345 669 l 1,19,20
 393 522 393 522 439.5 357 c 128,-1,21
 486 192 486 192 530 0 c 1,22,-1
 388 0 l 1,11,-1
446 834 m 1,23,24
 441 819 441 819 430.5 802 c 128,-1,25
 420 785 420 785 405.5 770 c 128,-1,26
 391 755 391 755 372.5 745 c 128,-1,27
 354 735 354 735 333 735 c 0,28,29
 316 735 316 735 301 740.5 c 128,-1,30
 286 746 286 746 271.5 752 c 128,-1,31
 257 758 257 758 242.5 763.5 c 128,-1,32
 228 769 228 769 212 769 c 0,33,34
 194 769 194 769 181 756.5 c 128,-1,35
 168 744 168 744 160 728 c 1,36,-1
 96 770 l 1,37,38
 101 785 101 785 111.5 802.5 c 128,-1,39
 122 820 122 820 136.5 835 c 128,-1,40
 151 850 151 850 169.5 859.5 c 128,-1,41
 188 869 188 869 211 869 c 0,42,43
 228 869 228 869 242.5 864 c 128,-1,44
 257 859 257 859 271.5 853 c 128,-1,45
 286 847 286 847 300 841.5 c 128,-1,46
 314 836 314 836 330 836 c 0,47,48
 348 836 348 836 361.5 848 c 128,-1,49
 375 860 375 860 382 876 c 1,50,-1
 446 834 l 1,23,24
EndSplineSet
EndChar

StartChar: Adieresis
Encoding: 196 196 159
Width: 500
Flags: W
LayerCount: 2
Fore
SplineSet
269 539 m 1,0,1
 258 501 258 501 249 467 c 128,-1,2
 240 433 240 433 232 400 c 128,-1,3
 224 367 224 367 217 333.5 c 128,-1,4
 210 300 210 300 203 265 c 1,5,-1
 334 265 l 1,6,7
 328 301 328 301 321 334 c 128,-1,8
 314 367 314 367 306 400 c 128,-1,9
 298 433 298 433 289 467 c 128,-1,10
 280 501 280 501 269 539 c 1,0,1
388 0 m 1,11,-1
 356 154 l 1,12,-1
 178 154 l 1,13,-1
 148 0 l 1,14,-1
 10 0 l 1,15,16
 58 198 58 198 106 360.5 c 128,-1,17
 154 523 154 523 200 669 c 1,18,-1
 345 669 l 1,19,20
 393 522 393 522 439.5 357 c 128,-1,21
 486 192 486 192 530 0 c 1,22,-1
 388 0 l 1,11,-1
379 731 m 128,-1,24
 349 731 349 731 327 750 c 128,-1,25
 305 769 305 769 305 803.5 c 128,-1,26
 305 838 305 838 327 857.5 c 128,-1,27
 349 877 349 877 379 877 c 128,-1,28
 409 877 409 877 431.5 857.5 c 128,-1,29
 454 838 454 838 454 803.5 c 128,-1,30
 454 769 454 769 431.5 750 c 128,-1,23
 409 731 409 731 379 731 c 128,-1,24
164 731 m 0,31,32
 134 731 134 731 112 750 c 128,-1,33
 90 769 90 769 90 803.5 c 128,-1,34
 90 838 90 838 112 857.5 c 128,-1,35
 134 877 134 877 164 877 c 0,36,37
 193 877 193 877 216 857.5 c 128,-1,38
 239 838 239 838 239 803.5 c 128,-1,39
 239 769 239 769 216 750 c 128,-1,40
 193 731 193 731 164 731 c 0,31,32
EndSplineSet
EndChar

StartChar: Aring
Encoding: 197 197 160
Width: 500
Flags: W
LayerCount: 2
Fore
SplineSet
313 739.5 m 128,-1,1
 313 762 313 762 300 773.5 c 128,-1,2
 287 785 287 785 269 785 c 0,3,4
 253 785 253 785 239.5 773.5 c 128,-1,5
 226 762 226 762 226 739.5 c 128,-1,6
 226 717 226 717 239.5 705.5 c 128,-1,7
 253 694 253 694 269 694 c 0,8,9
 287 694 287 694 300 705.5 c 128,-1,0
 313 717 313 717 313 739.5 c 128,-1,1
269 539 m 1,10,11
 258 501 258 501 249 467 c 128,-1,12
 240 433 240 433 232 400 c 128,-1,13
 224 367 224 367 217 333.5 c 128,-1,14
 210 300 210 300 203 265 c 1,15,-1
 334 265 l 1,16,17
 328 301 328 301 321 334 c 128,-1,18
 314 367 314 367 306 400 c 128,-1,19
 298 433 298 433 289 467 c 128,-1,20
 280 501 280 501 269 539 c 1,10,11
383 740 m 0,21,22
 383 712 383 712 373.5 691.5 c 128,-1,23
 364 671 364 671 348 656 c 1,24,25
 394 511 394 511 440.5 349.5 c 128,-1,26
 487 188 487 188 530 0 c 1,27,-1
 388 0 l 1,28,-1
 356 154 l 1,29,-1
 178 154 l 1,30,-1
 148 0 l 1,31,-1
 10 0 l 1,32,33
 56 192 56 192 103 351.5 c 128,-1,34
 150 511 150 511 194 653 c 1,35,36
 177 667 177 667 167 689 c 128,-1,37
 157 711 157 711 157 740 c 0,38,39
 157 767 157 767 166 788 c 128,-1,40
 175 809 175 809 190.5 823 c 128,-1,41
 206 837 206 837 226.5 844 c 128,-1,42
 247 851 247 851 269 851 c 0,43,44
 315 851 315 851 349 823 c 128,-1,45
 383 795 383 795 383 740 c 0,21,22
EndSplineSet
EndChar

StartChar: AE
Encoding: 198 198 161
Width: 500
Flags: W
LayerCount: 2
Fore
SplineSet
275 579 m 1,0,1
 257 504 257 504 238.5 429 c 128,-1,2
 220 354 220 354 201 265 c 1,3,-1
 275 265 l 1,4,-1
 275 579 l 1,0,1
275 154 m 1,5,-1
 177 154 l 1,6,-1
 148 0 l 1,7,-1
 10 0 l 1,8,9
 38 114 38 114 61.5 201 c 128,-1,10
 85 288 85 288 109 364 c 128,-1,11
 133 440 133 440 158 511.5 c 128,-1,12
 183 583 183 583 214 669 c 1,13,-1
 516 669 l 1,14,-1
 516 558 l 1,15,-1
 396 558 l 1,16,-1
 396 409 l 1,17,-1
 491 409 l 1,18,-1
 491 299 l 1,19,-1
 396 299 l 1,20,-1
 396 110 l 1,21,-1
 530 110 l 1,22,-1
 530 0 l 1,23,-1
 275 0 l 1,24,-1
 275 154 l 1,5,-1
EndSplineSet
EndChar

StartChar: Ccedilla
Encoding: 199 199 162
Width: 500
Flags: W
LayerCount: 2
Fore
SplineSet
324 -26 m 1,0,1
 360 -37 360 -37 374 -58 c 128,-1,2
 388 -79 388 -79 388 -98 c 0,3,4
 388 -123 388 -123 376.5 -139.5 c 128,-1,5
 365 -156 365 -156 347 -165.5 c 128,-1,6
 329 -175 329 -175 305.5 -179.5 c 128,-1,7
 282 -184 282 -184 258 -184 c 0,8,9
 209 -184 209 -184 172 -172 c 1,10,-1
 186 -104 l 1,11,12
 192 -106 192 -106 210.5 -109.5 c 128,-1,13
 229 -113 229 -113 246 -113 c 0,14,15
 290 -113 290 -113 291 -86 c 0,16,17
 291 -65 291 -65 252 -53 c 2,18,-1
 230 -46 l 1,19,20
 232 -36 232 -36 236.5 -25.5 c 128,-1,21
 241 -15 241 -15 245 -6 c 1,22,23
 140 17 140 17 84.5 103.5 c 128,-1,24
 29 190 29 190 29 335 c 0,25,26
 29 418 29 418 52 483 c 128,-1,27
 75 548 75 548 115.5 592.5 c 128,-1,28
 156 637 156 637 211.5 660.5 c 128,-1,29
 267 684 267 684 333 684 c 0,30,31
 369 684 369 684 397.5 678 c 128,-1,32
 426 672 426 672 447.5 664.5 c 128,-1,33
 469 657 469 657 483.5 648 c 128,-1,34
 498 639 498 639 505 635 c 1,35,-1
 471 529 l 1,36,37
 446 545 446 545 411 556.5 c 128,-1,38
 376 568 376 568 330 568 c 0,39,40
 299 568 299 568 269.5 556.5 c 128,-1,41
 240 545 240 545 216.5 518.5 c 128,-1,42
 193 492 193 492 178.5 448 c 128,-1,43
 164 404 164 404 164 338 c 0,44,45
 164 224 164 224 203.5 163 c 128,-1,46
 243 102 243 102 333 102 c 0,47,48
 385 102 385 102 419 113.5 c 128,-1,49
 453 125 453 125 473 137 c 1,50,-1
 507 32 l 1,51,52
 480 16 480 16 434 2 c 128,-1,53
 388 -12 388 -12 328 -14 c 1,54,-1
 324 -26 l 1,0,1
EndSplineSet
EndChar

StartChar: Egrave
Encoding: 200 200 163
Width: 500
Flags: W
LayerCount: 2
Fore
SplineSet
68 0 m 1,0,-1
 68 669 l 1,1,-1
 473 669 l 1,2,-1
 473 558 l 1,3,-1
 201 558 l 1,4,-1
 201 408 l 1,5,-1
 437 408 l 1,6,-1
 437 298 l 1,7,-1
 201 298 l 1,8,-1
 201 110 l 1,9,-1
 497 110 l 1,10,-1
 497 0 l 1,11,-1
 68 0 l 1,0,-1
213 896 m 1,12,-1
 383 777 l 1,13,-1
 335 704 l 1,14,-1
 147 795 l 1,15,-1
 213 896 l 1,12,-1
EndSplineSet
EndChar

StartChar: Eacute
Encoding: 201 201 164
Width: 500
Flags: W
LayerCount: 2
Fore
SplineSet
68 0 m 1,0,-1
 68 669 l 1,1,-1
 473 669 l 1,2,-1
 473 558 l 1,3,-1
 201 558 l 1,4,-1
 201 408 l 1,5,-1
 437 408 l 1,6,-1
 437 298 l 1,7,-1
 201 298 l 1,8,-1
 201 110 l 1,9,-1
 497 110 l 1,10,-1
 497 0 l 1,11,-1
 68 0 l 1,0,-1
388 795 m 1,12,-1
 200 704 l 1,13,-1
 151 777 l 1,14,-1
 322 896 l 1,15,-1
 388 795 l 1,12,-1
EndSplineSet
EndChar

StartChar: Ecircumflex
Encoding: 202 202 165
Width: 500
Flags: W
LayerCount: 2
Fore
SplineSet
68 0 m 1,0,-1
 68 669 l 1,1,-1
 473 669 l 1,2,-1
 473 558 l 1,3,-1
 201 558 l 1,4,-1
 201 408 l 1,5,-1
 437 408 l 1,6,-1
 437 298 l 1,7,-1
 201 298 l 1,8,-1
 201 110 l 1,9,-1
 497 110 l 1,10,-1
 497 0 l 1,11,-1
 68 0 l 1,0,-1
421 765 m 1,12,-1
 368 701 l 1,13,-1
 272 775 l 1,14,-1
 176 701 l 1,15,-1
 121 765 l 1,16,-1
 272 896 l 1,17,-1
 421 765 l 1,12,-1
EndSplineSet
EndChar

StartChar: Edieresis
Encoding: 203 203 166
Width: 500
Flags: W
LayerCount: 2
Fore
SplineSet
68 0 m 1,0,-1
 68 669 l 1,1,-1
 473 669 l 1,2,-1
 473 558 l 1,3,-1
 201 558 l 1,4,-1
 201 408 l 1,5,-1
 437 408 l 1,6,-1
 437 298 l 1,7,-1
 201 298 l 1,8,-1
 201 110 l 1,9,-1
 497 110 l 1,10,-1
 497 0 l 1,11,-1
 68 0 l 1,0,-1
379 731 m 128,-1,13
 349 731 349 731 327 750 c 128,-1,14
 305 769 305 769 305 803.5 c 128,-1,15
 305 838 305 838 327 857.5 c 128,-1,16
 349 877 349 877 379 877 c 128,-1,17
 409 877 409 877 431.5 857.5 c 128,-1,18
 454 838 454 838 454 803.5 c 128,-1,19
 454 769 454 769 431.5 750 c 128,-1,12
 409 731 409 731 379 731 c 128,-1,13
164 731 m 0,20,21
 134 731 134 731 112 750 c 128,-1,22
 90 769 90 769 90 803.5 c 128,-1,23
 90 838 90 838 112 857.5 c 128,-1,24
 134 877 134 877 164 877 c 0,25,26
 193 877 193 877 216 857.5 c 128,-1,27
 239 838 239 838 239 803.5 c 128,-1,28
 239 769 239 769 216 750 c 128,-1,29
 193 731 193 731 164 731 c 0,20,21
EndSplineSet
EndChar

StartChar: Igrave
Encoding: 204 204 167
Width: 500
Flags: W
LayerCount: 2
Fore
SplineSet
58 0 m 1,0,-1
 58 110 l 1,1,-1
 204 110 l 1,2,-1
 204 558 l 1,3,-1
 58 558 l 1,4,-1
 58 669 l 1,5,-1
 483 669 l 1,6,-1
 483 558 l 1,7,-1
 338 558 l 1,8,-1
 338 110 l 1,9,-1
 483 110 l 1,10,-1
 483 0 l 1,11,-1
 58 0 l 1,0,-1
213 896 m 1,12,-1
 383 777 l 1,13,-1
 335 704 l 1,14,-1
 147 795 l 1,15,-1
 213 896 l 1,12,-1
EndSplineSet
EndChar

StartChar: Iacute
Encoding: 205 205 168
Width: 500
Flags: W
LayerCount: 2
Fore
SplineSet
58 0 m 1,0,-1
 58 110 l 1,1,-1
 204 110 l 1,2,-1
 204 558 l 1,3,-1
 58 558 l 1,4,-1
 58 669 l 1,5,-1
 483 669 l 1,6,-1
 483 558 l 1,7,-1
 338 558 l 1,8,-1
 338 110 l 1,9,-1
 483 110 l 1,10,-1
 483 0 l 1,11,-1
 58 0 l 1,0,-1
388 795 m 1,12,-1
 200 704 l 1,13,-1
 151 777 l 1,14,-1
 322 896 l 1,15,-1
 388 795 l 1,12,-1
EndSplineSet
EndChar

StartChar: Icircumflex
Encoding: 206 206 169
Width: 500
Flags: W
LayerCount: 2
Fore
SplineSet
58 0 m 1,0,-1
 58 110 l 1,1,-1
 204 110 l 1,2,-1
 204 558 l 1,3,-1
 58 558 l 1,4,-1
 58 669 l 1,5,-1
 483 669 l 1,6,-1
 483 558 l 1,7,-1
 338 558 l 1,8,-1
 338 110 l 1,9,-1
 483 110 l 1,10,-1
 483 0 l 1,11,-1
 58 0 l 1,0,-1
421 765 m 1,12,-1
 368 701 l 1,13,-1
 272 775 l 1,14,-1
 176 701 l 1,15,-1
 121 765 l 1,16,-1
 272 896 l 1,17,-1
 421 765 l 1,12,-1
EndSplineSet
EndChar

StartChar: Idieresis
Encoding: 207 207 170
Width: 500
Flags: W
LayerCount: 2
Fore
SplineSet
58 0 m 1,0,-1
 58 110 l 1,1,-1
 204 110 l 1,2,-1
 204 558 l 1,3,-1
 58 558 l 1,4,-1
 58 669 l 1,5,-1
 483 669 l 1,6,-1
 483 558 l 1,7,-1
 338 558 l 1,8,-1
 338 110 l 1,9,-1
 483 110 l 1,10,-1
 483 0 l 1,11,-1
 58 0 l 1,0,-1
379 731 m 128,-1,13
 349 731 349 731 327 750 c 128,-1,14
 305 769 305 769 305 803.5 c 128,-1,15
 305 838 305 838 327 857.5 c 128,-1,16
 349 877 349 877 379 877 c 128,-1,17
 409 877 409 877 431.5 857.5 c 128,-1,18
 454 838 454 838 454 803.5 c 128,-1,19
 454 769 454 769 431.5 750 c 128,-1,12
 409 731 409 731 379 731 c 128,-1,13
164 731 m 0,20,21
 134 731 134 731 112 750 c 128,-1,22
 90 769 90 769 90 803.5 c 128,-1,23
 90 838 90 838 112 857.5 c 128,-1,24
 134 877 134 877 164 877 c 0,25,26
 193 877 193 877 216 857.5 c 128,-1,27
 239 838 239 838 239 803.5 c 128,-1,28
 239 769 239 769 216 750 c 128,-1,29
 193 731 193 731 164 731 c 0,20,21
EndSplineSet
EndChar

StartChar: Eth
Encoding: 208 208 171
Width: 500
Flags: W
LayerCount: 2
Fore
SplineSet
211 402 m 1,0,-1
 293 402 l 1,1,-1
 293 292 l 1,2,-1
 211 292 l 1,3,-1
 211 108 l 1,4,5
 215 107 215 107 220 107 c 128,-1,6
 225 107 225 107 230 107 c 0,7,8
 271 107 271 107 299 124 c 128,-1,9
 327 141 327 141 344 171.5 c 128,-1,10
 361 202 361 202 368.5 243.5 c 128,-1,11
 376 285 376 285 376 335 c 0,12,13
 376 378 376 378 370.5 419 c 128,-1,14
 365 460 365 460 350.5 491.5 c 128,-1,15
 336 523 336 523 310 542 c 128,-1,16
 284 561 284 561 244 561 c 0,17,18
 235 561 235 561 226.5 560 c 128,-1,19
 218 559 218 559 211 557 c 1,20,-1
 211 402 l 1,0,-1
511 335 m 0,21,22
 511 242 511 242 489 176.5 c 128,-1,23
 467 111 467 111 427.5 70 c 128,-1,24
 388 29 388 29 334 10 c 128,-1,25
 280 -9 280 -9 215 -9 c 0,26,27
 180 -9 180 -9 147 -5 c 128,-1,28
 114 -1 114 -1 77 8 c 1,29,-1
 77 292 l 1,30,-1
 19 292 l 1,31,-1
 19 402 l 1,32,-1
 77 402 l 1,33,-1
 77 660 l 1,34,35
 122 670 122 670 160 673 c 128,-1,36
 198 676 198 676 232 676 c 0,37,38
 295 676 295 676 347 656.5 c 128,-1,39
 399 637 399 637 435 595.5 c 128,-1,40
 471 554 471 554 491 490 c 128,-1,41
 511 426 511 426 511 335 c 0,21,22
EndSplineSet
EndChar

StartChar: Ntilde
Encoding: 209 209 172
Width: 500
Flags: W
LayerCount: 2
Fore
SplineSet
383 0 m 1,0,1
 338 111 338 111 284.5 222 c 128,-1,2
 231 333 231 333 170 444 c 1,3,-1
 170 0 l 1,4,-1
 50 0 l 1,5,-1
 50 669 l 1,6,-1
 157 669 l 1,7,8
 187 621 187 621 217 565.5 c 128,-1,9
 247 510 247 510 276 455 c 128,-1,10
 305 400 305 400 329 348 c 128,-1,11
 353 296 353 296 370 257 c 1,12,-1
 370 669 l 1,13,-1
 490 669 l 1,14,-1
 490 0 l 1,15,-1
 383 0 l 1,0,1
446 834 m 1,16,17
 441 819 441 819 430.5 802 c 128,-1,18
 420 785 420 785 405.5 770 c 128,-1,19
 391 755 391 755 372.5 745 c 128,-1,20
 354 735 354 735 333 735 c 0,21,22
 316 735 316 735 301 740.5 c 128,-1,23
 286 746 286 746 271.5 752 c 128,-1,24
 257 758 257 758 242.5 763.5 c 128,-1,25
 228 769 228 769 212 769 c 0,26,27
 194 769 194 769 181 756.5 c 128,-1,28
 168 744 168 744 160 728 c 1,29,-1
 96 770 l 1,30,31
 101 785 101 785 111.5 802.5 c 128,-1,32
 122 820 122 820 136.5 835 c 128,-1,33
 151 850 151 850 169.5 859.5 c 128,-1,34
 188 869 188 869 211 869 c 0,35,36
 228 869 228 869 242.5 864 c 128,-1,37
 257 859 257 859 271.5 853 c 128,-1,38
 286 847 286 847 300 841.5 c 128,-1,39
 314 836 314 836 330 836 c 0,40,41
 348 836 348 836 361.5 848 c 128,-1,42
 375 860 375 860 382 876 c 1,43,-1
 446 834 l 1,16,17
EndSplineSet
EndChar

StartChar: Ograve
Encoding: 210 210 173
Width: 500
Flags: W
LayerCount: 2
Fore
SplineSet
29 335 m 128,-1,1
 29 508 29 508 93 596 c 128,-1,2
 157 684 157 684 270 684 c 0,3,4
 388 684 388 684 449.5 596 c 128,-1,5
 511 508 511 508 511 335 c 128,-1,6
 511 162 511 162 448.5 74 c 128,-1,7
 386 -14 386 -14 271 -14 c 0,8,9
 153 -14 153 -14 91 74 c 128,-1,0
 29 162 29 162 29 335 c 128,-1,1
164 334.5 m 128,-1,11
 164 286 164 286 168 243.5 c 128,-1,12
 172 201 172 201 183 169.5 c 128,-1,13
 194 138 194 138 214.5 120 c 128,-1,14
 235 102 235 102 270 102 c 0,15,16
 303 102 303 102 324.5 120 c 128,-1,17
 346 138 346 138 357 170 c 128,-1,18
 368 202 368 202 372 244 c 128,-1,19
 376 286 376 286 376 334.5 c 128,-1,20
 376 383 376 383 372 426 c 128,-1,21
 368 469 368 469 357 500 c 128,-1,22
 346 531 346 531 325.5 549.5 c 128,-1,23
 305 568 305 568 270 568 c 128,-1,24
 235 568 235 568 214.5 549.5 c 128,-1,25
 194 531 194 531 183 499.5 c 128,-1,26
 172 468 172 468 168 425.5 c 128,-1,10
 164 383 164 383 164 334.5 c 128,-1,11
213 896 m 1,27,-1
 383 777 l 1,28,-1
 335 704 l 1,29,-1
 147 795 l 1,30,-1
 213 896 l 1,27,-1
EndSplineSet
EndChar

StartChar: Oacute
Encoding: 211 211 174
Width: 500
Flags: W
LayerCount: 2
Fore
SplineSet
29 335 m 128,-1,1
 29 508 29 508 93 596 c 128,-1,2
 157 684 157 684 270 684 c 0,3,4
 388 684 388 684 449.5 596 c 128,-1,5
 511 508 511 508 511 335 c 128,-1,6
 511 162 511 162 448.5 74 c 128,-1,7
 386 -14 386 -14 271 -14 c 0,8,9
 153 -14 153 -14 91 74 c 128,-1,0
 29 162 29 162 29 335 c 128,-1,1
164 334.5 m 128,-1,11
 164 286 164 286 168 243.5 c 128,-1,12
 172 201 172 201 183 169.5 c 128,-1,13
 194 138 194 138 214.5 120 c 128,-1,14
 235 102 235 102 270 102 c 0,15,16
 303 102 303 102 324.5 120 c 128,-1,17
 346 138 346 138 357 170 c 128,-1,18
 368 202 368 202 372 244 c 128,-1,19
 376 286 376 286 376 334.5 c 128,-1,20
 376 383 376 383 372 426 c 128,-1,21
 368 469 368 469 357 500 c 128,-1,22
 346 531 346 531 325.5 549.5 c 128,-1,23
 305 568 305 568 270 568 c 128,-1,24
 235 568 235 568 214.5 549.5 c 128,-1,25
 194 531 194 531 183 499.5 c 128,-1,26
 172 468 172 468 168 425.5 c 128,-1,10
 164 383 164 383 164 334.5 c 128,-1,11
388 795 m 1,27,-1
 200 704 l 1,28,-1
 151 777 l 1,29,-1
 322 896 l 1,30,-1
 388 795 l 1,27,-1
EndSplineSet
EndChar

StartChar: Ocircumflex
Encoding: 212 212 175
Width: 500
Flags: W
LayerCount: 2
Fore
SplineSet
29 335 m 128,-1,1
 29 508 29 508 93 596 c 128,-1,2
 157 684 157 684 270 684 c 0,3,4
 388 684 388 684 449.5 596 c 128,-1,5
 511 508 511 508 511 335 c 128,-1,6
 511 162 511 162 448.5 74 c 128,-1,7
 386 -14 386 -14 271 -14 c 0,8,9
 153 -14 153 -14 91 74 c 128,-1,0
 29 162 29 162 29 335 c 128,-1,1
164 334.5 m 128,-1,11
 164 286 164 286 168 243.5 c 128,-1,12
 172 201 172 201 183 169.5 c 128,-1,13
 194 138 194 138 214.5 120 c 128,-1,14
 235 102 235 102 270 102 c 0,15,16
 303 102 303 102 324.5 120 c 128,-1,17
 346 138 346 138 357 170 c 128,-1,18
 368 202 368 202 372 244 c 128,-1,19
 376 286 376 286 376 334.5 c 128,-1,20
 376 383 376 383 372 426 c 128,-1,21
 368 469 368 469 357 500 c 128,-1,22
 346 531 346 531 325.5 549.5 c 128,-1,23
 305 568 305 568 270 568 c 128,-1,24
 235 568 235 568 214.5 549.5 c 128,-1,25
 194 531 194 531 183 499.5 c 128,-1,26
 172 468 172 468 168 425.5 c 128,-1,10
 164 383 164 383 164 334.5 c 128,-1,11
421 765 m 1,27,-1
 368 701 l 1,28,-1
 272 775 l 1,29,-1
 176 701 l 1,30,-1
 121 765 l 1,31,-1
 272 896 l 1,32,-1
 421 765 l 1,27,-1
EndSplineSet
EndChar

StartChar: Otilde
Encoding: 213 213 176
Width: 500
Flags: W
LayerCount: 2
Fore
SplineSet
29 335 m 128,-1,1
 29 508 29 508 93 596 c 128,-1,2
 157 684 157 684 270 684 c 0,3,4
 388 684 388 684 449.5 596 c 128,-1,5
 511 508 511 508 511 335 c 128,-1,6
 511 162 511 162 448.5 74 c 128,-1,7
 386 -14 386 -14 271 -14 c 0,8,9
 153 -14 153 -14 91 74 c 128,-1,0
 29 162 29 162 29 335 c 128,-1,1
164 334.5 m 128,-1,11
 164 286 164 286 168 243.5 c 128,-1,12
 172 201 172 201 183 169.5 c 128,-1,13
 194 138 194 138 214.5 120 c 128,-1,14
 235 102 235 102 270 102 c 0,15,16
 303 102 303 102 324.5 120 c 128,-1,17
 346 138 346 138 357 170 c 128,-1,18
 368 202 368 202 372 244 c 128,-1,19
 376 286 376 286 376 334.5 c 128,-1,20
 376 383 376 383 372 426 c 128,-1,21
 368 469 368 469 357 500 c 128,-1,22
 346 531 346 531 325.5 549.5 c 128,-1,23
 305 568 305 568 270 568 c 128,-1,24
 235 568 235 568 214.5 549.5 c 128,-1,25
 194 531 194 531 183 499.5 c 128,-1,26
 172 468 172 468 168 425.5 c 128,-1,10
 164 383 164 383 164 334.5 c 128,-1,11
446 834 m 1,27,28
 441 819 441 819 430.5 802 c 128,-1,29
 420 785 420 785 405.5 770 c 128,-1,30
 391 755 391 755 372.5 745 c 128,-1,31
 354 735 354 735 333 735 c 0,32,33
 316 735 316 735 301 740.5 c 128,-1,34
 286 746 286 746 271.5 752 c 128,-1,35
 257 758 257 758 242.5 763.5 c 128,-1,36
 228 769 228 769 212 769 c 0,37,38
 194 769 194 769 181 756.5 c 128,-1,39
 168 744 168 744 160 728 c 1,40,-1
 96 770 l 1,41,42
 101 785 101 785 111.5 802.5 c 128,-1,43
 122 820 122 820 136.5 835 c 128,-1,44
 151 850 151 850 169.5 859.5 c 128,-1,45
 188 869 188 869 211 869 c 0,46,47
 228 869 228 869 242.5 864 c 128,-1,48
 257 859 257 859 271.5 853 c 128,-1,49
 286 847 286 847 300 841.5 c 128,-1,50
 314 836 314 836 330 836 c 0,51,52
 348 836 348 836 361.5 848 c 128,-1,53
 375 860 375 860 382 876 c 1,54,-1
 446 834 l 1,27,28
EndSplineSet
EndChar

StartChar: Odieresis
Encoding: 214 214 177
Width: 500
Flags: W
LayerCount: 2
Fore
SplineSet
29 335 m 128,-1,1
 29 508 29 508 93 596 c 128,-1,2
 157 684 157 684 270 684 c 0,3,4
 388 684 388 684 449.5 596 c 128,-1,5
 511 508 511 508 511 335 c 128,-1,6
 511 162 511 162 448.5 74 c 128,-1,7
 386 -14 386 -14 271 -14 c 0,8,9
 153 -14 153 -14 91 74 c 128,-1,0
 29 162 29 162 29 335 c 128,-1,1
164 334.5 m 128,-1,11
 164 286 164 286 168 243.5 c 128,-1,12
 172 201 172 201 183 169.5 c 128,-1,13
 194 138 194 138 214.5 120 c 128,-1,14
 235 102 235 102 270 102 c 0,15,16
 303 102 303 102 324.5 120 c 128,-1,17
 346 138 346 138 357 170 c 128,-1,18
 368 202 368 202 372 244 c 128,-1,19
 376 286 376 286 376 334.5 c 128,-1,20
 376 383 376 383 372 426 c 128,-1,21
 368 469 368 469 357 500 c 128,-1,22
 346 531 346 531 325.5 549.5 c 128,-1,23
 305 568 305 568 270 568 c 128,-1,24
 235 568 235 568 214.5 549.5 c 128,-1,25
 194 531 194 531 183 499.5 c 128,-1,26
 172 468 172 468 168 425.5 c 128,-1,10
 164 383 164 383 164 334.5 c 128,-1,11
379 731 m 128,-1,28
 349 731 349 731 327 750 c 128,-1,29
 305 769 305 769 305 803.5 c 128,-1,30
 305 838 305 838 327 857.5 c 128,-1,31
 349 877 349 877 379 877 c 128,-1,32
 409 877 409 877 431.5 857.5 c 128,-1,33
 454 838 454 838 454 803.5 c 128,-1,34
 454 769 454 769 431.5 750 c 128,-1,27
 409 731 409 731 379 731 c 128,-1,28
164 731 m 0,35,36
 134 731 134 731 112 750 c 128,-1,37
 90 769 90 769 90 803.5 c 128,-1,38
 90 838 90 838 112 857.5 c 128,-1,39
 134 877 134 877 164 877 c 0,40,41
 193 877 193 877 216 857.5 c 128,-1,42
 239 838 239 838 239 803.5 c 128,-1,43
 239 769 239 769 216 750 c 128,-1,44
 193 731 193 731 164 731 c 0,35,36
EndSplineSet
EndChar

StartChar: multiply
Encoding: 215 215 178
Width: 500
Flags: W
LayerCount: 2
Fore
SplineSet
409 496 m 1,0,-1
 485 419 l 1,1,-1
 350 285 l 1,2,-1
 486 150 l 1,3,-1
 409 76 l 1,4,-1
 274 212 l 1,5,-1
 139 76 l 1,6,-1
 65 149 l 1,7,-1
 200 284 l 1,8,-1
 65 419 l 1,9,-1
 139 497 l 1,10,-1
 274 362 l 1,11,-1
 409 496 l 1,0,-1
EndSplineSet
EndChar

StartChar: Oslash
Encoding: 216 216 179
Width: 500
Flags: W
LayerCount: 2
Fore
SplineSet
164 333 m 0,0,1
 164 281 164 281 167 239 c 1,2,-1
 320 552 l 1,3,4
 299 566 299 566 270 566 c 0,5,6
 235 566 235 566 214.5 547.5 c 128,-1,7
 194 529 194 529 183 497 c 128,-1,8
 172 465 172 465 168 423.5 c 128,-1,9
 164 382 164 382 164 333 c 0,0,1
376 333 m 0,10,11
 376 361 376 361 374.5 387.5 c 128,-1,12
 373 414 373 414 370 437 c 1,13,-1
 214 118 l 1,14,15
 238 100 238 100 270 99 c 1,16,17
 303 99 303 99 324.5 117.5 c 128,-1,18
 346 136 346 136 357 168 c 128,-1,19
 368 200 368 200 372 242 c 128,-1,20
 376 284 376 284 376 333 c 0,10,11
29 333 m 0,21,22
 29 506 29 506 93 593.5 c 128,-1,23
 157 681 157 681 270 681 c 0,24,25
 329 681 329 681 372 661 c 1,26,-1
 396 712 l 1,27,-1
 483 669 l 1,28,-1
 446 596 l 1,29,30
 511 506 511 506 511 333 c 128,-1,31
 511 160 511 160 448.5 72 c 128,-1,32
 386 -16 386 -16 271 -16 c 0,33,34
 209 -16 209 -16 162 9 c 1,35,-1
 137 -43 l 1,36,-1
 52 0 l 1,37,-1
 89 77 l 1,38,39
 29 166 29 166 29 333 c 0,21,22
EndSplineSet
EndChar

StartChar: Ugrave
Encoding: 217 217 180
Width: 500
Flags: W
LayerCount: 2
Fore
SplineSet
268 -14 m 0,0,1
 203 -14 203 -14 159.5 4 c 128,-1,2
 116 22 116 22 90 55.5 c 128,-1,3
 64 89 64 89 53 136.5 c 128,-1,4
 42 184 42 184 42 242 c 2,5,-1
 42 669 l 1,6,-1
 176 669 l 1,7,-1
 176 251 l 2,8,9
 176 209 176 209 180.5 180 c 128,-1,10
 185 151 185 151 195 134 c 128,-1,11
 205 117 205 117 223.5 109.5 c 128,-1,12
 242 102 242 102 270 102 c 128,-1,13
 298 102 298 102 316.5 109.5 c 128,-1,14
 335 117 335 117 345.5 134.5 c 128,-1,15
 356 152 356 152 360.5 181 c 128,-1,16
 365 210 365 210 365 252 c 2,17,-1
 365 669 l 1,18,-1
 498 669 l 1,19,-1
 498 242 l 2,20,21
 498 184 498 184 487 136.5 c 128,-1,22
 476 89 476 89 449 55.5 c 128,-1,23
 422 22 422 22 378 4 c 128,-1,24
 334 -14 334 -14 268 -14 c 0,0,1
203 896 m 1,25,-1
 374 777 l 1,26,-1
 325 704 l 1,27,-1
 137 795 l 1,28,-1
 203 896 l 1,25,-1
EndSplineSet
EndChar

StartChar: Uacute
Encoding: 218 218 181
Width: 500
Flags: W
LayerCount: 2
Fore
SplineSet
268 -14 m 0,0,1
 203 -14 203 -14 159.5 4 c 128,-1,2
 116 22 116 22 90 55.5 c 128,-1,3
 64 89 64 89 53 136.5 c 128,-1,4
 42 184 42 184 42 242 c 2,5,-1
 42 669 l 1,6,-1
 176 669 l 1,7,-1
 176 251 l 2,8,9
 176 209 176 209 180.5 180 c 128,-1,10
 185 151 185 151 195 134 c 128,-1,11
 205 117 205 117 223.5 109.5 c 128,-1,12
 242 102 242 102 270 102 c 128,-1,13
 298 102 298 102 316.5 109.5 c 128,-1,14
 335 117 335 117 345.5 134.5 c 128,-1,15
 356 152 356 152 360.5 181 c 128,-1,16
 365 210 365 210 365 252 c 2,17,-1
 365 669 l 1,18,-1
 498 669 l 1,19,-1
 498 242 l 2,20,21
 498 184 498 184 487 136.5 c 128,-1,22
 476 89 476 89 449 55.5 c 128,-1,23
 422 22 422 22 378 4 c 128,-1,24
 334 -14 334 -14 268 -14 c 0,0,1
405 795 m 1,25,-1
 217 704 l 1,26,-1
 168 777 l 1,27,-1
 339 896 l 1,28,-1
 405 795 l 1,25,-1
EndSplineSet
EndChar

StartChar: Ucircumflex
Encoding: 219 219 182
Width: 500
Flags: W
LayerCount: 2
Fore
SplineSet
268 -14 m 0,0,1
 203 -14 203 -14 159.5 4 c 128,-1,2
 116 22 116 22 90 55.5 c 128,-1,3
 64 89 64 89 53 136.5 c 128,-1,4
 42 184 42 184 42 242 c 2,5,-1
 42 669 l 1,6,-1
 176 669 l 1,7,-1
 176 251 l 2,8,9
 176 209 176 209 180.5 180 c 128,-1,10
 185 151 185 151 195 134 c 128,-1,11
 205 117 205 117 223.5 109.5 c 128,-1,12
 242 102 242 102 270 102 c 128,-1,13
 298 102 298 102 316.5 109.5 c 128,-1,14
 335 117 335 117 345.5 134.5 c 128,-1,15
 356 152 356 152 360.5 181 c 128,-1,16
 365 210 365 210 365 252 c 2,17,-1
 365 669 l 1,18,-1
 498 669 l 1,19,-1
 498 242 l 2,20,21
 498 184 498 184 487 136.5 c 128,-1,22
 476 89 476 89 449 55.5 c 128,-1,23
 422 22 422 22 378 4 c 128,-1,24
 334 -14 334 -14 268 -14 c 0,0,1
421 765 m 1,25,-1
 368 701 l 1,26,-1
 272 775 l 1,27,-1
 176 701 l 1,28,-1
 121 765 l 1,29,-1
 272 896 l 1,30,-1
 421 765 l 1,25,-1
EndSplineSet
EndChar

StartChar: Udieresis
Encoding: 220 220 183
Width: 500
Flags: W
LayerCount: 2
Fore
SplineSet
268 -14 m 0,0,1
 203 -14 203 -14 159.5 4 c 128,-1,2
 116 22 116 22 90 55.5 c 128,-1,3
 64 89 64 89 53 136.5 c 128,-1,4
 42 184 42 184 42 242 c 2,5,-1
 42 669 l 1,6,-1
 176 669 l 1,7,-1
 176 251 l 2,8,9
 176 209 176 209 180.5 180 c 128,-1,10
 185 151 185 151 195 134 c 128,-1,11
 205 117 205 117 223.5 109.5 c 128,-1,12
 242 102 242 102 270 102 c 128,-1,13
 298 102 298 102 316.5 109.5 c 128,-1,14
 335 117 335 117 345.5 134.5 c 128,-1,15
 356 152 356 152 360.5 181 c 128,-1,16
 365 210 365 210 365 252 c 2,17,-1
 365 669 l 1,18,-1
 498 669 l 1,19,-1
 498 242 l 2,20,21
 498 184 498 184 487 136.5 c 128,-1,22
 476 89 476 89 449 55.5 c 128,-1,23
 422 22 422 22 378 4 c 128,-1,24
 334 -14 334 -14 268 -14 c 0,0,1
379 731 m 128,-1,26
 349 731 349 731 327 750 c 128,-1,27
 305 769 305 769 305 803.5 c 128,-1,28
 305 838 305 838 327 857.5 c 128,-1,29
 349 877 349 877 379 877 c 128,-1,30
 409 877 409 877 431.5 857.5 c 128,-1,31
 454 838 454 838 454 803.5 c 128,-1,32
 454 769 454 769 431.5 750 c 128,-1,25
 409 731 409 731 379 731 c 128,-1,26
164 731 m 0,33,34
 134 731 134 731 112 750 c 128,-1,35
 90 769 90 769 90 803.5 c 128,-1,36
 90 838 90 838 112 857.5 c 128,-1,37
 134 877 134 877 164 877 c 0,38,39
 193 877 193 877 216 857.5 c 128,-1,40
 239 838 239 838 239 803.5 c 128,-1,41
 239 769 239 769 216 750 c 128,-1,42
 193 731 193 731 164 731 c 0,33,34
EndSplineSet
EndChar

StartChar: Yacute
Encoding: 221 221 184
Width: 500
Flags: W
LayerCount: 2
Fore
SplineSet
274 363 m 1,0,1
 286 388 286 388 302 425.5 c 128,-1,2
 318 463 318 463 333.5 505.5 c 128,-1,3
 349 548 349 548 363.5 591 c 128,-1,4
 378 634 378 634 390 669 c 1,5,-1
 527 669 l 1,6,7
 506 614 506 614 485.5 562 c 128,-1,8
 465 510 465 510 442.5 459 c 128,-1,9
 420 408 420 408 394 358 c 128,-1,10
 368 308 368 308 338 255 c 1,11,-1
 338 0 l 1,12,-1
 204 0 l 1,13,-1
 204 254 l 1,14,15
 145 359 145 359 100 458.5 c 128,-1,16
 55 558 55 558 14 669 c 1,17,-1
 157 669 l 1,18,19
 182 591 182 591 212 510.5 c 128,-1,20
 242 430 242 430 274 363 c 1,0,1
405 795 m 1,21,-1
 217 704 l 1,22,-1
 168 777 l 1,23,-1
 339 896 l 1,24,-1
 405 795 l 1,21,-1
EndSplineSet
EndChar

StartChar: Thorn
Encoding: 222 222 185
Width: 500
Flags: W
LayerCount: 2
Fore
SplineSet
257 458 m 0,0,1
 245 458 245 458 224 457.5 c 128,-1,2
 203 457 203 457 191 455 c 1,3,-1
 191 239 l 1,4,-1
 245 239 l 2,5,6
 309 239 309 239 341.5 268 c 128,-1,7
 374 297 374 297 374 351 c 0,8,9
 374 403 374 403 342 430.5 c 128,-1,10
 310 458 310 458 257 458 c 0,0,1
242 573 m 0,11,12
 371 573 371 573 440.5 518 c 128,-1,13
 510 463 510 463 510 350 c 0,14,15
 510 238 510 238 439.5 180.5 c 128,-1,16
 369 123 369 123 239 123 c 2,17,-1
 191 123 l 1,18,-1
 191 0 l 1,19,-1
 58 0 l 1,20,-1
 58 669 l 1,21,-1
 191 669 l 1,22,-1
 191 572 l 1,23,24
 205 573 205 573 217.5 573 c 128,-1,25
 230 573 230 573 242 573 c 0,11,12
EndSplineSet
EndChar

StartChar: germandbls
Encoding: 223 223 186
Width: 500
Flags: W
LayerCount: 2
Fore
SplineSet
441 589 m 0,0,1
 441 543 441 543 429.5 516 c 128,-1,2
 418 489 418 489 405 470 c 128,-1,3
 392 451 392 451 380.5 433 c 128,-1,4
 369 415 369 415 369 383 c 0,5,6
 369 360 369 360 381 344.5 c 128,-1,7
 393 329 393 329 411.5 315.5 c 128,-1,8
 430 302 430 302 450.5 289 c 128,-1,9
 471 276 471 276 489.5 259.5 c 128,-1,10
 508 243 508 243 519.5 218.5 c 128,-1,11
 531 194 531 194 531 160 c 0,12,13
 531 77 531 77 489.5 32.5 c 128,-1,14
 448 -12 448 -12 347 -12 c 0,15,16
 296 -12 296 -12 266.5 -3 c 128,-1,17
 237 6 237 6 218 15 c 1,18,-1
 242 125 l 1,19,20
 260 116 260 116 287.5 108 c 128,-1,21
 315 100 315 100 338 100 c 0,22,23
 367 100 367 100 381.5 116 c 128,-1,24
 396 132 396 132 396 158 c 128,-1,25
 396 184 396 184 373 203 c 128,-1,26
 350 222 350 222 313 241 c 0,27,28
 264 267 264 267 251.5 298.5 c 128,-1,29
 239 330 239 330 239 365 c 0,30,31
 239 403 239 403 250.5 426.5 c 128,-1,32
 262 450 262 450 276.5 470 c 128,-1,33
 291 490 291 490 302.5 513 c 128,-1,34
 314 536 314 536 314 572 c 0,35,36
 314 603 314 603 297 619 c 128,-1,37
 280 635 280 635 248 635 c 0,38,39
 207 635 207 635 186.5 603.5 c 128,-1,40
 166 572 166 572 166 517 c 2,41,-1
 166 0 l 1,42,-1
 33 0 l 1,43,-1
 33 514 l 2,44,45
 33 565 33 565 45 608 c 128,-1,46
 57 651 57 651 83 682.5 c 128,-1,47
 109 714 109 714 149 731 c 128,-1,48
 189 748 189 748 245 748 c 0,49,50
 299 748 299 748 336.5 735.5 c 128,-1,51
 374 723 374 723 397 700.5 c 128,-1,52
 420 678 420 678 430.5 649.5 c 128,-1,53
 441 621 441 621 441 589 c 0,0,1
EndSplineSet
EndChar

StartChar: agrave
Encoding: 224 224 187
Width: 500
Flags: W
LayerCount: 2
Fore
SplineSet
259 521 m 0,0,1
 322 521 322 521 363.5 506 c 128,-1,2
 405 491 405 491 430 464.5 c 128,-1,3
 455 438 455 438 465.5 400 c 128,-1,4
 476 362 476 362 476 314 c 2,5,-1
 476 12 l 1,6,7
 447 6 447 6 390 -3 c 128,-1,8
 333 -12 333 -12 261 -12 c 0,9,10
 212 -12 212 -12 173 -3.5 c 128,-1,11
 134 5 134 5 106 25 c 128,-1,12
 78 45 78 45 63 77 c 128,-1,13
 48 109 48 109 48 156 c 0,14,15
 48 200 48 200 65 230 c 128,-1,16
 82 260 82 260 111 278.5 c 128,-1,17
 140 297 140 297 178 305 c 128,-1,18
 216 313 216 313 257 313 c 0,19,20
 309 313 309 313 349 305 c 1,21,-1
 349 321 l 2,22,23
 349 359 349 359 325 384 c 128,-1,24
 301 409 301 409 243 409 c 0,25,26
 205 409 205 409 170 404 c 128,-1,27
 135 399 135 399 113 391 c 1,28,-1
 95 498 l 1,29,30
 120 507 120 507 165 514 c 128,-1,31
 210 521 210 521 259 521 c 0,0,1
271 95 m 0,32,33
 293 95 293 95 313.5 95.5 c 128,-1,34
 334 96 334 96 349 98 c 1,35,-1
 349 215 l 1,36,37
 336 217 336 217 317.5 218.5 c 128,-1,38
 299 220 299 220 284 220 c 0,39,40
 263 220 263 220 244 217.5 c 128,-1,41
 225 215 225 215 210 208.5 c 128,-1,42
 195 202 195 202 186.5 190 c 128,-1,43
 178 178 178 178 178 159 c 0,44,45
 178 124 178 124 204 109.5 c 128,-1,46
 230 95 230 95 271 95 c 0,32,33
212 746 m 1,47,-1
 382 626 l 1,48,-1
 334 554 l 1,49,-1
 146 645 l 1,50,-1
 212 746 l 1,47,-1
EndSplineSet
Substitution2: "'case' +WSdlh1tXfUQwf3UoMGuKv2V0MFcwX1tXX2IA lookup 18 +MLUw1jDGMPww1jDr" Agrave
EndChar

StartChar: aacute
Encoding: 225 225 188
Width: 500
Flags: W
LayerCount: 2
Fore
SplineSet
259 521 m 0,0,1
 322 521 322 521 363.5 506 c 128,-1,2
 405 491 405 491 430 464.5 c 128,-1,3
 455 438 455 438 465.5 400 c 128,-1,4
 476 362 476 362 476 314 c 2,5,-1
 476 12 l 1,6,7
 447 6 447 6 390 -3 c 128,-1,8
 333 -12 333 -12 261 -12 c 0,9,10
 212 -12 212 -12 173 -3.5 c 128,-1,11
 134 5 134 5 106 25 c 128,-1,12
 78 45 78 45 63 77 c 128,-1,13
 48 109 48 109 48 156 c 0,14,15
 48 200 48 200 65 230 c 128,-1,16
 82 260 82 260 111 278.5 c 128,-1,17
 140 297 140 297 178 305 c 128,-1,18
 216 313 216 313 257 313 c 0,19,20
 309 313 309 313 349 305 c 1,21,-1
 349 321 l 2,22,23
 349 359 349 359 325 384 c 128,-1,24
 301 409 301 409 243 409 c 0,25,26
 205 409 205 409 170 404 c 128,-1,27
 135 399 135 399 113 391 c 1,28,-1
 95 498 l 1,29,30
 120 507 120 507 165 514 c 128,-1,31
 210 521 210 521 259 521 c 0,0,1
271 95 m 0,32,33
 293 95 293 95 313.5 95.5 c 128,-1,34
 334 96 334 96 349 98 c 1,35,-1
 349 215 l 1,36,37
 336 217 336 217 317.5 218.5 c 128,-1,38
 299 220 299 220 284 220 c 0,39,40
 263 220 263 220 244 217.5 c 128,-1,41
 225 215 225 215 210 208.5 c 128,-1,42
 195 202 195 202 186.5 190 c 128,-1,43
 178 178 178 178 178 159 c 0,44,45
 178 124 178 124 204 109.5 c 128,-1,46
 230 95 230 95 271 95 c 0,32,33
401 645 m 1,47,-1
 213 554 l 1,48,-1
 164 626 l 1,49,-1
 335 746 l 1,50,-1
 401 645 l 1,47,-1
EndSplineSet
Substitution2: "'case' +WSdlh1tXfUQwf3UoMGuKv2V0MFcwX1tXX2IA lookup 18 +MLUw1jDGMPww1jDr" Aacute
EndChar

StartChar: acircumflex
Encoding: 226 226 189
Width: 500
Flags: W
LayerCount: 2
Fore
SplineSet
259 521 m 0,0,1
 322 521 322 521 363.5 506 c 128,-1,2
 405 491 405 491 430 464.5 c 128,-1,3
 455 438 455 438 465.5 400 c 128,-1,4
 476 362 476 362 476 314 c 2,5,-1
 476 12 l 1,6,7
 447 6 447 6 390 -3 c 128,-1,8
 333 -12 333 -12 261 -12 c 0,9,10
 212 -12 212 -12 173 -3.5 c 128,-1,11
 134 5 134 5 106 25 c 128,-1,12
 78 45 78 45 63 77 c 128,-1,13
 48 109 48 109 48 156 c 0,14,15
 48 200 48 200 65 230 c 128,-1,16
 82 260 82 260 111 278.5 c 128,-1,17
 140 297 140 297 178 305 c 128,-1,18
 216 313 216 313 257 313 c 0,19,20
 309 313 309 313 349 305 c 1,21,-1
 349 321 l 2,22,23
 349 359 349 359 325 384 c 128,-1,24
 301 409 301 409 243 409 c 0,25,26
 205 409 205 409 170 404 c 128,-1,27
 135 399 135 399 113 391 c 1,28,-1
 95 498 l 1,29,30
 120 507 120 507 165 514 c 128,-1,31
 210 521 210 521 259 521 c 0,0,1
271 95 m 0,32,33
 293 95 293 95 313.5 95.5 c 128,-1,34
 334 96 334 96 349 98 c 1,35,-1
 349 215 l 1,36,37
 336 217 336 217 317.5 218.5 c 128,-1,38
 299 220 299 220 284 220 c 0,39,40
 263 220 263 220 244 217.5 c 128,-1,41
 225 215 225 215 210 208.5 c 128,-1,42
 195 202 195 202 186.5 190 c 128,-1,43
 178 178 178 178 178 159 c 0,44,45
 178 124 178 124 204 109.5 c 128,-1,46
 230 95 230 95 271 95 c 0,32,33
421 615 m 1,47,-1
 368 551 l 1,48,-1
 272 625 l 1,49,-1
 176 551 l 1,50,-1
 121 615 l 1,51,-1
 272 746 l 1,52,-1
 421 615 l 1,47,-1
EndSplineSet
Substitution2: "'case' +WSdlh1tXfUQwf3UoMGuKv2V0MFcwX1tXX2IA lookup 18 +MLUw1jDGMPww1jDr" Acircumflex
EndChar

StartChar: atilde
Encoding: 227 227 190
Width: 500
Flags: W
LayerCount: 2
Fore
SplineSet
259 521 m 0,0,1
 322 521 322 521 363.5 506 c 128,-1,2
 405 491 405 491 430 464.5 c 128,-1,3
 455 438 455 438 465.5 400 c 128,-1,4
 476 362 476 362 476 314 c 2,5,-1
 476 12 l 1,6,7
 447 6 447 6 390 -3 c 128,-1,8
 333 -12 333 -12 261 -12 c 0,9,10
 212 -12 212 -12 173 -3.5 c 128,-1,11
 134 5 134 5 106 25 c 128,-1,12
 78 45 78 45 63 77 c 128,-1,13
 48 109 48 109 48 156 c 0,14,15
 48 200 48 200 65 230 c 128,-1,16
 82 260 82 260 111 278.5 c 128,-1,17
 140 297 140 297 178 305 c 128,-1,18
 216 313 216 313 257 313 c 0,19,20
 309 313 309 313 349 305 c 1,21,-1
 349 321 l 2,22,23
 349 359 349 359 325 384 c 128,-1,24
 301 409 301 409 243 409 c 0,25,26
 205 409 205 409 170 404 c 128,-1,27
 135 399 135 399 113 391 c 1,28,-1
 95 498 l 1,29,30
 120 507 120 507 165 514 c 128,-1,31
 210 521 210 521 259 521 c 0,0,1
271 95 m 0,32,33
 293 95 293 95 313.5 95.5 c 128,-1,34
 334 96 334 96 349 98 c 1,35,-1
 349 215 l 1,36,37
 336 217 336 217 317.5 218.5 c 128,-1,38
 299 220 299 220 284 220 c 0,39,40
 263 220 263 220 244 217.5 c 128,-1,41
 225 215 225 215 210 208.5 c 128,-1,42
 195 202 195 202 186.5 190 c 128,-1,43
 178 178 178 178 178 159 c 0,44,45
 178 124 178 124 204 109.5 c 128,-1,46
 230 95 230 95 271 95 c 0,32,33
447 684 m 1,47,48
 442 669 442 669 431.5 652 c 128,-1,49
 421 635 421 635 406.5 620 c 128,-1,50
 392 605 392 605 373.5 595 c 128,-1,51
 355 585 355 585 334 585 c 0,52,53
 317 585 317 585 302 590.5 c 128,-1,54
 287 596 287 596 272.5 602 c 128,-1,55
 258 608 258 608 243.5 613.5 c 128,-1,56
 229 619 229 619 213 619 c 0,57,58
 195 619 195 619 182.5 606.5 c 128,-1,59
 170 594 170 594 161 578 c 1,60,-1
 97 620 l 1,61,62
 102 635 102 635 112.5 652.5 c 128,-1,63
 123 670 123 670 137.5 685 c 128,-1,64
 152 700 152 700 170.5 709.5 c 128,-1,65
 189 719 189 719 212 719 c 0,66,67
 229 719 229 719 243.5 713.5 c 128,-1,68
 258 708 258 708 272.5 702.5 c 128,-1,69
 287 697 287 697 301 691.5 c 128,-1,70
 315 686 315 686 332 686 c 0,71,72
 350 686 350 686 363 698 c 128,-1,73
 376 710 376 710 383 726 c 1,74,-1
 447 684 l 1,47,48
EndSplineSet
Substitution2: "'case' +WSdlh1tXfUQwf3UoMGuKv2V0MFcwX1tXX2IA lookup 18 +MLUw1jDGMPww1jDr" Atilde
EndChar

StartChar: adieresis
Encoding: 228 228 191
Width: 500
Flags: W
LayerCount: 2
Fore
SplineSet
259 521 m 0,0,1
 322 521 322 521 363.5 506 c 128,-1,2
 405 491 405 491 430 464.5 c 128,-1,3
 455 438 455 438 465.5 400 c 128,-1,4
 476 362 476 362 476 314 c 2,5,-1
 476 12 l 1,6,7
 447 6 447 6 390 -3 c 128,-1,8
 333 -12 333 -12 261 -12 c 0,9,10
 212 -12 212 -12 173 -3.5 c 128,-1,11
 134 5 134 5 106 25 c 128,-1,12
 78 45 78 45 63 77 c 128,-1,13
 48 109 48 109 48 156 c 0,14,15
 48 200 48 200 65 230 c 128,-1,16
 82 260 82 260 111 278.5 c 128,-1,17
 140 297 140 297 178 305 c 128,-1,18
 216 313 216 313 257 313 c 0,19,20
 309 313 309 313 349 305 c 1,21,-1
 349 321 l 2,22,23
 349 359 349 359 325 384 c 128,-1,24
 301 409 301 409 243 409 c 0,25,26
 205 409 205 409 170 404 c 128,-1,27
 135 399 135 399 113 391 c 1,28,-1
 95 498 l 1,29,30
 120 507 120 507 165 514 c 128,-1,31
 210 521 210 521 259 521 c 0,0,1
271 95 m 0,32,33
 293 95 293 95 313.5 95.5 c 128,-1,34
 334 96 334 96 349 98 c 1,35,-1
 349 215 l 1,36,37
 336 217 336 217 317.5 218.5 c 128,-1,38
 299 220 299 220 284 220 c 0,39,40
 263 220 263 220 244 217.5 c 128,-1,41
 225 215 225 215 210 208.5 c 128,-1,42
 195 202 195 202 186.5 190 c 128,-1,43
 178 178 178 178 178 159 c 0,44,45
 178 124 178 124 204 109.5 c 128,-1,46
 230 95 230 95 271 95 c 0,32,33
379 581 m 128,-1,48
 349 581 349 581 327 600 c 128,-1,49
 305 619 305 619 305 653.5 c 128,-1,50
 305 688 305 688 327 707.5 c 128,-1,51
 349 727 349 727 379 727 c 128,-1,52
 409 727 409 727 431.5 707.5 c 128,-1,53
 454 688 454 688 454 653.5 c 128,-1,54
 454 619 454 619 431.5 600 c 128,-1,47
 409 581 409 581 379 581 c 128,-1,48
164 581 m 0,55,56
 134 581 134 581 112 600 c 128,-1,57
 90 619 90 619 90 653.5 c 128,-1,58
 90 688 90 688 112 707.5 c 128,-1,59
 134 727 134 727 164 727 c 0,60,61
 193 727 193 727 216 707.5 c 128,-1,62
 239 688 239 688 239 653.5 c 128,-1,63
 239 619 239 619 216 600 c 128,-1,64
 193 581 193 581 164 581 c 0,55,56
EndSplineSet
Substitution2: "'case' +WSdlh1tXfUQwf3UoMGuKv2V0MFcwX1tXX2IA lookup 18 +MLUw1jDGMPww1jDr" Adieresis
EndChar

StartChar: aring
Encoding: 229 229 192
Width: 500
Flags: W
LayerCount: 2
Fore
SplineSet
259 521 m 0,0,1
 322 521 322 521 363.5 506 c 128,-1,2
 405 491 405 491 430 464.5 c 128,-1,3
 455 438 455 438 465.5 400 c 128,-1,4
 476 362 476 362 476 314 c 2,5,-1
 476 12 l 1,6,7
 447 6 447 6 390 -3 c 128,-1,8
 333 -12 333 -12 261 -12 c 0,9,10
 212 -12 212 -12 173 -3.5 c 128,-1,11
 134 5 134 5 106 25 c 128,-1,12
 78 45 78 45 63 77 c 128,-1,13
 48 109 48 109 48 156 c 0,14,15
 48 200 48 200 65 230 c 128,-1,16
 82 260 82 260 111 278.5 c 128,-1,17
 140 297 140 297 178 305 c 128,-1,18
 216 313 216 313 257 313 c 0,19,20
 309 313 309 313 349 305 c 1,21,-1
 349 321 l 2,22,23
 349 359 349 359 325 384 c 128,-1,24
 301 409 301 409 243 409 c 0,25,26
 205 409 205 409 170 404 c 128,-1,27
 135 399 135 399 113 391 c 1,28,-1
 95 498 l 1,29,30
 120 507 120 507 165 514 c 128,-1,31
 210 521 210 521 259 521 c 0,0,1
271 95 m 0,32,33
 293 95 293 95 313.5 95.5 c 128,-1,34
 334 96 334 96 349 98 c 1,35,-1
 349 215 l 1,36,37
 336 217 336 217 317.5 218.5 c 128,-1,38
 299 220 299 220 284 220 c 0,39,40
 263 220 263 220 244 217.5 c 128,-1,41
 225 215 225 215 210 208.5 c 128,-1,42
 195 202 195 202 186.5 190 c 128,-1,43
 178 178 178 178 178 159 c 0,44,45
 178 124 178 124 204 109.5 c 128,-1,46
 230 95 230 95 271 95 c 0,32,33
313 652 m 0,47,48
 313 675 313 675 300 686.5 c 128,-1,49
 287 698 287 698 269 698 c 0,50,51
 253 698 253 698 239.5 686.5 c 128,-1,52
 226 675 226 675 226 652 c 0,53,54
 226 630 226 630 239.5 618.5 c 128,-1,55
 253 607 253 607 269 607 c 0,56,57
 287 607 287 607 300 618.5 c 128,-1,58
 313 630 313 630 313 652 c 0,47,48
383 652 m 0,59,60
 383 598 383 598 349 570 c 128,-1,61
 315 542 315 542 269 542 c 0,62,63
 247 542 247 542 226.5 549 c 128,-1,64
 206 556 206 556 190.5 570 c 128,-1,65
 175 584 175 584 166 604.5 c 128,-1,66
 157 625 157 625 157 652 c 128,-1,67
 157 679 157 679 166 700 c 128,-1,68
 175 721 175 721 190.5 735.5 c 128,-1,69
 206 750 206 750 226.5 757 c 128,-1,70
 247 764 247 764 269 764 c 0,71,72
 315 764 315 764 349 735.5 c 128,-1,73
 383 707 383 707 383 652 c 0,59,60
EndSplineSet
Substitution2: "'case' +WSdlh1tXfUQwf3UoMGuKv2V0MFcwX1tXX2IA lookup 18 +MLUw1jDGMPww1jDr" Aring
EndChar

StartChar: ae
Encoding: 230 230 193
Width: 500
Flags: W
LayerCount: 2
Fore
SplineSet
382 415 m 128,-1,1
 368 415 368 415 359 404.5 c 128,-1,2
 350 394 350 394 344 378 c 128,-1,3
 338 362 338 362 335.5 342 c 128,-1,4
 333 322 333 322 333 302 c 1,5,-1
 428 302 l 1,6,7
 428 323 428 323 425.5 343.5 c 128,-1,8
 423 364 423 364 418.5 379.5 c 128,-1,9
 414 395 414 395 405 405 c 128,-1,0
 396 415 396 415 382 415 c 128,-1,1
230 215 m 1,10,11
 220 218 220 218 210 219 c 128,-1,12
 200 220 200 220 191 220 c 0,13,14
 163 220 163 220 145 206 c 128,-1,15
 127 192 127 192 127 158 c 0,16,17
 127 129 127 129 142.5 111.5 c 128,-1,18
 158 94 158 94 187 94 c 0,19,20
 212 94 212 94 240 107 c 1,21,22
 234 135 234 135 232 163 c 128,-1,23
 230 191 230 191 230 215 c 1,10,11
176 521 m 0,24,25
 209 521 209 521 239 507.5 c 128,-1,26
 269 494 269 494 292 462 c 1,27,28
 310 490 310 490 332.5 505.5 c 128,-1,29
 355 521 355 521 382 521 c 0,30,31
 413 521 413 521 440 508 c 128,-1,32
 467 495 467 495 486 465.5 c 128,-1,33
 505 436 505 436 516 388.5 c 128,-1,34
 527 341 527 341 527 272 c 0,35,36
 527 259 527 259 527 240 c 128,-1,37
 527 221 527 221 525 211 c 1,38,-1
 332 211 l 1,39,40
 333 181 333 181 340.5 159.5 c 128,-1,41
 348 138 348 138 360 124.5 c 128,-1,42
 372 111 372 111 387 105 c 128,-1,43
 402 99 402 99 419 99 c 0,44,45
 438 99 438 99 457 104 c 128,-1,46
 476 109 476 109 491 118 c 1,47,-1
 511 13 l 1,48,49
 486 0 486 0 461.5 -6 c 128,-1,50
 437 -12 437 -12 405 -12 c 0,51,52
 367 -12 367 -12 340 3 c 128,-1,53
 313 18 313 18 295 41 c 1,54,55
 270 13 270 13 238 0.5 c 128,-1,56
 206 -12 206 -12 175 -12 c 0,57,58
 138 -12 138 -12 110 2.5 c 128,-1,59
 82 17 82 17 63 41 c 128,-1,60
 44 65 44 65 34.5 95 c 128,-1,61
 25 125 25 125 25 157 c 0,62,63
 25 230 25 230 66.5 271.5 c 128,-1,64
 108 313 108 313 173 313 c 0,65,66
 187 313 187 313 201 311.5 c 128,-1,67
 215 310 215 310 230 305 c 1,68,-1
 230 329 l 2,69,70
 230 377 230 377 213.5 395.5 c 128,-1,71
 197 414 197 414 167 414 c 0,72,73
 149 414 149 414 128 408 c 128,-1,74
 107 402 107 402 82 393 c 1,75,-1
 64 496 l 1,76,77
 92 508 92 508 120 514.5 c 128,-1,78
 148 521 148 521 176 521 c 0,24,25
EndSplineSet
Substitution2: "'case' +WSdlh1tXfUQwf3UoMGuKv2V0MFcwX1tXX2IA lookup 18 +MLUw1jDGMPww1jDr" AE
EndChar

StartChar: ccedilla
Encoding: 231 231 194
Width: 500
Flags: W
LayerCount: 2
Fore
SplineSet
48 254 m 0,0,1
 48 309 48 309 65 357.5 c 128,-1,2
 82 406 82 406 117.5 442 c 128,-1,3
 153 478 153 478 207.5 499.5 c 128,-1,4
 262 521 262 521 338 521 c 0,5,6
 383 521 383 521 420 514.5 c 128,-1,7
 457 508 457 508 495 492 c 1,8,-1
 465 386 l 1,9,10
 443 394 443 394 417 399.5 c 128,-1,11
 391 405 391 405 350 405 c 0,12,13
 302 405 302 405 270.5 393.5 c 128,-1,14
 239 382 239 382 219.5 362 c 128,-1,15
 200 342 200 342 191.5 314 c 128,-1,16
 183 286 183 286 183 254 c 0,17,18
 183 184 183 184 222 144 c 128,-1,19
 261 104 261 104 356 104 c 0,20,21
 387 104 387 104 421.5 108 c 128,-1,22
 456 112 456 112 484 122 c 1,23,-1
 503 13 l 1,24,25
 475 2 475 2 435 -5 c 128,-1,26
 395 -12 395 -12 341 -12 c 2,27,-1
 329 -12 l 1,28,-1
 324 -26 l 1,29,30
 360 -37 360 -37 374 -58 c 128,-1,31
 388 -79 388 -79 388 -98 c 0,32,33
 388 -123 388 -123 376.5 -139.5 c 128,-1,34
 365 -156 365 -156 347 -165.5 c 128,-1,35
 329 -175 329 -175 305.5 -179.5 c 128,-1,36
 282 -184 282 -184 258 -184 c 0,37,38
 209 -184 209 -184 172 -172 c 1,39,-1
 186 -104 l 1,40,41
 192 -106 192 -106 210.5 -109.5 c 128,-1,42
 229 -113 229 -113 246 -113 c 0,43,44
 290 -113 290 -113 291 -86 c 0,45,46
 291 -65 291 -65 252 -53 c 2,47,-1
 230 -46 l 1,48,49
 236 -23 236 -23 247 -2 c 1,50,51
 194 9 194 9 156.5 32.5 c 128,-1,52
 119 56 119 56 94.5 89.5 c 128,-1,53
 70 123 70 123 59 164.5 c 128,-1,54
 48 206 48 206 48 254 c 0,0,1
EndSplineSet
Substitution2: "'case' +WSdlh1tXfUQwf3UoMGuKv2V0MFcwX1tXX2IA lookup 18 +MLUw1jDGMPww1jDr" Ccedilla
EndChar

StartChar: egrave
Encoding: 232 232 195
Width: 500
Flags: W
LayerCount: 2
Fore
SplineSet
374 302 m 1,0,1
 374 323 374 323 368.5 342 c 128,-1,2
 363 361 363 361 351 376 c 128,-1,3
 339 391 339 391 320.5 400 c 128,-1,4
 302 409 302 409 275 409 c 0,5,6
 249 409 249 409 230.5 400.5 c 128,-1,7
 212 392 212 392 199.5 377 c 128,-1,8
 187 362 187 362 180 342.5 c 128,-1,9
 173 323 173 323 171 302 c 1,10,-1
 374 302 l 1,0,1
33 249 m 0,11,12
 33 316 33 316 54 367 c 128,-1,13
 75 418 75 418 108 452 c 128,-1,14
 141 486 141 486 184.5 503.5 c 128,-1,15
 228 521 228 521 273 521 c 0,16,17
 385 521 385 521 443.5 454.5 c 128,-1,18
 502 388 502 388 502 260 c 0,19,20
 502 247 502 247 501.5 233 c 128,-1,21
 501 219 501 219 500 211 c 1,22,-1
 171 211 l 1,23,24
 171 161 171 161 212 132.5 c 128,-1,25
 253 104 253 104 318 104 c 0,26,27
 358 104 358 104 394 112.5 c 128,-1,28
 430 121 430 121 455 130 c 1,29,-1
 473 16 l 1,30,31
 438 4 438 4 399.5 -4 c 128,-1,32
 361 -12 361 -12 312 -12 c 0,33,34
 247 -12 247 -12 196 5 c 128,-1,35
 145 22 145 22 108.5 54.5 c 128,-1,36
 72 87 72 87 52.5 135.5 c 128,-1,37
 33 184 33 184 33 249 c 0,11,12
212 746 m 1,38,-1
 382 626 l 1,39,-1
 334 554 l 1,40,-1
 146 645 l 1,41,-1
 212 746 l 1,38,-1
EndSplineSet
Substitution2: "'case' +WSdlh1tXfUQwf3UoMGuKv2V0MFcwX1tXX2IA lookup 18 +MLUw1jDGMPww1jDr" Egrave
EndChar

StartChar: eacute
Encoding: 233 233 196
Width: 500
Flags: W
LayerCount: 2
Fore
SplineSet
374 302 m 1,0,1
 374 323 374 323 368.5 342 c 128,-1,2
 363 361 363 361 351 376 c 128,-1,3
 339 391 339 391 320.5 400 c 128,-1,4
 302 409 302 409 275 409 c 0,5,6
 249 409 249 409 230.5 400.5 c 128,-1,7
 212 392 212 392 199.5 377 c 128,-1,8
 187 362 187 362 180 342.5 c 128,-1,9
 173 323 173 323 171 302 c 1,10,-1
 374 302 l 1,0,1
33 249 m 0,11,12
 33 316 33 316 54 367 c 128,-1,13
 75 418 75 418 108 452 c 128,-1,14
 141 486 141 486 184.5 503.5 c 128,-1,15
 228 521 228 521 273 521 c 0,16,17
 385 521 385 521 443.5 454.5 c 128,-1,18
 502 388 502 388 502 260 c 0,19,20
 502 247 502 247 501.5 233 c 128,-1,21
 501 219 501 219 500 211 c 1,22,-1
 171 211 l 1,23,24
 171 161 171 161 212 132.5 c 128,-1,25
 253 104 253 104 318 104 c 0,26,27
 358 104 358 104 394 112.5 c 128,-1,28
 430 121 430 121 455 130 c 1,29,-1
 473 16 l 1,30,31
 438 4 438 4 399.5 -4 c 128,-1,32
 361 -12 361 -12 312 -12 c 0,33,34
 247 -12 247 -12 196 5 c 128,-1,35
 145 22 145 22 108.5 54.5 c 128,-1,36
 72 87 72 87 52.5 135.5 c 128,-1,37
 33 184 33 184 33 249 c 0,11,12
410 645 m 1,38,-1
 222 554 l 1,39,-1
 174 626 l 1,40,-1
 345 746 l 1,41,-1
 410 645 l 1,38,-1
EndSplineSet
Substitution2: "'case' +WSdlh1tXfUQwf3UoMGuKv2V0MFcwX1tXX2IA lookup 18 +MLUw1jDGMPww1jDr" Eacute
EndChar

StartChar: ecircumflex
Encoding: 234 234 197
Width: 500
Flags: W
LayerCount: 2
Fore
SplineSet
374 302 m 1,0,1
 374 323 374 323 368.5 342 c 128,-1,2
 363 361 363 361 351 376 c 128,-1,3
 339 391 339 391 320.5 400 c 128,-1,4
 302 409 302 409 275 409 c 0,5,6
 249 409 249 409 230.5 400.5 c 128,-1,7
 212 392 212 392 199.5 377 c 128,-1,8
 187 362 187 362 180 342.5 c 128,-1,9
 173 323 173 323 171 302 c 1,10,-1
 374 302 l 1,0,1
33 249 m 0,11,12
 33 316 33 316 54 367 c 128,-1,13
 75 418 75 418 108 452 c 128,-1,14
 141 486 141 486 184.5 503.5 c 128,-1,15
 228 521 228 521 273 521 c 0,16,17
 385 521 385 521 443.5 454.5 c 128,-1,18
 502 388 502 388 502 260 c 0,19,20
 502 247 502 247 501.5 233 c 128,-1,21
 501 219 501 219 500 211 c 1,22,-1
 171 211 l 1,23,24
 171 161 171 161 212 132.5 c 128,-1,25
 253 104 253 104 318 104 c 0,26,27
 358 104 358 104 394 112.5 c 128,-1,28
 430 121 430 121 455 130 c 1,29,-1
 473 16 l 1,30,31
 438 4 438 4 399.5 -4 c 128,-1,32
 361 -12 361 -12 312 -12 c 0,33,34
 247 -12 247 -12 196 5 c 128,-1,35
 145 22 145 22 108.5 54.5 c 128,-1,36
 72 87 72 87 52.5 135.5 c 128,-1,37
 33 184 33 184 33 249 c 0,11,12
426 615 m 1,38,-1
 373 551 l 1,39,-1
 276 625 l 1,40,-1
 180 551 l 1,41,-1
 125 615 l 1,42,-1
 276 746 l 1,43,-1
 426 615 l 1,38,-1
EndSplineSet
Substitution2: "'case' +WSdlh1tXfUQwf3UoMGuKv2V0MFcwX1tXX2IA lookup 18 +MLUw1jDGMPww1jDr" Ecircumflex
EndChar

StartChar: edieresis
Encoding: 235 235 198
Width: 500
Flags: W
LayerCount: 2
Fore
SplineSet
374 302 m 1,0,1
 374 323 374 323 368.5 342 c 128,-1,2
 363 361 363 361 351 376 c 128,-1,3
 339 391 339 391 320.5 400 c 128,-1,4
 302 409 302 409 275 409 c 0,5,6
 249 409 249 409 230.5 400.5 c 128,-1,7
 212 392 212 392 199.5 377 c 128,-1,8
 187 362 187 362 180 342.5 c 128,-1,9
 173 323 173 323 171 302 c 1,10,-1
 374 302 l 1,0,1
33 249 m 0,11,12
 33 316 33 316 54 367 c 128,-1,13
 75 418 75 418 108 452 c 128,-1,14
 141 486 141 486 184.5 503.5 c 128,-1,15
 228 521 228 521 273 521 c 0,16,17
 385 521 385 521 443.5 454.5 c 128,-1,18
 502 388 502 388 502 260 c 0,19,20
 502 247 502 247 501.5 233 c 128,-1,21
 501 219 501 219 500 211 c 1,22,-1
 171 211 l 1,23,24
 171 161 171 161 212 132.5 c 128,-1,25
 253 104 253 104 318 104 c 0,26,27
 358 104 358 104 394 112.5 c 128,-1,28
 430 121 430 121 455 130 c 1,29,-1
 473 16 l 1,30,31
 438 4 438 4 399.5 -4 c 128,-1,32
 361 -12 361 -12 312 -12 c 0,33,34
 247 -12 247 -12 196 5 c 128,-1,35
 145 22 145 22 108.5 54.5 c 128,-1,36
 72 87 72 87 52.5 135.5 c 128,-1,37
 33 184 33 184 33 249 c 0,11,12
379 581 m 128,-1,39
 349 581 349 581 327 600 c 128,-1,40
 305 619 305 619 305 653.5 c 128,-1,41
 305 688 305 688 327 707.5 c 128,-1,42
 349 727 349 727 379 727 c 128,-1,43
 409 727 409 727 431.5 707.5 c 128,-1,44
 454 688 454 688 454 653.5 c 128,-1,45
 454 619 454 619 431.5 600 c 128,-1,38
 409 581 409 581 379 581 c 128,-1,39
164 581 m 0,46,47
 134 581 134 581 112 600 c 128,-1,48
 90 619 90 619 90 653.5 c 128,-1,49
 90 688 90 688 112 707.5 c 128,-1,50
 134 727 134 727 164 727 c 0,51,52
 193 727 193 727 216 707.5 c 128,-1,53
 239 688 239 688 239 653.5 c 128,-1,54
 239 619 239 619 216 600 c 128,-1,55
 193 581 193 581 164 581 c 0,46,47
EndSplineSet
Substitution2: "'case' +WSdlh1tXfUQwf3UoMGuKv2V0MFcwX1tXX2IA lookup 18 +MLUw1jDGMPww1jDr" Edieresis
EndChar

